<svg xmlns="http://www.w3.org/2000/svg" width="26" height="32">
  <defs>
    <linearGradient id="a" x1="0%" x2="0%" y1="100%" y2="0%">
      <stop offset="0%" stop-color="#FF9A13"/>
      <stop offset="100%" stop-color="#FF7807"/>
    </linearGradient>
  </defs>
  <path fill-rule="evenodd" fill="url(#a)" d="M26 6v24a2 2 0 0 1-2 2H2a2 2 0 0 1-2-2V2a2 2 0 0 1 2-2h18l6 6z"/>
  <path fill-rule="evenodd" fill="#FDDAAF" d="M26 6h-4a2 2 0 0 1-2-2V0l6 6z"/>
  <path fill-rule="evenodd" opacity=".6" fill="#FFF" d="M17.518 18.986l-3.509-3.5 2.341-1.489 2.642 2.605-1.474 2.384zm-1.713 1.423c-.84 1.259-1.51 3.23-1.51 3.23l-7.136 2.364 4.129-4.303A.997.997 0 0 0 13 21a1 1 0 0 0-2 0c0 .062.025.116.035.175l-4.048 4.606c.506-2.166 1.916-7.304 1.916-7.304s2.093-.614 3.294-1.265c1.129-.612 1.604-1.199 1.604-1.199l3.207 3.197s-.7.445-1.203 1.199z"/>
  <path fill-rule="evenodd" fill="#FFF" d="M9.432 3.35c-.328 0-.574-.225-.574-.531 0-.333.246-.531.574-.531.328 0 .574.198.574.531 0 .306-.246.531-.574.531zM6.683 8.66h-.027c-.474.387-1.029.702-1.639.702-.829 0-1.448-.504-1.448-1.386 0-1.062.938-1.593 3.041-1.827 0-.63-.209-1.233-1.02-1.233-.573 0-1.092.261-1.483.522l-.328-.567c.455-.288 1.156-.639 1.948-.639 1.202 0 1.712.801 1.712 2.007v3.006h-.683l-.073-.585zM6.61 6.689c-1.666.198-2.23.603-2.23 1.233 0 .558.382.783.874.783.482 0 .874-.225 1.356-.648V6.689zm3.232 2.556h-.829V4.358h.829v4.887z"/>
</svg>
