<svg xmlns="http://www.w3.org/2000/svg" width="26" height="32">
  <defs>
    <linearGradient id="a" x1="0%" x2="0%" y1="100%" y2="0%">
      <stop offset="0%" stop-color="#F45F5F"/>
      <stop offset="100%" stop-color="#EE3B3B"/>
    </linearGradient>
  </defs>
  <path fill-rule="evenodd" fill="url(#a)" d="M26 6v24a2 2 0 0 1-2 2H2a2 2 0 0 1-2-2V2a2 2 0 0 1 2-2h18l6 6z"/>
  <path fill-rule="evenodd" fill="#FF8276" d="M26 6h-4a2 2 0 0 1-2-2V0l6 6z"/>
  <path fill-rule="evenodd" opacity=".6" fill="#FFF" d="M14.596 13.196c-2.008 1.542-3.486 5.846-4.557 8.143-1.072 2.296-3.038 1.938-3.038 1.938v2.716s1.242.054 2.279-.389c1.039-.446 2.333-1.482 3.038-2.714.273-.483.683-1.616 1.139-2.714h3.038v-2.715h-1.899c.31-.705.526-1.203.739-1.544.771-1.232 2.679-1.17 2.679-1.17v-2.714s-1.409-.38-3.418 1.163z"/>
  <path fill-rule="evenodd" fill="#FFF" d="M12.834 9.156l-.073-.584h-.027c-.473.386-1.029.701-1.638.701-.828 0-1.447-.503-1.447-1.385 0-1.062.937-1.592 3.039-1.826 0-.63-.209-1.233-1.019-1.233-.573 0-1.092.261-1.483.522l-.328-.567c.455-.287 1.156-.638 1.948-.638 1.201 0 1.71.8 1.71 2.006v3.004h-.682zm-.146-2.554c-1.665.197-2.229.602-2.229 1.232 0 .558.382.783.873.783.483 0 .874-.225 1.356-.648V6.602zM6.909 8.185V1.996h.828v6.243c0 .252.109.351.236.351.046 0 .082 0 .173-.018l.119.629a1.326 1.326 0 0 1-.483.072c-.618 0-.873-.395-.873-1.088zM5.16 2.535c-.473 0-.7.333-.7.963v.774h1.046v.665H4.46v4.219h-.828V4.937h-.674v-.62l.674-.045v-.783c0-.99.455-1.61 1.437-1.61.301 0 .592.063.828.162l-.182.62a1.415 1.415 0 0 0-.555-.126z"/>
</svg>
