<svg xmlns="http://www.w3.org/2000/svg" width="26" height="32">
  <defs>
    <linearGradient id="a" x1="0%" x2="0%" y1="100%" y2="0%">
      <stop offset="0%" stop-color="#28B0FB"/>
      <stop offset="100%" stop-color="#1292F9"/>
    </linearGradient>
  </defs>
  <path fill-rule="evenodd" fill="url(#a)" d="M26 6v24a2 2 0 0 1-2 2H2a2 2 0 0 1-2-2V2a2 2 0 0 1 2-2h18l6 6z"/>
  <path fill-rule="evenodd" fill="#AFD9FD" d="M26 6h-4a2 2 0 0 1-2-2V0l6 6z"/>
  <path fill-rule="evenodd" opacity=".6" fill="#FFF" d="M12.091 21.2s2.663-1.597 4.162-.966c.311-.474.617-.984.916-1.504-1.466-.36-3.407-.036-3.407-.036s2.484-1.49 4.004-1.024c.305-.55.601-1.092.887-1.597-1.211-.081-2.384.114-2.384.114s1.555-.933 2.958-1.091c.441-.716.851-1.278 1.22-1.555-7.324 0-11.698 8.356-13.369 13.369h.836l2.506-4.178s.836.836 3.342 0c.594-.198 1.188-.747 1.77-1.487-1.47-.373-3.441-.045-3.441-.045z"/>
  <path fill-rule="evenodd" fill="#FFF" d="M16.919 8.902l-.081-.576h-.018c-.387.378-.9.694-1.486.694-1.224 0-2.016-.928-2.016-2.557 0-1.585.999-2.575 2.115-2.575.577 0 .946.216 1.378.576l-.045-.846V1.736h.819v7.166h-.666zm-.153-3.808c-.414-.369-.783-.513-1.188-.513-.793 0-1.414.756-1.414 1.873 0 1.179.486 1.881 1.35 1.881.451 0 .847-.225 1.252-.675V5.094zm-6.192.991c.711.27 1.494.558 1.494 1.485 0 .792-.63 1.45-1.783 1.45-.693 0-1.359-.289-1.827-.676l.405-.54c.423.342.864.576 1.449.576.649 0 .964-.342.964-.765 0-.495-.576-.72-1.117-.927-.684-.252-1.458-.585-1.458-1.414 0-.774.621-1.386 1.683-1.386.604 0 1.135.252 1.522.549l-.396.531c-.342-.252-.684-.432-1.126-.432-.612 0-.891.324-.891.702 0 .469.531.64 1.081.847zM5.129 9.02c-.441 0-.91-.208-1.351-.568l.018.856v1.656h-.819v-6.95h.675l.072.558h.027c.441-.36.991-.684 1.558-.684 1.26 0 1.944.99 1.944 2.494 0 1.674-.999 2.638-2.124 2.638zm-.018-4.439c-.414 0-.838.234-1.315.675v2.566c.441.378.874.513 1.198.513.81 0 1.404-.729 1.404-1.944 0-1.081-.36-1.81-1.287-1.81z"/>
</svg>
