<svg xmlns="http://www.w3.org/2000/svg" width="26" height="32">
  <defs>
    <linearGradient id="a" x1="0%" x2="0%" y1="100%" y2="0%">
      <stop offset="0%" stop-color="#919192"/>
      <stop offset="100%" stop-color="#6F6E6E"/>
    </linearGradient>
  </defs>
  <path fill-rule="evenodd" fill="url(#a)" d="M26 6v24a2 2 0 0 1-2 2H2a2 2 0 0 1-2-2V2a2 2 0 0 1 2-2h18l6 6z"/>
  <path fill-rule="evenodd" fill="#C6C5C5" d="M26 6h-4a2 2 0 0 1-2-2V0l6 6z"/>
  <path fill-rule="evenodd" opacity=".6" fill="#FFF" d="M20.086 26.013H6.964c-.717 0-1.146-.395-.875-.894.271-.498 6.37-10.48 6.561-10.719.405-.508.916-.609 1.312 0 .196.302 6.843 10.471 6.998 10.719.155.249-.111.894-.874.894zm-6.1-9.026L13 17v5h1l-.014-5.013zM13.5 23a.5.5 0 1 0 0 1 .5.5 0 0 0 0-1z"/>
  <path fill-rule="evenodd" fill="#FFF" d="M18.026 9.322l-.185.208c-1.066-.592-1.82-1.36-2.261-2.304-.112.4-.256.736-.448 1.024-.393.544-1.035.976-1.932 1.296l-.153-.24c.874-.296 1.507-.72 1.892-1.264.16-.264.289-.56.377-.895h-1.98v-.264h2.036c.056-.304.088-.64.096-.992v-.192h-1.916v-.264h4.121v.264h-1.932v.192c0 .368-.032.696-.08.992h2.276v.264h-2.132c.457.911 1.194 1.639 2.221 2.175zM13.865 2.7h3.447v1.863h-3.447V2.7zm.272 1.615h2.911V2.956h-2.911v1.359zm-2.292 4.639c.088-.08.136-.16.136-.24V5.123h-1.275v-.272h1.54v3.791c.288-.256.593-.56.93-.912l.072.296c-.409.44-.842.832-1.291 1.176l-.112-.248zm-.553-6.35l.192-.184a8.933 8.933 0 0 1 1.411 1.28l-.184.184c-.361-.408-.834-.832-1.419-1.28zM5.399 4.851H6.57V3.54H5.6v-.248h.97V2.276h.272v1.016h1.435V2.276h.273v1.016h1.01v.248H8.55v1.311h1.186v.272H5.399v-.272zm1.443 0h1.435V3.54H6.842v1.311zM4.125 8.93a7.244 7.244 0 0 0 1.386-.624l.049.248a7.69 7.69 0 0 1-1.756.728l-.112-.24c.096-.032.152-.072.152-.136V6.691H2.658v-.272h1.186V5.171h-.625v-.248h1.86v.248h-.954v1.248h1.226v.272H4.125V8.93zM2.593 5.187l-.232-.144c.561-.784.97-1.695 1.234-2.727l.273.056a11.52 11.52 0 0 1-.305.944h1.724v.264H3.459a8.069 8.069 0 0 1-.866 1.607zm6.534 4.391h-.273V9.13H6.329v.44h-.264V5.987h3.062v3.591zm-.273-3.335H6.329v1.175h2.525V6.243zm0 1.431H6.329v1.2h2.525v-1.2z"/>
</svg>
