<svg xmlns="http://www.w3.org/2000/svg" width="26" height="32">
  <defs>
    <linearGradient id="a" x1="0%" x2="0%" y1="100%" y2="0%">
      <stop offset="0%" stop-color="#8D9BDE"/>
      <stop offset="100%" stop-color="#6A79CF"/>
    </linearGradient>
    <linearGradient id="b" x1="0%" x2="0%" y1="100%" y2="0%">
      <stop offset="0%" stop-color="#45A5FC"/>
      <stop offset="100%" stop-color="#2686FB"/>
    </linearGradient>
    <linearGradient id="c" x1="0%" x2="0%" y1="100%" y2="0%">
      <stop offset="0%" stop-color="#25D1BD"/>
      <stop offset="100%" stop-color="#10BDA2"/>
    </linearGradient>
  </defs>
  <path fill-rule="evenodd" fill="url(#a)" d="M4 2a2 2 0 0 0-2 2v20a2 2 0 0 1-2-2V2a2 2 0 0 1 2-2h11l2 2H4z"/>
  <path fill-rule="evenodd" fill="#8D9BF1" d="M13 2V0l2 2h-2z"/>
  <path fill-rule="evenodd" fill="url(#b)" d="M8 6a2 2 0 0 0-2 2v19H5a2 2 0 0 1-2-2V5a2 2 0 0 1 2-2h11l3 3H8z"/>
  <path fill-rule="evenodd" fill="#88B6F3" d="M16 6V3l3 3h-3z"/>
  <path fill-rule="evenodd" fill="url(#c)" d="M26 13v17a2 2 0 0 1-2 2H9a2 2 0 0 1-2-2V9a2 2 0 0 1 2-2h11l6 6z"/>
  <path fill-rule="evenodd" fill="#7FD3C8" d="M26 13h-4a2 2 0 0 1-2-2V7l6 6z"/>
</svg>
