<svg width="538" height="388" xmlns="http://www.w3.org/2000/svg" xmlns:xlink="http://www.w3.org/1999/xlink">
  <defs>
    <linearGradient x1="18.939%" y1="31.07%" x2="88.024%" y2="73.299%" id="a">
      <stop stop-color="#FFF" offset="0%"/>
      <stop stop-color="#E3F1FE" offset="100%"/>
    </linearGradient>
    <linearGradient x1="18.939%" y1="31.07%" x2="123.942%" y2="100%" id="b">
      <stop stop-color="#FFF" offset="0%"/>
      <stop stop-color="#F1F7FC" offset="100%"/>
    </linearGradient>
    <linearGradient x1="18.939%" y1="31.07%" x2="88.024%" y2="73.299%" id="e">
      <stop stop-color="#FFF" offset="0%"/>
      <stop stop-color="#E3F1FE" offset="100%"/>
    </linearGradient>
    <linearGradient x1="18.939%" y1="31.07%" x2="123.942%" y2="100%" id="f">
      <stop stop-color="#FFF" offset="0%"/>
      <stop stop-color="#F1F7FC" offset="100%"/>
    </linearGradient>
    <linearGradient x1="18.939%" y1="31.07%" x2="123.942%" y2="100%" id="g">
      <stop stop-color="#FFF" offset="0%"/>
      <stop stop-color="#F1F7FC" offset="100%"/>
    </linearGradient>
    <linearGradient x1="81.26%" y1="93.337%" x2="30.129%" y2="53.797%" id="h">
      <stop stop-color="#FFAC57" offset="0%"/>
      <stop stop-color="#E88F4E" offset="100%"/>
    </linearGradient>
    <linearGradient x1="18.939%" y1="31.07%" x2="123.942%" y2="100%" id="i">
      <stop stop-color="#FFF" offset="0%"/>
      <stop stop-color="#F1F7FC" offset="100%"/>
    </linearGradient>
    <path d="M2 0h166.068a2 2 0 0 1 1.98 2.286l-12.289 85.122a2 2 0 0 1-1.98 1.714H14.29a2 2 0 0 1-1.98-1.714L.021 2.286A2 2 0 0 1 2 0z" id="c"/>
  </defs>
  <g fill="none" fill-rule="evenodd">
    <g transform="translate(13 330)" fill="#D7E8F8" fill-rule="nonzero">
      <ellipse cx="227.5" cy="23" rx="177.5" ry="23"/>
      <ellipse cx="97.5" cy="38" rx="97.5" ry="20"/>
    </g>
    <path d="M59.713 27.957C64.651 11.773 79.701 0 97.5 0c18.915 0 34.724 13.295 38.594 31.05A38.1 38.1 0 0 1 145 30c20.987 0 38 17.013 38 38 0 20.652-16.475 37.457-37 37.987V106H27C12.088 106 0 93.912 0 79c0-14.247 11.034-25.916 25.023-26.929A25.432 25.432 0 0 1 25 51c0-13.807 11.193-25 25-25 3.445 0 6.727.697 9.713 1.957z" transform="translate(227 239)" fill="url(#a)" fill-rule="nonzero"/>
    <path d="M148 239h61.9l20.081 11.034 64.146.824a2 2 0 0 1 1.975 2v71.566a2 2 0 0 1-2 2H148a2 2 0 0 1-2-2V241a2 2 0 0 1 2-2z" fill="#2253CF" fill-rule="nonzero"/>
    <g transform="translate(182 195)">
      <rect fill="#E5F1FF" fill-rule="nonzero" opacity=".8" x="7" width="76" height="97" rx="4"/>
      <rect fill="url(#b)" fill-rule="nonzero" y="6" width="75" height="97" rx="4"/>
      <rect fill="#CEE8FF" fill-rule="nonzero" x="12" y="46" width="52" height="4" rx="2"/>
      <rect fill="#CEE8FF" fill-rule="nonzero" x="12" y="60" width="52" height="4" rx="2"/>
      <g transform="translate(12 14)">
        <rect fill="#0079FF" fill-rule="nonzero" width="20" height="19" rx="2"/>
        <path d="M18 0a2 2 0 0 1 2 2v15c0 .408-.122.787-.332 1.103L1.603.04C1.732.014 1.864 0 2 0h16z" fill="#278DFF"/>
      </g>
      <rect fill="#B9DEFF" fill-rule="nonzero" x="42" y="14" width="19" height="19" rx="2"/>
    </g>
    <path d="M138.047 270h166.068a2 2 0 0 1 1.98 2.286l-12.289 85.122a2 2 0 0 1-1.98 1.714h-141.49a2 2 0 0 1-1.98-1.714l-12.288-85.122a2 2 0 0 1 1.98-2.286z" fill="#319CFF" fill-rule="nonzero"/>
    <g transform="translate(136.047 270)">
      <mask id="d" fill="#fff">
        <use xlink:href="#c"/>
      </mask>
      <path fill="#2B61E8" fill-rule="nonzero" mask="url(#d)" d="m170.953-5-22 86.5-118.452 3.8V96h135.452l10.535-99z"/>
    </g>
    <path d="M46.31 21.627C50.11 9.11 61.742 0 75.5 0c14.575 0 26.762 10.223 29.782 23.89 2.31-.581 4.728-.89 7.218-.89 16.292 0 29.5 13.208 29.5 29.5 0 16.125-12.938 29.229-29 29.496V82H21C9.402 82 0 72.598 0 61c0-10.926 8.345-19.904 19.009-20.907A19.862 19.862 0 0 1 19 39.5C19 28.73 27.73 20 38.5 20c2.777 0 5.42.58 7.81 1.627z" transform="translate(42 291)" fill="url(#e)" fill-rule="nonzero"/>
    <g transform="rotate(20 -37.767 1050.045)" fill-rule="nonzero">
      <rect fill="#E5F1FF" opacity=".8" x="6.289" y="4.22" width="112.336" height="87.247" rx="5"/>
      <path fill="#FFF" d="M0 0h107v80H0z"/>
      <path fill="#EBF9FF" d="M8 8h91v64H8z"/>
      <path d="M99 72H8V40.26c8.907-4.265 17.939-2.494 27.094 5.316 7.806 6.471 17.385 8.628 28.737 6.471C78.1 49.162 89.823 48.743 99 50.791V72z" fill="#00B2CE"/>
    </g>
    <path fill="#0079FF" fill-rule="nonzero" d="m410.578 142.087 14.587 35.638-49.236-17.92z"/>
    <path fill="#025DBF" fill-rule="nonzero" d="m382.726 120.012 16.226 48.172-59.201-21.547z"/>
    <g transform="rotate(20 -119.068 1244.54)">
      <ellipse fill="#FFC100" fill-rule="nonzero" cx="10.245" cy="10.254" rx="10.245" ry="10.254"/>
      <path d="m3.223 2.787 14.482 14.495a10.212 10.212 0 0 1-7.46 3.226C4.587 20.508 0 15.918 0 10.254a10.23 10.23 0 0 1 3.223-7.467z" fill="#FFB100"/>
    </g>
    <path d="M382.729 120.014c.961 8.007-2.693 12.037-10.963 12.09-4.73.193-4.608 2.918.365 8.174l22.552 26.352 4.269 1.554-16.223-48.17z" fill="#00A8FB" fill-rule="nonzero"/>
    <path d="M372.468 140.68c7.93 9.435 3.432 13.753-13.492 12.954l35.698 12.993-22.206-25.947z" fill="#21367D" fill-rule="nonzero"/>
    <g fill-rule="nonzero">
      <g transform="translate(67.548 96.292)">
        <path d="M88.75 31.523v93.16c0 2.1-1.728 3.803-3.859 3.803H3.86c-2.131 0-3.859-1.703-3.859-3.803V12.511c0-2.1 1.728-3.803 3.859-3.803h62.703" fill="#E5F1FF" opacity=".8"/>
        <path d="M98.271 22.815v93.16c0 2.1-1.728 3.803-3.859 3.803H13.38c-2.131 0-3.859-1.703-3.859-3.803V3.802C9.521 1.702 11.249 0 13.38 0h62.704" fill="url(#f)"/>
        <rect fill="#A3D3FF" transform="matrix(1 0 0 -1 0 45.86)" x="17.75" y="20.486" width="27.5" height="4.889" rx="2"/>
        <rect fill="#CEE8FF" x="17.75" y="36.375" width="67.5" height="4.889" rx="2"/>
        <rect fill="#CEE8FF" x="17.75" y="52.264" width="67.5" height="4.889" rx="2"/>
        <rect fill="#A3D3FF" transform="matrix(1 0 0 -1 0 146.083)" x="19" y="70.597" width="27.5" height="4.889" rx="2"/>
        <rect fill="#CEE8FF" x="19" y="86.486" width="67.5" height="4.889" rx="2"/>
        <rect fill="#CEE8FF" x="19" y="102.375" width="67.5" height="4.889" rx="2"/>
        <path d="M74.521.514V22h21.966a.5.5 0 0 0 .35-.858L75.37.156a.5.5 0 0 0-.85.358z" fill="#0079FF"/>
      </g>
    </g>
    <g transform="translate(215 109)" fill-rule="nonzero">
      <rect fill="#E5F1FF" opacity=".8" x="8" y="9" width="53" height="54" rx="4"/>
      <rect fill="url(#g)" width="53" height="55" rx="4"/>
      <path d="M36.218 32.351c.987-1.664 1.642-3.769 1.769-5.852.08-1.336-.215-2.74-.855-4.06-1.004-2.072-2.73-3.236-4.396-4.361-1.243-.84-2.418-1.632-3.25-2.765l-.148-.202c-.491-.664-1.046-1.418-1.134-2.05a1.238 1.238 0 0 0-1.295-1.059 1.224 1.224 0 0 0-1.136 1.226v21.934a7.028 7.028 0 0 0-3.665-1.009c-3.367 0-6.108 2.208-6.108 4.923C16 41.792 18.741 44 22.108 44c3.367 0 6.108-2.208 6.108-4.924V24.73c1.835.707 4.838 2.506 5.664 6.709-.154.229-.3.475-.472.672a1.233 1.233 0 0 0 .11 1.735 1.21 1.21 0 0 0 1.723-.11c.327-.375.618-.813.896-1.27a.775.775 0 0 0 .081-.114z" fill="#0079FF"/>
    </g>
    <g transform="translate(424 133)" fill-rule="nonzero">
      <ellipse fill="#D7E8F8" cx="63" cy="229.5" rx="51" ry="7.5"/>
      <path d="M48.558 11c-3 13-1.667 19.667 4 20 1.666 0 3-.333 4-1v6h12l-7-27-13 2z" fill="#FFDCC9"/>
      <path d="M47.938 13.93c5.197-.185 8.795-.61 10.795-1.277l3.263 4.154.964-1.397L60.5 9l-12 2-.562 2.93z" fill="#E5AD8F"/>
      <path d="M59.5 11.381c-12.486 2.413-18.986.913-19.5-4.5.333-5.667 3.583-7.833 9.75-6.5l9.75 2.5c6.333-1.667 9.667-.333 10 4 .333 2.333-1.167 7.833-4.5 16.5l-5.5-12z" fill="#3C485A"/>
      <path d="M61 17.482c2-1.444 3.5-1.833 4.5-1.166 1 1 0 2.5-3 4.5L61 17.482z" fill="#FFDCC9"/>
      <path d="M56.5 30c1.667-.333 3.167-1 4.5-2-1 2.333-2.5 4-4.5 5v-3z" fill="#E5AD8F"/>
      <path d="M93.025 197 88 201.634l7.86 6.324V214l4.922-6.481a2 2 0 0 0-.15-2.595L93.026 197zM33.21 214l.676 9L27 229h11.195a2 2 0 0 0 2-2v-13h-6.984z" fill="#07375B"/>
      <path d="M5.551 4C-7.609 43.356 2.63 73.348 36.265 93.978L50.1 102c4.101-.764 5.79-2.674 5.069-5.73L30.543 60.586c-4.428-7.259-3.85-15.23 1.735-23.912L35.308 0 5.55 4z" transform="translate(39.67 102)" fill="url(#h)"/>
      <path d="M41.683 108c-14.53 34.902-17.739 70.706-9.627 107.412 2.78 3.059 5.71 3.059 8.79 0 4.129-7.588 8.786-52.765 16.386-58.5C74.508 141.697 83.616 123.726 84.554 103l-42.87 5z" fill="#F7A04A"/>
      <path d="M56.09 35c-5.008 10.127-8.298 17.59-9.869 22.388-3.745 11.445-5.038 22.34-5.038 31.157-10.864 22.083-4.648 33.125 18.648 33.125 18.802-.387 28.203-10.03 28.203-28.927-1.791-20.164-7.49-38.225-17.095-54.182L67.512 32l-11.421 3z" fill="#233FE2"/>
      <path d="M18.875 59.222c-2.78-6.656-4.727-10.396-5.841-11.222-.908 0-.908 1.87 0 5.61-.398 1.21-1.61 1.513-3.637.908l-7.113-3.13C.369 50.91.778 51.651 3.51 53.61c-2.935.097-4.03.542-3.283 1.335.413.383 2.051.77 4.915 1.158l2.529.414a2 2 0 0 1 1.268.762l4.095 5.376 5.841-3.434z" fill="#FFDCC9"/>
      <path d="M44.85 59.352c4.966-8.794 10.31-11.386 16.03-7.776 5.78 6.434 1.446 18.026-12.998 34.776-14.655 12.207-25.05 11.365-31.185-2.526-4.996-15.04-6.006-23.532-3.032-25.474 4.237-2.83 8.42 1.13 12.55 11.877 3.576 6.586 7.576 6.586 12 0l6.635-10.877z" fill="#233FE2"/>
      <path d="M39.838 91.407c9.507-4.906 17.367-15.864 23.582-32.875C62.436 69.511 58.874 78.667 52.733 86c-6.415 6.147-11.228 9.22-14.44 9.22l1.545-3.813z" fill="#1423A4"/>
    </g>
    <g transform="translate(159.763)" fill-rule="nonzero">
      <circle fill="#E5F1FF" opacity=".8" cx="45.5" cy="43.5" r="42.5"/>
      <ellipse fill="url(#i)" cx="40" cy="39.5" rx="40" ry="39.5"/>
      <circle fill="#EBF9FF" cx="40.5" cy="39.5" r="18.5"/>
      <rect fill="#0078D7" x="38.158" y="16.501" width="5" height="24" rx="2.5"/>
      <path d="M64.938 53.015a2.48 2.48 0 0 1-3.38.904L40.69 41.942a2.452 2.452 0 0 1-.906-3.347l.007-.012a2.48 2.48 0 0 1 3.38-.905l20.869 11.977a2.452 2.452 0 0 1 .906 3.348l-.007.012z" fill="#FF72AC"/>
      <circle fill="#0078D7" cx="40.751" cy="38.613" r="4"/>
    </g>
    <g transform="translate(266 34)" fill-rule="nonzero">
      <path d="M6.527 0h81.608a4 4 0 0 1 3.989 4.295L89.955 33.67a4 4 0 0 1-3.99 3.705h-75.08L0 46 2.534 3.76A4 4 0 0 1 6.527 0z" fill="#0079FF"/>
      <circle fill="#FFF" cx="27" cy="19" r="4"/>
      <circle fill="#FFF" cx="46" cy="19" r="4"/>
      <circle fill="#FFF" cx="66" cy="19" r="4"/>
    </g>
    <g fill-rule="nonzero">
      <path d="M48.313 16h66.992a10.5 10.5 0 0 1 10.497 10.216l.432 16A10.5 10.5 0 0 1 115.738 53H48.745A10.5 10.5 0 0 1 38.25 42.784l-.432-16A10.5 10.5 0 0 1 48.313 16z" fill="#DDEDFE"/>
      <path fill="#CEE6FD" d="M53 24h60v2H53zM53 33h60v2H53zM53 42h60v2H53z"/>
    </g>
    <g fill-rule="nonzero">
      <path d="M11.08 80h29c5.8 0 10.5 4.701 10.5 10.5v30c0 5.799-4.7 10.5-10.5 10.5h-29c-5.799 0-10.5-4.701-10.5-10.5v-30c0-5.799 4.701-10.5 10.5-10.5z" fill="#FFF" opacity=".673"/>
      <path d="m34.619 108.228-12.03 7.017a2 2 0 0 1-3.009-1.727V99.482a2 2 0 0 1 3.008-1.727l12.03 7.017a2 2 0 0 1 0 3.456z" fill="#FFB100"/>
      <path d="M21.58 97.482a2 2 0 0 1 1.008.273l12.03 7.017a2 2 0 0 1 0 3.456l-4.289 2.501-10.749-6.206v-5.04a2 2 0 0 1 2-2z" fill="#FFC100"/>
    </g>
  </g>
</svg>
