<svg xmlns="http://www.w3.org/2000/svg" width="26" height="32">
  <defs>
    <linearGradient id="a" x1="0%" x2="0%" y1="100%" y2="0%">
      <stop offset="0%" stop-color="#4C9BFC"/>
      <stop offset="100%" stop-color="#2C7AFA"/>
    </linearGradient>
  </defs>
  <path fill-rule="evenodd" fill="url(#a)" d="M26 6v24a2 2 0 0 1-2 2H2a2 2 0 0 1-2-2V2a2 2 0 0 1 2-2h18l6 6z"/>
  <path fill-rule="evenodd" fill="#A7CBFD" d="M26 6h-4a2 2 0 0 1-2-2V0l6 6z"/>
  <path fill-rule="evenodd" opacity=".6" fill="#FFF" d="M14.015 18.569s.319-1.71 1.636-2.95c1.318-1.24 3.136-1.54 3.136-1.54s-.319 1.711-1.636 2.951c-1.318 1.24-3.136 1.539-3.136 1.539zm-1.527-3.396c0-1.754.747-3.175.747-3.175s1.374 1.421 1.374 3.175c0 1.754-1.06 3.175-1.06 3.175s-1.061-1.421-1.061-3.175zm-2.626 1.756c-1.331-1.245-1.653-2.963-1.653-2.963s1.837.301 3.167 1.546c1.331 1.245 1.653 2.963 1.653 2.963s-1.836-.301-3.167-1.546zm2.918 2.009s-1.525 1.009-3.401 1.014c-1.877.005-3.395-.995-3.395-.995s1.525-1.01 3.401-1.015c1.877-.005 3.395.996 3.395.996zm.249.497s-.322 1.718-1.653 2.964c-1.33 1.245-3.167 1.546-3.167 1.546s.322-1.718 1.653-2.964c1.331-1.245 3.167-1.546 3.167-1.546zm1.53 3.377c-.005 1.766-1.078 3.201-1.078 3.201s-1.063-1.429-1.057-3.195c.005-1.766 1.077-3.201 1.077-3.201s1.064 1.429 1.058 3.195zm-.295-3.79s1.511-.998 3.374-.998c1.863 0 3.374.998 3.374.998s-1.511.998-3.374.998c-1.863 0-3.374-.998-3.374-.998zm2.887 2.04c1.317 1.24 1.636 2.951 1.636 2.951s-1.818-.3-3.136-1.54c-1.317-1.24-1.636-2.951-1.636-2.951s1.818.3 3.136 1.54z"/>
  <path fill-rule="evenodd" fill="#FFF" d="M13.498 2.712a1.392 1.392 0 0 0-.55-.126c-.468 0-.693.333-.693.963v.774h1.036v.667h-1.036v4.222h-.819V4.99h-.666v-.622l.666-.045V3.54c0-.99.45-1.611 1.422-1.611.297 0 .586.063.82.162l-.18.621zm-4.258.603c-.324 0-.567-.225-.567-.531 0-.333.243-.531.567-.531.324 0 .567.198.567.531 0 .306-.243.531-.567.531zM5.218 8.609h.954c1.134 0 1.701.36 1.701 1.161 0 .909-.954 1.693-2.466 1.693-1.198 0-2.026-.469-2.026-1.315 0-.414.27-.81.729-1.107v-.036a.884.884 0 0 1-.45-.801c0-.406.297-.73.549-.91v-.036a1.716 1.716 0 0 1-.639-1.314c0-1.071.846-1.747 1.837-1.747.27 0 .513.063.684.126h1.701v.631h-.999c.234.225.396.585.396 1.008 0 1.044-.792 1.701-1.782 1.701-.243 0-.514-.063-.73-.171-.18.153-.315.315-.315.585 0 .316.198.532.856.532zm.189-1.504c.558 0 1.035-.45 1.035-1.161 0-.711-.459-1.143-1.035-1.143-.577 0-1.045.423-1.045 1.143 0 .711.477 1.161 1.045 1.161zM4.101 10.04c0 .522.531.864 1.423.864.936 0 1.557-.495 1.557-1.008 0-.45-.351-.603-.999-.603h-.846a2.75 2.75 0 0 1-.631-.081c-.351.252-.504.54-.504.828zm5.544-.828h-.819V4.323h.819v4.889z"/>
</svg>
