<svg xmlns="http://www.w3.org/2000/svg" width="26" height="32">
  <defs>
    <linearGradient id="a" x1="0%" x2="0%" y1="100%" y2="0%">
      <stop offset="0%" stop-color="#4C9BFC"/>
      <stop offset="100%" stop-color="#2C7AFA"/>
    </linearGradient>
  </defs>
  <path fill-rule="evenodd" fill="url(#a)" d="M26 6v24a2 2 0 0 1-2 2H2a2 2 0 0 1-2-2V2a2 2 0 0 1 2-2h18l6 6z"/>
  <path fill-rule="evenodd" fill="#A7CBFD" d="M26 6h-4a2 2 0 0 1-2-2V0l6 6z"/>
  <path fill-rule="evenodd" opacity=".6" fill="#FFF" d="M14.015 18.569s.319-1.71 1.636-2.95c1.318-1.24 3.136-1.54 3.136-1.54s-.319 1.711-1.636 2.951c-1.318 1.24-3.136 1.539-3.136 1.539zm-1.527-3.396c0-1.754.747-3.175.747-3.175s1.374 1.421 1.374 3.175c0 1.754-1.06 3.175-1.06 3.175s-1.061-1.421-1.061-3.175zm-2.626 1.756c-1.331-1.245-1.653-2.963-1.653-2.963s1.837.301 3.167 1.546c1.331 1.245 1.653 2.963 1.653 2.963s-1.836-.301-3.167-1.546zm2.918 2.009s-1.525 1.009-3.401 1.014c-1.877.005-3.395-.995-3.395-.995s1.525-1.01 3.401-1.015c1.877-.005 3.395.996 3.395.996zm.249.497s-.322 1.718-1.653 2.964c-1.33 1.245-3.167 1.546-3.167 1.546s.322-1.718 1.653-2.964c1.331-1.245 3.167-1.546 3.167-1.546zm1.53 3.377c-.005 1.766-1.077 3.201-1.077 3.201s-1.064-1.429-1.058-3.195c.005-1.766 1.077-3.201 1.077-3.201s1.064 1.429 1.058 3.195zm-.295-3.79s1.511-.998 3.374-.998c1.863 0 3.374.998 3.374.998s-1.511.998-3.374.998c-1.863 0-3.374-.998-3.374-.998zm2.887 2.04c1.317 1.24 1.636 2.951 1.636 2.951s-1.818-.3-3.136-1.54c-1.317-1.24-1.636-2.951-1.636-2.951s1.818.3 3.136 1.54z"/>
  <path fill-rule="evenodd" fill="#FFF" d="M17.189 5.844c0 1.044-.792 1.702-1.782 1.702-.243 0-.513-.063-.73-.171-.18.153-.315.315-.315.585 0 .315.198.531.856.531h.954c1.134 0 1.701.36 1.701 1.161 0 .91-.954 1.693-2.466 1.693-1.198 0-2.026-.468-2.026-1.315 0-.414.27-.81.729-1.107v-.036a.884.884 0 0 1-.45-.801c0-.405.297-.729.549-.909v-.036a1.72 1.72 0 0 1-.639-1.315c0-1.071.846-1.746 1.837-1.746.27 0 .513.063.684.126h1.701v.63h-.999c.234.225.396.585.396 1.008zm-3.088 4.078c0 .523.531.865 1.423.865.936 0 1.557-.496 1.557-1.009 0-.45-.351-.603-.999-.603h-.846c-.18 0-.414-.027-.631-.081-.351.252-.504.54-.504.828zm1.306-5.239c-.576 0-1.045.423-1.045 1.143 0 .711.478 1.161 1.045 1.161.558 0 1.035-.45 1.035-1.161 0-.711-.459-1.143-1.035-1.143zm-4.058 1.422c0-.918-.288-1.305-.909-1.305-.378 0-.774.243-1.234.747v3.547h-.819V6.105c0-.918-.288-1.305-.909-1.305-.369 0-.783.243-1.233.747v3.547h-.82V4.206H6.1l.072.711h.027c.424-.468.937-.837 1.522-.837.747 0 1.152.36 1.35.936.505-.549 1.018-.936 1.612-.936 1.008 0 1.485.666 1.485 1.917v3.097h-.819V6.105zM3.364 3.197c-.324 0-.567-.225-.567-.531 0-.333.243-.531.567-.531.325 0 .568.198.568.531 0 .306-.243.531-.568.531zm.406 5.897h-.82V4.206h.82v4.888z"/>
</svg>
