<svg xmlns="http://www.w3.org/2000/svg" width="26" height="32">
  <defs>
    <linearGradient id="a" x1="0%" x2="0%" y1="100%" y2="0%">
      <stop offset="0%" stop-color="#4C9BFC"/>
      <stop offset="100%" stop-color="#2C7AFA"/>
    </linearGradient>
  </defs>
  <path fill-rule="evenodd" fill="url(#a)" d="M26 6v24a2 2 0 0 1-2 2H2a2 2 0 0 1-2-2V2a2 2 0 0 1 2-2h18l6 6z"/>
  <path fill-rule="evenodd" fill="#A7CBFD" d="M26 6h-4a2 2 0 0 1-2-2V0l6 6z"/>
  <path fill-rule="evenodd" opacity=".6" fill="#FFF" d="M14.015 18.569s.319-1.71 1.636-2.95c1.318-1.24 3.136-1.54 3.136-1.54s-.319 1.711-1.636 2.951c-1.318 1.24-3.136 1.539-3.136 1.539zm-1.527-3.396c0-1.754.747-3.175.747-3.175s1.374 1.421 1.374 3.175c0 1.754-1.06 3.175-1.06 3.175s-1.061-1.421-1.061-3.175zm-2.626 1.756c-1.331-1.245-1.653-2.963-1.653-2.963s1.837.301 3.167 1.546c1.331 1.245 1.653 2.963 1.653 2.963s-1.837-.301-3.167-1.546zm2.918 2.009s-1.525 1.009-3.401 1.014c-1.877.005-3.395-.995-3.395-.995s1.525-1.01 3.401-1.015c1.877-.005 3.395.996 3.395.996zm.249.497s-.322 1.718-1.653 2.964c-1.33 1.245-3.167 1.546-3.167 1.546s.322-1.718 1.653-2.964c1.33-1.245 3.167-1.546 3.167-1.546zm1.53 3.377c-.005 1.766-1.078 3.201-1.078 3.201s-1.063-1.429-1.057-3.195c.005-1.766 1.077-3.201 1.077-3.201s1.064 1.429 1.058 3.195zm-.295-3.79s1.511-.998 3.374-.998c1.863 0 3.374.998 3.374.998s-1.511.998-3.374.998c-1.863 0-3.374-.998-3.374-.998zm2.887 2.04c1.317 1.24 1.636 2.951 1.636 2.951s-1.818-.3-3.136-1.54c-1.317-1.24-1.636-2.951-1.636-2.951s1.818.3 3.136 1.54z"/>
  <path fill-rule="evenodd" fill="#FFF" d="M15.221 5.709c0 1.044-.801 1.702-1.803 1.702-.246 0-.519-.063-.737-.171-.183.153-.319.315-.319.585 0 .315.2.531.865.531h.965c1.148 0 1.721.36 1.721 1.161 0 .91-.965 1.693-2.495 1.693-1.211 0-2.049-.468-2.049-1.315 0-.414.273-.81.738-1.107v-.036a.883.883 0 0 1-.456-.801c0-.405.301-.729.556-.91v-.036a1.709 1.709 0 0 1-.647-1.314c0-1.071.856-1.747 1.858-1.747.273 0 .519.063.692.126h1.721v.631h-1.01c.236.225.4.585.4 1.008zm-3.123 4.078c0 .523.537.865 1.439.865.947 0 1.575-.495 1.575-1.009 0-.45-.355-.603-1.011-.603h-.856c-.182 0-.419-.027-.637-.081-.355.252-.51.54-.51.828zm1.32-5.239c-.583 0-1.056.423-1.056 1.143 0 .711.482 1.161 1.056 1.161.565 0 1.047-.45 1.047-1.161 0-.711-.464-1.143-1.047-1.143zM7.823 9.076c-.446 0-.92-.207-1.366-.567l.018.855v1.657h-.829V4.07h.683l.073.559h.028c.446-.361 1.001-.685 1.575-.685 1.275 0 1.967.991 1.967 2.494 0 1.675-1.011 2.638-2.149 2.638zm-.018-4.438c-.419 0-.847.234-1.33.675v2.566c.446.378.884.513 1.211.513.82 0 1.421-.729 1.421-1.945 0-1.08-.364-1.809-1.302-1.809zM2.899 3.062c-.328 0-.574-.225-.574-.531 0-.333.246-.531.574-.531.319 0 .574.198.574.531 0 .306-.255.531-.574.531zM2.48 4.07h.829v5.447c0 1-.374 1.63-1.348 1.63-.301 0-.556-.063-.729-.126l.164-.63c.128.045.292.09.465.09.5 0 .619-.369.619-.964V4.07z"/>
</svg>
