<svg xmlns="http://www.w3.org/2000/svg" width="26" height="32" viewBox="0 0 26 32">
  <defs>
    <linearGradient id="pic-a" x1="0%" x2="0%" y1="100%" y2="0%">
      <stop offset="0%" stop-color="#4B9AFC"/>
      <stop offset="100%" stop-color="#2B79FA"/>
    </linearGradient>
  </defs>
  <g fill="none" fill-rule="evenodd">
    <path fill="url(#pic-a)" d="M26,6.5 L26,29.25 C26,30.3269553 25.1269553,31.2 24.05,31.2 L1.95,31.2 C0.873044738,31.2 0,30.3269553 0,29.25 L0,1.95 C0,0.873044738 0.873044738,0 1.95,0 L19.5,0 L26,6.5 Z"/>
    <path fill="#B0D1FD" d="M26,6.5 L20.8,6.5 C20.0820298,6.5 19.5,5.91797017 19.5,5.2 L19.5,0 L26,6.5 Z"/>
    <path fill="#FFF" d="M13.4979,18.75705 C13.4979,18.75705 13.8008,17.0898 15.05465,15.88145 C16.30915,14.67375 18.03945,14.3819 18.03945,14.3819 C18.03945,14.3819 17.73655,16.0485 16.48205,17.25685 C15.2282,18.4652 13.4979,18.75705 13.4979,18.75705 L13.4979,18.75705 Z M12.0445,15.44725 C12.0445,13.7384 13.0533,12.35325 13.0533,12.35325 C13.0533,12.35325 14.06275,13.7384 14.06275,15.44725 C14.06275,17.1561 13.0533,18.54125 13.0533,18.54125 C13.0533,18.54125 12.0445,17.1561 12.0445,15.44725 Z M9.54395,17.1587 C8.2771,15.94515 7.9716,14.2714 7.9716,14.2714 C7.9716,14.2714 9.71945,14.5639 10.98565,15.77745 C12.2525,16.991 12.55865,18.66475 12.55865,18.66475 C12.55865,18.66475 10.8108,18.3716 9.54395,17.1587 Z M12.32205,19.11585 C12.32205,19.11585 10.8706,20.0993 9.0844,20.1045 C7.2982,20.1097 5.85325,19.13405 5.85325,19.13405 C5.85325,19.13405 7.30405,18.1506 9.09025,18.1453841 C10.87645,18.14085 12.32205,19.11585 12.32205,19.11585 Z M12.55865,19.60075 C12.55865,19.60075 12.2525,21.2745 10.98565,22.48805 C9.71945,23.7016 7.9716,23.99475 7.9716,23.99475 C7.9716,23.99475 8.2771,22.32035 9.54395,21.10745 C10.8108,19.8939 12.55865,19.60075 12.55865,19.60075 L12.55865,19.60075 Z M14.0153,22.89105 C14.0101,24.6116 12.9896,26.00975 12.9896,26.00975 C12.9896,26.00975 11.97755,24.61745 11.98273,22.89625 C11.98795,21.1757 13.00845,19.77755 13.00845,19.77755 C13.00845,19.77755 14.02115,21.16985 14.0153,22.89105 Z M13.73515,19.19775 C13.73515,19.19775 15.17295,18.22535 16.94615,18.22535 C18.71935,18.22535 20.15715,19.19775 20.15715,19.19775 C20.15715,19.19775 18.71935,20.17015 16.94615,20.17015 C15.17295,20.17015 13.73515,19.19775 13.73515,19.19775 Z M16.48205,21.18545 C17.73655,22.3938 18.03945,24.06105 18.03945,24.06105 C18.03945,24.06105 16.30915,23.76855 15.05465,22.56085 C13.8008,21.3525 13.4979,19.68525 13.4979,19.68525 C13.4979,19.68525 15.2282,19.9771 16.48205,21.18545 L16.48205,21.18545 Z" opacity=".6"/>
    <path fill="#FFF" fill-rule="nonzero" d="M5.28886719,7.37756348 C5.58213037,7.37756348 5.82593083,7.25479045 6.02027588,7.00924072 C6.21462093,6.76369099 6.31179199,6.39653565 6.31179199,5.90776367 C6.31179199,5.60984552 6.26873415,5.35382594 6.18261719,5.13969727 C6.0196932,4.72773232 5.72177951,4.52175293 5.28886719,4.52175293 C4.85362738,4.52175293 4.55571369,4.73936957 4.39511719,5.17460938 C4.30900022,5.40735793 4.26594238,5.70294417 4.26594238,6.06137695 C4.26594238,6.34998517 4.30900022,6.59553121 4.39511719,6.79802246 C4.55804118,7.18438507 4.85595487,7.37756348 5.28886719,7.37756348 Z M3.66196289,4.07836914 L4.2729248,4.07836914 L4.2729248,4.57412109 C4.39860903,4.40421465 4.53592862,4.27271368 4.6848877,4.17961426 C4.89668888,4.03996512 5.14572611,3.9701416 5.43200684,3.9701416 C5.85560921,3.9701416 6.21520034,4.13248129 6.51079102,4.45716553 C6.80638169,4.78184977 6.9541748,5.24559432 6.9541748,5.84841309 C6.9541748,6.66303304 6.74121307,7.24489572 6.3152832,7.59401855 C6.04529487,7.81512969 5.73108903,7.92568359 5.37265625,7.92568359 C5.09103049,7.92568359 4.85479425,7.86400615 4.66394043,7.74064941 C4.55222112,7.67082485 4.42770251,7.55096114 4.29038086,7.38105469 L4.29038086,9.29074707 L3.66196289,9.29074707 L3.66196289,4.07836914 Z M7.6873291,4.07836914 L8.3262207,4.07836914 L8.3262207,7.8 L7.6873291,7.8 L7.6873291,4.07836914 Z M7.6873291,2.67141113 L8.3262207,2.67141113 L8.3262207,3.38361816 L7.6873291,3.38361816 L7.6873291,2.67141113 Z M10.7177002,3.95268555 C11.1389751,3.95268555 11.4816922,4.05509338 11.7458618,4.25991211 C12.0100314,4.46473084 12.1688799,4.81733962 12.2224121,5.31774902 L11.6114502,5.31774902 C11.5742104,5.08732795 11.4892585,4.89589513 11.3565918,4.74344482 C11.2239251,4.59099452 11.0109634,4.51477051 10.7177002,4.51477051 C10.3173727,4.51477051 10.0310962,4.71027637 9.8588623,5.10129395 C9.747143,5.35498988 9.69128418,5.66803199 9.69128418,6.04042969 C9.69128418,6.41515487 9.7704175,6.73052444 9.92868652,6.98654785 C10.0869555,7.24257127 10.3359928,7.37058105 10.6758057,7.37058105 C10.9364841,7.37058105 11.1430453,7.29086587 11.2954956,7.13143311 C11.4479459,6.97200034 11.5532631,6.75380184 11.6114502,6.47683105 L12.2224121,6.47683105 C12.1525875,6.97258549 11.9780287,7.33508593 11.6987305,7.56434326 C11.4194322,7.79360059 11.0621685,7.90822754 10.6269287,7.90822754 C10.1381567,7.90822754 9.74830875,7.7295957 9.45737305,7.37232666 C9.16643735,7.01505762 9.02097168,6.56876895 9.02097168,6.03344727 C9.02097168,5.37709633 9.18040205,4.8662209 9.49926758,4.50080566 C9.8181331,4.13539043 10.2242732,3.95268555 10.7177002,3.95268555 Z"/>
  </g>
</svg>
