<svg xmlns="http://www.w3.org/2000/svg" width="26" height="32">
  <defs>
    <linearGradient id="a" x1="0%" x2="0%" y1="100%" y2="0%">
      <stop offset="0%" stop-color="#4C9BFC"/>
      <stop offset="100%" stop-color="#2C7AFA"/>
    </linearGradient>
  </defs>
  <path fill-rule="evenodd" fill="url(#a)" d="M26 6v24a2 2 0 0 1-2 2H2a2 2 0 0 1-2-2V2a2 2 0 0 1 2-2h18l6 6z"/>
  <path fill-rule="evenodd" fill="#A7CBFD" d="M26 6h-4a2 2 0 0 1-2-2V0l6 6z"/>
  <path fill-rule="evenodd" opacity=".6" fill="#FFF" d="M14.015 18.569s.319-1.71 1.636-2.95c1.318-1.24 3.136-1.54 3.136-1.54s-.319 1.711-1.636 2.951c-1.318 1.24-3.136 1.539-3.136 1.539zm-1.527-3.396c0-1.754.747-3.175.747-3.175s1.374 1.421 1.374 3.175c0 1.754-1.06 3.175-1.06 3.175s-1.061-1.421-1.061-3.175zm-2.626 1.756c-1.331-1.245-1.653-2.963-1.653-2.963s1.837.301 3.167 1.546c1.331 1.245 1.653 2.963 1.653 2.963s-1.836-.301-3.167-1.546zm2.918 2.009s-1.525 1.009-3.401 1.014c-1.877.005-3.395-.995-3.395-.995s1.525-1.01 3.401-1.015c1.877-.005 3.395.996 3.395.996zm.249.497s-.322 1.718-1.653 2.964c-1.33 1.245-3.167 1.546-3.167 1.546s.322-1.718 1.653-2.964c1.331-1.245 3.167-1.546 3.167-1.546zm1.53 3.377c-.005 1.766-1.077 3.201-1.077 3.201s-1.064-1.429-1.058-3.195c.005-1.766 1.077-3.201 1.077-3.201s1.064 1.429 1.058 3.195zm-.295-3.79s1.511-.998 3.374-.998c1.863 0 3.374.998 3.374.998s-1.511.998-3.374.998c-1.863 0-3.374-.998-3.374-.998zm2.887 2.04c1.317 1.24 1.636 2.951 1.636 2.951s-1.818-.3-3.136-1.54c-1.317-1.24-1.636-2.951-1.636-2.951s1.818.3 3.136 1.54z"/>
  <path fill-rule="evenodd" fill="#FFF" d="M17.147 5.709c0 1.044-.802 1.702-1.803 1.702-.246 0-.52-.063-.738-.171-.182.153-.319.315-.319.585 0 .315.2.531.865.531h.966c1.147 0 1.721.36 1.721 1.161 0 .91-.966 1.693-2.495 1.693-1.212 0-2.049-.468-2.049-1.315 0-.414.273-.81.737-1.107v-.036a.882.882 0 0 1-.455-.801c0-.405.3-.729.555-.91v-.036a1.708 1.708 0 0 1-.646-1.314c0-1.071.856-1.747 1.858-1.747.273 0 .519.063.692.126h1.721v.631h-1.011c.237.225.401.585.401 1.008zm-3.124 4.078c0 .523.537.865 1.439.865.947 0 1.575-.495 1.575-1.009 0-.45-.355-.603-1.01-.603h-.857c-.182 0-.418-.027-.637-.081-.355.252-.51.54-.51.828zm1.321-5.239c-.583 0-1.057.423-1.057 1.143 0 .711.483 1.161 1.057 1.161.564 0 1.047-.45 1.047-1.161 0-.711-.465-1.143-1.047-1.143zM11.238 5.97c0-.918-.282-1.305-.938-1.305-.509 0-.856.252-1.356.747v3.547h-.829V4.07h.683l.073.703h.027c.474-.46.984-.829 1.657-.829 1.039 0 1.512.667 1.512 1.918v3.097h-.829V5.97zM4.647 9.076c-.446 0-.919-.207-1.366-.567l.018.855v1.657h-.828V4.07h.683l.073.559h.027c.446-.361 1.002-.685 1.575-.685 1.275 0 1.967.991 1.967 2.494 0 1.675-1.01 2.638-2.149 2.638zm-.018-4.438c-.419 0-.847.234-1.33.675v2.566c.447.378.884.513 1.212.513.819 0 1.42-.729 1.42-1.945 0-1.08-.364-1.809-1.302-1.809z"/>
</svg>
