<svg xmlns="http://www.w3.org/2000/svg" width="26" height="32">
  <defs>
    <linearGradient id="a" x1="0%" x2="0%" y1="100%" y2="0%">
      <stop offset="0%" stop-color="#4C9BFC"/>
      <stop offset="100%" stop-color="#2C7AFA"/>
    </linearGradient>
  </defs>
  <path fill-rule="evenodd" fill="url(#a)" d="M26 6v24a2 2 0 0 1-2 2H2a2 2 0 0 1-2-2V2a2 2 0 0 1 2-2h18l6 6z"/>
  <path fill-rule="evenodd" fill="#A7CBFD" d="M26 6h-4a2 2 0 0 1-2-2V0l6 6z"/>
  <path fill-rule="evenodd" opacity=".6" fill="#FFF" d="M14.015 18.569s.319-1.71 1.636-2.95c1.318-1.24 3.136-1.54 3.136-1.54s-.319 1.711-1.636 2.951c-1.318 1.24-3.136 1.539-3.136 1.539zm-1.527-3.396c0-1.754.747-3.175.747-3.175s1.374 1.421 1.374 3.175c0 1.754-1.06 3.175-1.06 3.175s-1.061-1.421-1.061-3.175zm-2.626 1.756c-1.331-1.245-1.653-2.963-1.653-2.963s1.837.301 3.167 1.546c1.331 1.245 1.653 2.963 1.653 2.963s-1.836-.301-3.167-1.546zm2.918 2.009s-1.525 1.009-3.401 1.014c-1.877.005-3.395-.995-3.395-.995s1.525-1.01 3.401-1.015c1.877-.005 3.395.996 3.395.996zm.249.497s-.322 1.718-1.653 2.964c-1.33 1.245-3.167 1.546-3.167 1.546s.322-1.718 1.653-2.964c1.331-1.245 3.167-1.546 3.167-1.546zm1.53 3.377c-.005 1.766-1.077 3.201-1.077 3.201s-1.064-1.429-1.058-3.195c.005-1.766 1.077-3.201 1.077-3.201s1.064 1.429 1.058 3.195zm-.295-3.79s1.511-.998 3.374-.998c1.863 0 3.374.998 3.374.998s-1.511.998-3.374.998c-1.863 0-3.374-.998-3.374-.998zm2.887 2.04c1.317 1.24 1.636 2.951 1.636 2.951s-1.818-.3-3.136-1.54c-1.317-1.24-1.636-2.951-1.636-2.951s1.818.3 3.136 1.54z"/>
  <path fill-rule="evenodd" fill="#FFF" d="M16.027 8.959h-1.001l-.72-2.638c-.127-.459-.218-.909-.337-1.404h-.045c-.11.495-.21.954-.337 1.422l-.692 2.62h-.975L10.545 4.07h.847l.738 2.827c.1.469.2.91.291 1.369h.046c.109-.459.209-.909.337-1.369l.765-2.827h.81l.774 2.827c.119.469.228.91.346 1.369h.037c.109-.459.2-.9.309-1.369l.729-2.827h.783l-1.33 4.889zm-7.219-.585H8.78c-.473.387-1.029.702-1.639.702-.829 0-1.448-.504-1.448-1.386 0-1.063.938-1.594 3.042-1.828 0-.63-.21-1.233-1.02-1.233-.574 0-1.093.261-1.485.522l-.327-.567c.455-.289 1.156-.64 1.948-.64 1.203 0 1.713.802 1.713 2.008v3.007h-.683l-.073-.585zm-.073-1.972c-1.667.198-2.231.603-2.231 1.234 0 .558.382.783.874.783.483 0 .874-.225 1.357-.648V6.402zm-4.188-1.71c-.41 0-.92.288-1.248 1.125v3.142h-.828V4.07h.683l.073.892h.027c.346-.622.847-1.018 1.402-1.018.219 0 .374.027.529.108l-.155.721a1.185 1.185 0 0 0-.483-.081z"/>
</svg>
