<svg xmlns="http://www.w3.org/2000/svg" width="26" height="32">
  <defs>
    <linearGradient id="a" x1="0%" x2="0%" y1="100%" y2="0%">
      <stop offset="0%" stop-color="#4C9BFC"/>
      <stop offset="100%" stop-color="#2C7AFA"/>
    </linearGradient>
  </defs>
  <path fill-rule="evenodd" fill="url(#a)" d="M26 6v24a2 2 0 0 1-2 2H2a2 2 0 0 1-2-2V2a2 2 0 0 1 2-2h18l6 6z"/>
  <path fill-rule="evenodd" fill="#A7CBFD" d="M26 6h-4a2 2 0 0 1-2-2V0l6 6z"/>
  <path fill-rule="evenodd" opacity=".6" fill="#FFF" d="M14.015 18.569s.319-1.71 1.636-2.95c1.318-1.24 3.136-1.54 3.136-1.54s-.319 1.711-1.636 2.951c-1.318 1.24-3.136 1.539-3.136 1.539zm-1.527-3.396c0-1.754.747-3.175.747-3.175s1.374 1.421 1.374 3.175c0 1.754-1.06 3.175-1.06 3.175s-1.061-1.421-1.061-3.175zm-2.626 1.756c-1.331-1.245-1.653-2.963-1.653-2.963s1.837.301 3.167 1.546c1.331 1.245 1.653 2.963 1.653 2.963s-1.837-.301-3.167-1.546zm2.918 2.009s-1.525 1.009-3.401 1.014c-1.877.005-3.395-.995-3.395-.995s1.525-1.01 3.401-1.015c1.877-.005 3.395.996 3.395.996zm.249.497s-.322 1.718-1.653 2.964c-1.33 1.245-3.167 1.546-3.167 1.546s.322-1.718 1.653-2.964c1.33-1.245 3.167-1.546 3.167-1.546zm1.53 3.377c-.005 1.766-1.078 3.201-1.078 3.201s-1.063-1.429-1.057-3.195c.005-1.766 1.077-3.201 1.077-3.201s1.064 1.429 1.058 3.195zm-.295-3.79s1.511-.998 3.374-.998c1.863 0 3.374.998 3.374.998s-1.511.998-3.374.998c-1.863 0-3.374-.998-3.374-.998zm2.887 2.04c1.317 1.24 1.636 2.951 1.636 2.951s-1.818-.3-3.136-1.54c-1.317-1.24-1.636-2.951-1.636-2.951s1.818.3 3.136 1.54z"/>
  <path fill-rule="evenodd" fill="#FFF" d="M12.009 2.459a1.415 1.415 0 0 0-.555-.126c-.474 0-.701.333-.701.963v.774H11.8v.667h-1.047v4.222h-.829V4.737H9.25v-.622l.674-.045v-.783c0-.99.455-1.611 1.439-1.611.3 0 .592.063.829.162l-.183.621zm-4.987.603c-.328 0-.574-.225-.574-.531 0-.333.246-.531.574-.531.327 0 .573.198.573.531 0 .306-.246.531-.573.531zM4.21 8.41c.173 0 .401-.063.565-.126l.164.612c-.283.09-.61.18-.911.18-1.056 0-1.412-.648-1.412-1.629v-2.71h-.737v-.622l.774-.045.1-1.368h.692V4.07h1.339v.667H3.445v2.728c0 .603.191.945.765.945zm3.221.549h-.828V4.07h.828v4.889z"/>
</svg>
