<svg xmlns="http://www.w3.org/2000/svg" width="26" height="32">
  <defs>
    <linearGradient id="a" x1="0%" x2="0%" y1="100%" y2="0%">
      <stop offset="0%" stop-color="#FF9C00"/>
      <stop offset="100%" stop-color="#FF7B00"/>
    </linearGradient>
  </defs>
  <path fill-rule="evenodd" fill="url(#a)" d="M26 6v24a2 2 0 0 1-2 2H2a2 2 0 0 1-2-2V2a2 2 0 0 1 2-2h18l6 6z"/>
  <path fill-rule="evenodd" opacity=".102" fill="#FFF" d="M18.938 32v-2H24v2h-5.062zm0-10H24v5h-5.062v-5zm0-9H24v5h-5.062v-5zm0-8H24v5h-5.062V5zm0-5H24v2h-5.062V0zM2 30h5.063v2H2v-2zm0-8h5.063v5H2v-5zm0-9h5.063v5H2v-5zm0-8h5.063v5H2V5zm0-5h5.063v2H2V0z"/>
  <path fill-rule="evenodd" fill="#F7BD89" d="M26 6h-4a2 2 0 0 1-2-2V0l6 6z"/>
  <path fill-rule="evenodd" fill="#FFF" d="M21.615 16.502h-.95v2.327h-.729v-5.861h1.64c1.295 0 2.158.439 2.158 1.719 0 1.239-.863 1.815-2.119 1.815zm-.125-2.935h-.825v2.335h.856c1.012 0 1.491-.375 1.491-1.215 0-.848-.51-1.12-1.522-1.12zm-4.515 5.366c-1.099 0-1.797-1.015-1.797-3.055 0-2.039.698-3.022 1.797-3.022 1.091 0 1.789.991 1.789 3.022 0 2.04-.698 3.055-1.789 3.055zm0-5.486c-.659 0-1.099.72-1.099 2.431 0 1.728.44 2.471 1.099 2.471.651 0 1.091-.743 1.091-2.471 0-1.711-.44-2.431-1.091-2.431zm-2.545 3.967c0 .855-.722 1.519-1.805 1.519-1.06 0-1.837-.656-1.837-1.559 0-.784.534-1.328 1.06-1.616v-.04c-.424-.295-.777-.735-.777-1.351 0-.896.675-1.487 1.578-1.487.981 0 1.577.639 1.577 1.543 0 .616-.424 1.143-.769 1.415v.04c.502.296.973.736.973 1.536zm-.816-2.951c0-.576-.361-1.048-.981-1.048-.526 0-.911.384-.911.952 0 .704.62 1.008 1.295 1.279.393-.351.597-.751.597-1.183zm-1.389 1.519c-.463.304-.785.768-.785 1.328 0 .624.51 1.079 1.201 1.079.659 0 1.106-.407 1.106-.991 0-.784-.706-1.08-1.522-1.416zm-3.966 2.951c-1.098 0-1.797-1.015-1.797-3.055 0-2.039.699-3.022 1.797-3.022 1.091 0 1.79.991 1.79 3.022 0 2.04-.699 3.055-1.79 3.055zm0-5.486c-.659 0-1.098.72-1.098 2.431 0 1.728.439 2.471 1.098 2.471.652 0 1.091-.743 1.091-2.471 0-1.711-.439-2.431-1.091-2.431zM2.41 18.221h1.28v-4.374H2.669v-.464c.511-.096.879-.232 1.193-.415h.55v5.253h1.154v.608H2.41v-.608z"/>
</svg>
