<svg xmlns="http://www.w3.org/2000/svg" width="26" height="32">
  <defs>
    <linearGradient id="a" x1="0%" x2="0%" y1="100%" y2="0%">
      <stop offset="0%" stop-color="#28B1FB"/>
      <stop offset="100%" stop-color="#1293F9"/>
    </linearGradient>
  </defs>
  <path fill-rule="evenodd" fill="url(#a)" d="M26 6v24a2 2 0 0 1-2 2H2a2 2 0 0 1-2-2V2a2 2 0 0 1 2-2h18l6 6z"/>
  <path fill-rule="evenodd" opacity=".102" fill="#FFF" d="M18.938 32v-2H24v2h-5.062zm0-10H24v5h-5.062v-5zm0-9H24v5h-5.062v-5zm0-8H24v5h-5.062V5zm0-5H24v2h-5.062V0zM2 30h5.062v2H2v-2zm0-8h5.062v5H2v-5zm0-9h5.062v5H2v-5zm0-8h5.062v5H2V5zm0-5h5.062v2H2V0z"/>
  <path fill-rule="evenodd" fill="#8DC5EE" d="M26 6h-4a2 2 0 0 1-2-2V0l6 6z"/>
  <path fill-rule="evenodd" fill="#FFF" d="M22.549 14.888v.6h-6.678v-.6h2.967v-.68h-2.222v-.581h2.222v-.66h-2.64v-.6h2.64v-.63h.714v.63h2.712v.6h-2.712v.66h2.324v.581h-2.324v.68h2.997zm-8.819-2.521l.52-.5c.612.43 1.122.86 1.54 1.29l-.52.51c-.377-.41-.887-.84-1.54-1.3zm1.846 3.371l-.53.51c-.388-.46-.938-.96-1.642-1.48l.53-.5c.653.49 1.193.98 1.642 1.47zm-5.156 5.001c-2.539 0-4.129-.15-4.761-.43-.551-.25-1.05-.69-1.479-1.32-.142.68-.326 1.31-.571 1.9l-.53-.47c.449-1.16.704-2.47.745-3.911l.632.07a17.53 17.53 0 0 1-.123 1.501c.265.49.571.88.918 1.17v-3.381H3.365v-.66h1.672v-1.481h-1.55v-.64h1.55v-1.36h.703v1.36h1.53v.64H5.74v1.481h1.509v.66H5.944v1.41h1.315v.661H5.944v1.74c.061.03.112.05.163.07.602.2 1.988.31 4.15.31.938-.01 1.641-.02 2.1-.04l-.122.72H10.42zm1.376-1.3H7.881v-3.111h3.915v3.111zm-.673-2.471H8.534v1.841h2.589v-1.841zm-.458-1.17c-.204 0-.439-.02-.724-.04l-.184-.63.744.05c.317-.01.51-.14.592-.39.081-.24.132-.871.143-1.901h-1.53c-.132.71-.306 1.27-.53 1.691-.285.49-.703.93-1.254 1.31l-.479-.59c.489-.32.856-.67 1.101-1.05.214-.351.377-.801.479-1.361H7.616v-.66h4.323c0 1.7-.102 2.721-.296 3.061-.183.34-.509.51-.978.51zm4.921 1.5a31.242 31.242 0 0 1-1.366 3.491l-.673-.29a28.24 28.24 0 0 0 1.397-3.451l.642.25zm6.056 2.731c0 .54-.275.82-.816.82h-.978l-.184-.64.948.03c.204 0 .316-.12.316-.36v-.59h-3.436v1.62h-.693v-4.771h4.843v3.891zm-.714-3.301h-3.436v.74h3.436v-.74zm0 1.301h-3.436v.71h3.436v-.71z"/>
</svg>
