<svg xmlns="http://www.w3.org/2000/svg" width="26" height="32">
  <defs>
    <linearGradient id="a" x1="0%" x2="0%" y1="100%" y2="0%">
      <stop offset="0%" stop-color="#16C687"/>
      <stop offset="100%" stop-color="#09AE63"/>
    </linearGradient>
  </defs>
  <path fill-rule="evenodd" fill="url(#a)" d="M26 6v24a2 2 0 0 1-2 2H2a2 2 0 0 1-2-2V2a2 2 0 0 1 2-2h18l6 6z"/>
  <path fill-rule="evenodd" opacity=".102" fill="#FFF" d="M18.937 32v-2H24v2h-5.063zm0-10H24v5h-5.063v-5zm0-9H24v5h-5.063v-5zm0-8H24v5h-5.063V5zm0-5H24v2h-5.063V0zM2 30h5.062v2H2v-2zm0-8h5.062v5H2v-5zm0-9h5.062v5H2v-5zm0-8h5.062v5H2V5zm0-5h5.062v2H2V0z"/>
  <path fill-rule="evenodd" fill="#A3E1C6" d="M26 6h-4a2 2 0 0 1-2-2V0l6 6z"/>
  <path fill-rule="evenodd" fill="#FFF" d="M22.549 14.888v.6h-6.678v-.6h2.967v-.68h-2.222v-.581h2.222v-.66h-2.64v-.6h2.64v-.63h.714v.63h2.712v.6h-2.712v.66h2.324v.581h-2.324v.68h2.997zm-8.819-2.521l.52-.5c.612.43 1.122.86 1.54 1.29l-.52.51c-.377-.41-.887-.84-1.54-1.3zm1.846 3.371l-.53.51c-.388-.46-.938-.96-1.642-1.48l.53-.5c.653.49 1.193.98 1.642 1.47zM3.222 12.577h4.18a5.837 5.837 0 0 0-.347-.76l.806-.14c.112.27.224.57.326.9h4.037v.66H3.222v-.66zm7.361 1.31v1.941H4.884v-1.941h5.699zm-4.985 1.381h4.271v-.82H5.598v.82zm6.117 4.661c0 .63-.378.95-1.122.95h-.856l-.173-.65.815.03c.418 0 .632-.16.632-.48v-2.721H4.445v3.851h-.703v-4.481h7.973v3.501zm-1.978-.23H5.73v-2h4.007v2zm-.653-1.46H6.393v.92h2.691v-.92zm6.502-.941a31.242 31.242 0 0 1-1.366 3.491l-.673-.29a28.24 28.24 0 0 0 1.397-3.451l.642.25zm6.056 2.731c0 .54-.275.82-.816.82h-.978l-.184-.64.948.03c.204 0 .316-.12.316-.36v-.59h-3.436v1.62h-.693v-4.771h4.843v3.891zm-.714-3.301h-3.436v.74h3.436v-.74zm0 1.301h-3.436v.71h3.436v-.71z"/>
</svg>
