<svg xmlns="http://www.w3.org/2000/svg" width="26" height="32">
  <defs>
    <linearGradient id="a" x1="0%" x2="81.915%" y1="57.358%" y2="0%">
      <stop offset="0%" stop-color="#FEE587"/>
      <stop offset="25%" stop-color="#FBDC62"/>
      <stop offset="56%" stop-color="#F0C017"/>
      <stop offset="100%" stop-color="#F3C940"/>
    </linearGradient>
  </defs>
  <path fill-rule="evenodd" fill="url(#a)" d="M26 6v24a2 2 0 0 1-2 2H2a2 2 0 0 1-2-2V2a2 2 0 0 1 2-2h18l6 6z"/>
  <path fill-rule="evenodd" opacity=".149" fill="#FFF" d="M18.938 32v-2H24v2h-5.062zm0-10H24v5h-5.062v-5zm0-9H24v5h-5.062v-5zm0-8H24v5h-5.062V5zm0-5H24v2h-5.062V0zM2 30h5.062v2H2v-2zm0-8h5.062v5H2v-5zm0-9h5.062v5H2v-5zm0-8h5.062v5H2V5zm0-5h5.062v2H2V0z"/>
  <path fill-rule="evenodd" fill="#F7E686" d="M26 6h-4a2 2 0 0 1-2-2V0l6 6z"/>
  <path fill-rule="evenodd" fill="#743001" d="M14.394 12.997v-.7h9.053v.7h-9.053zm-3.392 5.432l.591-.36c.704.82 1.244 1.54 1.621 2.15l-.611.41c-.388-.66-.928-1.4-1.601-2.2zm-1.438-4.642h2.835v3.822h-2.366v2.48c0 .52-.275.79-.825.79h-1.03l-.153-.71c.326.03.632.05.928.05.224 0 .346-.1.346-.3v-2.31H6.72v-3.822h2.131c.102-.3.173-.61.224-.93H5.588v3.201c-.041 2.011-.367 3.621-.989 4.831l-.55-.48c.509-1.05.775-2.5.795-4.351v-3.911h8.299v.71H9.809c-.061.32-.143.63-.245.93zm-2.13 3.171h4.251v-.96H7.434v.96zm0-2.51v.93h4.251v-.93H7.434zm.662 3.931a9.51 9.51 0 0 1-1.631 2.21l-.612-.42c.622-.58 1.152-1.28 1.601-2.09l.642.3zm13.261-4.362v4.602h-4.842v-4.602h4.842zm-2.1 3.942h1.397v-1.351h-1.397v1.351zm0-1.951h1.397v-1.33h-1.397v1.33zm-2.029 1.951h1.387v-1.351h-1.387v1.351zm0-1.951h1.387v-1.33h-1.387v1.33zm-1.702 3.661h6.81v-4.921h.714v6.141h-.714v-.54h-6.81v.54h-.714v-6.111h.714v4.891z"/>
</svg>
