<svg xmlns="http://www.w3.org/2000/svg" width="26" height="32">
  <defs>
    <linearGradient id="a" x1="0%" x2="0%" y1="100%" y2="0%">
      <stop offset="0%" stop-color="#3BCEE0"/>
      <stop offset="100%" stop-color="#1EBAD2"/>
    </linearGradient>
  </defs>
  <path fill-rule="evenodd" fill="url(#a)" d="M26 6v24a2 2 0 0 1-2 2H2a2 2 0 0 1-2-2V2a2 2 0 0 1 2-2h18l6 6z"/>
  <path fill-rule="evenodd" opacity=".102" fill="#FFF" d="M18.937 32v-2H24v2h-5.063zm0-10H24v5h-5.063v-5zm0-9H24v5h-5.063v-5zm0-8H24v5h-5.063V5zm0-5H24v2h-5.063V0zM2 30h5.063v2H2v-2zm0-8h5.063v5H2v-5zm0-9h5.063v5H2v-5zm0-8h5.063v5H2V5zm0-5h5.063v2H2V0z"/>
  <path fill-rule="evenodd" fill="#A4DDE6" d="M26 6h-4a2 2 0 0 1-2-2V0l6 6z"/>
  <path fill-rule="evenodd" fill="#FFF" d="M22.549 14.888v.6h-6.678v-.6h2.967v-.68h-2.222v-.581h2.222v-.66h-2.64v-.6h2.64v-.63h.714v.63h2.712v.6h-2.712v.66h2.324v.581h-2.324v.68h2.997zm-8.819-2.521l.52-.5c.612.43 1.122.86 1.54 1.29l-.52.51c-.377-.41-.887-.84-1.54-1.3zm1.846 3.371l-.53.51c-.388-.46-.938-.96-1.642-1.48l.53-.5c.653.49 1.193.98 1.642 1.47zM9.89 19.909c0 .59-.306.89-.897.89h-1.04l-.143-.67c.326.02.632.04.928.04.275 0 .418-.15.418-.44v-4.271H6.668v-.69h5.72v.69H9.89v4.451zm-2.682-7.572h4.649v.68H7.208v-.68zm-1.906 2.781c.499.5.999 1.06 1.499 1.67l-.418.61c-.418-.63-.775-1.13-1.081-1.51v5.011h-.724v-4.981a11.7 11.7 0 0 1-1.254 2.581l-.316-.78c.734-.981 1.254-2.111 1.57-3.371H3.334v-.691h1.244v-1.89h.724v1.89h1.182v.691H5.302v.77zm2.957 1.32c-.327 1.401-.806 2.601-1.418 3.621l-.632-.4a10.926 10.926 0 0 0 1.377-3.371l.673.15zm4.118 3.421l-.662.29a33.99 33.99 0 0 0-1.101-3.701l.662-.21a29.44 29.44 0 0 1 1.101 3.621zm3.209-2.561a31.242 31.242 0 0 1-1.366 3.491l-.673-.29a28.24 28.24 0 0 0 1.397-3.451l.642.25zm6.056 2.731c0 .54-.275.82-.816.82h-.978l-.184-.64.948.03c.204 0 .316-.12.316-.36v-.59h-3.436v1.62h-.693v-4.771h4.843v3.891zm-.714-3.301h-3.436v.74h3.436v-.74zm0 1.301h-3.436v.71h3.436v-.71z"/>
</svg>
