<svg xmlns="http://www.w3.org/2000/svg" width="26" height="32">
  <defs>
    <linearGradient id="a" x1="0%" x2="0%" y1="100%" y2="0%">
      <stop offset="0%" stop-color="#7CBD37"/>
      <stop offset="100%" stop-color="#57A31B"/>
    </linearGradient>
  </defs>
  <path fill-rule="evenodd" fill="url(#a)" d="M26 6v24a2 2 0 0 1-2 2H2a2 2 0 0 1-2-2V2a2 2 0 0 1 2-2h18l6 6z"/>
  <path fill-rule="evenodd" fill="#B8D996" d="M26 6h-4a2 2 0 0 1-2-2V0l6 6z"/>
  <path fill-rule="evenodd" opacity=".6" fill="#FFF" d="M19.009 24.996a1.003 1.003 0 0 1-1.006-.998v-3.989c0-.55.451-.997 1.006-.997.555 0 1.006.446 1.006.997v3.989c0 .551-.451.998-1.006.998zM8.016 18.008c0-1.484.727-2.795 1.841-3.611l-.578-.996a.28.28 0 1 1 .487-.28l.563.972a4.486 4.486 0 0 1 4.362-.001l.562-.971a.28.28 0 0 1 .384-.103.279.279 0 0 1 .104.383l-.577.996a4.468 4.468 0 0 1 1.841 3.611H8.016zm2.495-2.018a.505.505 0 0 0-.499.512c0 .283.223.512.499.512a.505.505 0 0 0 .499-.512.505.505 0 0 0-.499-.512zm3.996 0a.505.505 0 0 0-.499.512c0 .283.223.512.499.512s.5-.229.5-.512a.506.506 0 0 0-.5-.512zm2.497 9.014h-8.99v-5.99h8.99v5.99zm-11.009-.008a.995.995 0 0 1-.99-.998v-3.989c0-.55.444-.997.99-.997.547 0 .99.446.99.997v3.989a.994.994 0 0 1-.99.998z"/>
  <path fill-rule="evenodd" fill="#FFF" d="M17.874 8.746h-.892l-1.431-2.358-.918 1.071v1.287h-.811V1.58h.811v4.862h.018l2.097-2.584h.91L16.019 5.82l1.855 2.926zm-7.48.117c-.441 0-.909-.207-1.35-.567l.018.855v1.657h-.819v-6.95h.675l.072.558h.027c.441-.36.99-.684 1.557-.684 1.261 0 1.945.99 1.945 2.494 0 1.674-.999 2.637-2.125 2.637zm-.018-4.438c-.414 0-.837.234-1.314.675v2.566c.441.378.873.513 1.197.513.81 0 1.405-.729 1.405-1.944 0-1.081-.361-1.81-1.288-1.81zM5.939 8.161h-.027c-.468.387-1.017.702-1.62.702-.819 0-1.432-.504-1.432-1.386 0-1.062.928-1.594 3.007-1.828 0-.63-.207-1.233-1.008-1.233-.567 0-1.08.261-1.467.522l-.324-.567c.45-.288 1.143-.639 1.926-.639 1.188 0 1.693.801 1.693 2.007v3.007h-.676l-.072-.585zM5.867 6.19c-1.647.198-2.205.603-2.205 1.233 0 .558.378.783.864.783.477 0 .864-.225 1.341-.648V6.19z"/>
</svg>
