<svg xmlns="http://www.w3.org/2000/svg" width="26" height="32">
  <defs>
    <linearGradient id="a" x1="0%" x2="0%" y1="100%" y2="0%">
      <stop offset="0%" stop-color="#8E9BBD"/>
      <stop offset="100%" stop-color="#6B79A3"/>
    </linearGradient>
  </defs>
  <path fill-rule="evenodd" fill="url(#a)" d="M26 6v24a2 2 0 0 1-2 2H2a2 2 0 0 1-2-2V2a2 2 0 0 1 2-2h18l6 6z"/>
  <path fill-rule="evenodd" fill="#C4CBDC" d="M26 6h-4a2 2 0 0 1-2-2V0l6 6z"/>
  <path fill-rule="evenodd" opacity=".6" fill="#FFF" d="M20 26H6a1 1 0 0 1-1-1V15a1 1 0 0 1 1-1h14a1 1 0 0 1 1 1v10a1 1 0 0 1-1 1zm0-10H6v9h14v-9zM8.5 18h3a.5.5 0 0 1 0 1h-3a.5.5 0 0 1 0-1z"/>
  <path fill-rule="evenodd" fill="#FFF" d="M14.229 7.663c0 .603.191.945.764.945.173 0 .401-.063.564-.126l.164.611c-.282.09-.609.18-.91.18-1.055 0-1.41-.647-1.41-1.628V4.937h-.737v-.62l.773-.045.1-1.368h.692v1.368h1.337v.665h-1.337v2.726zm-3.305.909h-.028c-.473.386-1.028.701-1.638.701-.828 0-1.446-.503-1.446-1.385 0-1.062.937-1.592 3.039-1.826 0-.63-.21-1.233-1.019-1.233-.574 0-1.092.261-1.484.522l-.327-.567c.455-.287 1.155-.638 1.947-.638 1.201 0 1.711.8 1.711 2.006v3.004h-.683l-.072-.584zm-.073-1.97c-1.665.197-2.23.602-2.23 1.232 0 .558.383.783.874.783.482 0 .873-.225 1.356-.648V6.602zM4.67 9.273c-.455 0-.974-.225-1.411-.62h-.027l-.073.503h-.664v-7.16h.828v1.961l-.027.881c.446-.386 1.001-.692 1.547-.692 1.283 0 1.974.989 1.974 2.483 0 1.682-1.01 2.644-2.147 2.644zm-.018-4.435c-.419 0-.856.234-1.329.675v2.564c.437.378.883.513 1.21.513.819 0 1.42-.729 1.42-1.943 0-1.08-.364-1.809-1.301-1.809z"/>
</svg>
