<svg xmlns="http://www.w3.org/2000/svg" width="26" height="32">
  <defs>
    <linearGradient id="a" x1="0%" x2="0%" y1="100%" y2="0%">
      <stop offset="0%" stop-color="#8E9BBD"/>
      <stop offset="100%" stop-color="#6B79A3"/>
    </linearGradient>
  </defs>
  <path fill-rule="evenodd" fill="url(#a)" d="M26 6v24a2 2 0 0 1-2 2H2a2 2 0 0 1-2-2V2a2 2 0 0 1 2-2h18l6 6z"/>
  <path fill-rule="evenodd" fill="#C4CBDC" d="M26 6h-4a2 2 0 0 1-2-2V0l6 6z"/>
  <path fill-rule="evenodd" opacity=".6" fill="#FFF" d="M20 26H6a1 1 0 0 1-1-1V15a1 1 0 0 1 1-1h14a1 1 0 0 1 1 1v10a1 1 0 0 1-1 1zm0-10H6v9h14v-9zM8.5 18h3a.5.5 0 0 1 0 1h-3a.5.5 0 0 1 0-1z"/>
  <path fill-rule="evenodd" fill="#FFF" d="M15.857 6.907h-3.33c.054 1.044.7 1.71 1.637 1.71.483 0 .874-.144 1.238-.387l.3.54c-.437.278-.964.503-1.638.503-1.31 0-2.365-.944-2.365-2.554 0-1.584 1.082-2.573 2.229-2.573 1.256 0 1.965.899 1.965 2.294 0 .18-.018.35-.036.467zm-1.92-2.105c-.701 0-1.319.558-1.419 1.521h2.647c0-.99-.455-1.521-1.228-1.521zm-3.751 4.354l-.728-1.142a14.042 14.042 0 0 0-.528-.873h-.045c-.173.279-.337.576-.51.873l-.664 1.142h-.873l1.628-2.545-1.501-2.339h.892l.664 1.079c.155.27.328.54.491.81h.037c.154-.27.3-.54.446-.81l.609-1.079h.865l-1.502 2.42 1.629 2.464h-.91zM2.95 6.907c.055 1.044.701 1.71 1.638 1.71.482 0 .873-.144 1.237-.387l.301.54c-.437.278-.965.503-1.638.503-1.31 0-2.366-.944-2.366-2.554 0-1.584 1.083-2.573 2.229-2.573 1.256 0 1.966.899 1.966 2.294 0 .18-.018.35-.037.467H2.95zm1.41-2.105c-.7 0-1.319.558-1.419 1.521h2.648c0-.99-.455-1.521-1.229-1.521z"/>
</svg>
