<svg xmlns="http://www.w3.org/2000/svg" width="26" height="32">
  <defs>
    <linearGradient id="a" x1="0%" x2="0%" y1="100%" y2="0%">
      <stop offset="1%" stop-color="#358DE6"/>
      <stop offset="100%" stop-color="#1969DA"/>
    </linearGradient>
  </defs>
  <path fill-rule="evenodd" fill="url(#a)" d="M26 6v24a2 2 0 0 1-2 2H2a2 2 0 0 1-2-2V2a2 2 0 0 1 2-2h18l6 6z"/>
  <path fill-rule="evenodd" fill="#9DC3F1" d="M26 6h-4a2 2 0 0 1-2-2V0l6 6z"/>
  <path fill-rule="evenodd" opacity=".6" fill="#FFF" d="M18.161 21.753L17 19.426h3v1.948l-1.839.379zm-1.304.814l-1.058-1.676 1.169-.645.913 1.725-1.024.596zm-3.662-6.055l.006-.003-.07-.119a65.328 65.328 0 0 1-.551-1.079l.002-.001-.007-.009a60.19 60.19 0 0 1-.581-1.193c-.981-2.073-.539-2.114-.539-2.114s.372-.265 1.541 1.452c1.509 2.216 3.851 6.567 3.851 6.567l-1.184.652s-.979-1.313-2.468-4.153zm-1.738-1.201l-.787-.384c.029-.038.054-.075.096-.116l.602.391.089.109zm.612.938L11.13 17.7l-1.621-1.016.956-1.434 1.604.999zM7.29 23.744l-1.571-1.016 3.653-5.834 1.656 1.015-3.738 5.835zM4 21.374v-1.948h3l-1 1.948H4zm3.085 2.724L4.9 25.807l.632-2.724 1.553 1.015zm4.884-8.162l-1.402-.863s.029-.048.074-.11l1.136.739.192.234zM14 19.426l1 1.948h-5l1-1.948h3zm5.862 5.485c.3.524-.368.944-.368.944s-.695.386-1.086-.093c-.711-.871-1.338-2.921-1.338-2.921l.965-.532s.798.804 1.827 2.602z"/>
  <path fill-rule="evenodd" fill="#FFF" d="M14.518 9.156l-.073-.584h-.027c-.473.386-1.028.701-1.638.701-.828 0-1.447-.503-1.447-1.385 0-1.062.937-1.592 3.039-1.826 0-.63-.209-1.233-1.019-1.233-.573 0-1.092.261-1.483.522l-.328-.567c.455-.287 1.156-.638 1.948-.638 1.201 0 1.71.8 1.71 2.006v3.004h-.682zm-.146-2.554c-1.665.197-2.229.602-2.229 1.232 0 .558.382.783.874.783.482 0 .873-.225 1.355-.648V6.602zM8.173 9.273c-.446 0-.919-.207-1.365-.566l.019.854v1.655h-.829V4.272h.683l.073.557h.027c.446-.359 1.001-.683 1.574-.683 1.274 0 1.966.989 1.966 2.492 0 1.673-1.01 2.635-2.148 2.635zm-.018-4.435c-.419 0-.846.234-1.328.675v2.564c.445.378.882.513 1.21.513.819 0 1.419-.729 1.419-1.943 0-1.08-.364-1.809-1.301-1.809zM3.914 3.264c-.328 0-.574-.225-.574-.531 0-.332.246-.53.574-.53.327 0 .573.198.573.53 0 .306-.246.531-.573.531zm.409 5.892h-.828V4.272h.828v4.884z"/>
</svg>
