<svg xmlns="http://www.w3.org/2000/svg" width="26" height="32">
  <defs>
    <linearGradient id="a" x1="0%" x2="0%" y1="100%" y2="0%">
      <stop offset="0%" stop-color="#31C4EF"/>
      <stop offset="100%" stop-color="#18ACE7"/>
    </linearGradient>
  </defs>
  <path fill-rule="evenodd" fill="url(#a)" d="M26 6v24a2 2 0 0 1-2 2H2a2 2 0 0 1-2-2V2a2 2 0 0 1 2-2h18l6 6z"/>
  <path fill-rule="evenodd" fill="#A6DEF1" d="M26 6h-4a2 2 0 0 1-2-2V0l6 6z"/>
  <path fill-rule="evenodd" opacity=".6" fill="#FFF" d="M20.01 19.943l-7.003.059v-5.864l7.003-1.144v6.949zM6.003 20.996v5.16l5.981.85v-5.98l-5.981-.03zm7.007-.01v5.888l7 1.13v-7.018h-7zm-7.007-6.151v5.16l5.985-.03v-5.95l-5.985.82z"/>
  <path fill-rule="evenodd" fill="#FFF" d="M15.783 3.411c-.324 0-.567-.225-.567-.531 0-.333.243-.531.567-.531.324 0 .567.198.567.531 0 .306-.243.531-.567.531zM12.724 6.49c.711.27 1.494.558 1.494 1.485 0 .792-.63 1.45-1.782 1.45-.694 0-1.36-.288-1.828-.676l.405-.54c.423.342.864.577 1.45.577.648 0 .963-.343.963-.766 0-.495-.576-.72-1.116-.927-.685-.252-1.459-.585-1.459-1.413 0-.775.621-1.387 1.684-1.387.603 0 1.134.252 1.521.549l-.396.531c-.342-.252-.684-.432-1.125-.432-.613 0-.892.324-.892.703 0 .468.532.639 1.081.846zm-3.977-.171c0-.919-.288-1.306-.909-1.306-.378 0-.774.243-1.234.748v3.547h-.819V6.319c0-.919-.288-1.306-.909-1.306-.369 0-.783.243-1.233.748v3.547h-.82V4.419h.675l.073.711h.027c.423-.468.936-.837 1.521-.837.747 0 1.152.36 1.35.936.505-.549 1.018-.936 1.612-.936 1.008 0 1.485.666 1.485 1.918v3.097h-.819V6.319zm7.441 2.989h-.819V4.419h.819v4.889z"/>
</svg>
