<svg xmlns="http://www.w3.org/2000/svg" width="32" height="32" viewBox="0 0 32 32">
  <g fill="none" fill-rule="evenodd">
    <path fill="#43BA73" d="M0.89984,22.04608 L30.9159314,22.04608 C31.4128993,22.04608 31.8157714,22.4489521 31.8157714,22.94592 L31.8157714,29.2448 C31.8157714,30.7357037 30.6071552,31.94432 29.1162514,31.94432 L2.69952,31.94432 C1.20861627,31.94432 1.82583048e-16,30.7357037 0,29.2448 L0,22.94592 C5.01612865e-17,22.4489521 0.402872091,22.04608 0.89984,22.04608 Z"/>
    <path fill="#4AB0F7" d="M2.69952,0 L29.1162514,0 C30.6071552,-2.92225161e-15 31.8157714,1.20861627 31.8157714,2.69952 L31.8157714,8.9984 C31.8157714,9.49536791 31.4128993,9.89824 30.9159314,9.89824 L0.89984,9.89824 C0.402872091,9.89824 1.71883318e-16,9.49536791 0,8.9984 L0,2.69952 C-1.82583048e-16,1.20861627 1.20861627,2.73874572e-16 2.69952,0 Z"/>
    <rect width="31.816" height="9.898" y="11.248" fill="#F5582E" rx=".9"/>
    <rect width="7.272" height="31.944" x="12.272" fill="#F9C93A"/>
    <path fill="#FFF" fill-rule="nonzero" d="M10.4445714,11.02304 L21.3712,11.02304 C21.8681679,11.02304 22.27104,11.4259121 22.27104,11.92288 L22.27104,20.02144 C22.27104,20.5184079 21.8681679,20.92128 21.3712,20.92128 L10.4445714,20.92128 C9.94760352,20.92128 9.54473143,20.5184079 9.54473143,20.02144 L9.54473143,11.92288 C9.54473143,11.4259121 9.94760352,11.02304 10.4445714,11.02304 Z M12.2442514,18.22176 L19.57152,18.22176 L19.57152,13.72256 L12.2442514,13.72256 L12.2442514,18.22176 Z"/>
  </g>
</svg>
