<svg xmlns="http://www.w3.org/2000/svg" width="32" height="30">
  <path fill-rule="evenodd" fill="#FDC94A" d="M28 30H4a4 4 0 0 1-4-4V7l.002-.018v-4.83C.002.93 1.225 0 2.734 0h8.902c.755 0 1.558.459 1.801 1.042L14.253 3H28a4 4 0 0 1 4 4v19a4 4 0 0 1-4 4z"/>
  <path fill-rule="evenodd" fill="#E4A917" d="M22 25H11a2 2 0 0 1-2-2v-4h1v4a1 1 0 0 0 1 1h11a1 1 0 0 0 1-1V11a1 1 0 0 0-1-1H11a1 1 0 0 0-1 1v3H9v-3a2 2 0 0 1 2-2h11a2 2 0 0 1 2 2v12a2 2 0 0 1-2 2zm-4-8H6v-1h12v1z"/>
  <path fill-rule="evenodd" fill="#E4A917" d="M14.5 21.011l-.644-.644 3.866-3.867-3.866-3.867.644-.644 4.511 4.511-4.511 4.511z"/>
</svg>
