<svg xmlns="http://www.w3.org/2000/svg" width="32" height="30">
  <path fill-rule="evenodd" fill="#FDC94A" d="M28 30H4a4 4 0 0 1-4-4V7l.002-.018v-4.83C.002.93 1.225 0 2.734 0h8.902c.755 0 1.558.459 1.801 1.042L14.253 3H28a4 4 0 0 1 4 4v19a4 4 0 0 1-4 4z"/>
  <path stroke="#E4A917" fill="none" d="M20.409 22.945v.057h-7.497v-.017C10.724 22.814 9 20.949 9 18.668c0-1.93 1.235-3.564 2.94-4.125.065-2.52 2.078-4.543 4.558-4.543 2.479 0 4.492 2.023 4.557 4.543 1.706.561 2.94 2.195 2.94 4.125 0 2.166-1.555 3.956-3.586 4.277z"/>
  <path fill-rule="evenodd" fill="#E4A917" d="M18.91 17.169l-1.263.957.486 1.557a.254.254 0 0 1 .012.078.24.24 0 0 1-.235.246.232.232 0 0 1-.138-.047l-1.273-.964-1.272.964a.232.232 0 0 1-.138.047.24.24 0 0 1-.235-.246c0-.027.004-.053.011-.078l.487-1.557-1.263-.957a.247.247 0 0 1-.097-.199.24.24 0 0 1 .235-.246h1.563l.485-1.55a.236.236 0 0 1 .224-.174c.106 0 .196.073.225.174l.484 1.55h1.564c.13 0 .235.11.235.246a.247.247 0 0 1-.097.199z"/>
</svg>
