<svg xmlns="http://www.w3.org/2000/svg" width="32" height="30">
  <path fill-rule="evenodd" fill="#FDC94A" d="M28 30H4a4 4 0 0 1-4-4V7l.002-.018v-4.83C.002.93 1.225 0 2.734 0h8.902c.755 0 1.558.459 1.801 1.042L14.253 3H28a4 4 0 0 1 4 4v19a4 4 0 0 1-4 4z"/>
  <path stroke="#E4A917" fill="none" d="M23.154 23.625l-.002-.026.002-.004v.03zm-.645.37H7.645c-.164 0-.645-.166-.645-.37v-.371c0-1.176.698-2.306 1.613-2.593l4.24-1.35c-.93-.871-1.622-2.163-1.622-3.431l-.002-2.744c-.072-2.329 1.649-4.132 3.848-4.132s3.92 1.803 3.848 4.132l-.002 2.744c0 1.27-.705 2.577-1.648 3.452l3.943 1.329c1.035.332 1.922 1.608 1.934 2.938-.007.203-.48.396-.643.396z"/>
  <path stroke="#E4A917" fill="none" d="M15.077 9.004c2.199 0 3.92 1.803 3.848 4.132l-.002 2.744c0 2.165-2.027 4.476-3.846 4.476s-3.846-2.294-3.846-4.476l-.002-2.744c-.072-2.329 1.649-4.132 3.848-4.132zM26.231 21.705c0-.013-.003-.027-.004-.04.001-.004.004-.007.004-.01v.05zm-6.719-11.468c.125-.012.25-.021.373-.021 1.426 0 3.173.793 3.173 3.694 0 2.384.488 3.693.488 3.693s-.925.428-2.19.654c.015.218.056.479.155.668l3.255.638c.777.238 1.443 1.149 1.461 2.102-.019.145-.479.308-.601.308h-1.725"/>
</svg>
