<svg xmlns="http://www.w3.org/2000/svg" width="32" height="30">
  <path fill-rule="evenodd" fill="#FDC94A" d="M28 30H4a4 4 0 0 1-4-4V7l.002-.018v-4.83C.002.93 1.225 0 2.734 0h8.902c.755 0 1.558.459 1.801 1.042L14.253 3H28a4 4 0 0 1 4 4v19a4 4 0 0 1-4 4z"/>
  <path fill-rule="evenodd" fill="#E4A917" d="M21 15a2.995 2.995 0 0 1-2.513-1.369l-3.67 1.802c.109.339.183.692.183 1.067 0 .374-.074.728-.183 1.066l3.668 1.807A2.992 2.992 0 0 1 21 18a3 3 0 1 1-2.929 2.364l-3.727-1.836A3.49 3.49 0 0 1 11.5 20a3.5 3.5 0 1 1 0-7c1.174 0 2.208.583 2.842 1.471l3.73-1.832A2.986 2.986 0 0 1 18 12a3 3 0 1 1 3 3zm0 8a2 2 0 1 0 .001-3.999A2 2 0 0 0 21 23zm-9.5-9a2.5 2.5 0 1 0 0 5 2.5 2.5 0 0 0 0-5zm9.5-4a2 2 0 1 0-.001 3.999A2 2 0 0 0 21 10z"/>
</svg>
