<svg xmlns="http://www.w3.org/2000/svg" width="32" height="30">
  <path fill-rule="evenodd" fill="#FDC94A" d="M28 30H4a4 4 0 0 1-4-4V7l.002-.018v-4.83C.002.93 1.225 0 2.734 0h8.902c.755 0 1.558.459 1.801 1.042L14.253 3H28a4 4 0 0 1 4 4v19a4 4 0 0 1-4 4z"/>
  <path fill-rule="evenodd" fill="#E4A917" d="M23 17c0 2.572-1.402 4.795-3.469 6.012V21.83C21.021 20.738 22 18.989 22 17c0-2.97-2.166-5.412-5-5.89V12h-1v-2h1v.109c3.387.489 6 3.368 6 6.891zm-5-4h-1v-1h1v1zm0-4v1h-1V9h1zm-1.514 4.993c.279 0 .505.15.505.335v3.344c0 .013-.009.024-.011.036l.006.301-2.608.006c-.197.001-.361-.224-.367-.501-.006-.278.149-.503.346-.503l1.623-.005v-2.678c0-.185.226-.335.506-.335zM14 21h1v1h-1v-1zm2 1v1c.021 0 .041-.006.063-.006v1c-.022 0-.042.006-.063.006h-1v-.101C11.612 23.41 9 20.523 9 17c0-2.61 1.445-4.859 3.563-6.063v.876h.473C11.231 12.847 10 14.77 10 17c0 2.971 2.165 5.421 5 5.899V22h1zm-2 3v-1h1v1h-1z"/>
</svg>
