<svg xmlns="http://www.w3.org/2000/svg" width="32" height="30">
  <path fill-rule="evenodd" fill="#FDC94A" d="M28 30H4a4 4 0 0 1-4-4V7l.002-.018v-4.83C.002.93 1.225 0 2.734 0h8.902c.755 0 1.558.459 1.801 1.042L14.253 3H28a4 4 0 0 1 4 4v19a4 4 0 0 1-4 4z"/>
  <path fill-rule="evenodd" stroke="#E4A917" fill="#FDC94A" d="M23 23H10a1 1 0 0 1-1-1v-8a1 1 0 0 1 1-1h2.793l.509-1.317c.151-.392.701-.683 1.241-.683h3.914c.54 0 1.09.291 1.241.683L20.207 13H23a1 1 0 0 1 1 1v8a1 1 0 0 1-1 1z"/>
  <path fill-rule="evenodd" stroke="#E4A917" fill="#FDC94A" d="M16.664 13.93c1.89 0 3.422 1.521 3.422 3.398 0 1.877-1.532 3.399-3.422 3.399-1.89 0-3.422-1.522-3.422-3.399s1.532-3.398 3.422-3.398z"/>
  <path fill-rule="evenodd" fill="#E4A917" d="M18.457 17.961h-1.641c-.027 0-.044-.024-.07-.029-.048-.007-.081-.029-.123-.051-.027-.019-.054-.029-.075-.054-.026-.024-.064-.029-.083-.06l-.598-1.337a.354.354 0 0 1 .142-.5.404.404 0 0 1 .532.134l.523 1.17h1.393a.363.363 0 0 1 0 .727z"/>
</svg>
