<svg xmlns="http://www.w3.org/2000/svg" width="32" height="30">
  <path fill-rule="evenodd" fill="#81D8FC" d="M28 30H4a4 4 0 0 1-4-4V7l.002-.018v-4.83C.002.93 1.225 0 2.734 0h8.902c.755 0 1.558.459 1.801 1.042L14.253 3H28a4 4 0 0 1 4 4v19a4 4 0 0 1-4 4z"/>
  <path fill-rule="evenodd" opacity=".502" fill="#2484AD" d="M22.505 23.324c-.009.004-1.911.675-6.978.675-4.516 0-6.746-.567-6.968-.671-.39-.195-.521-.812-.564-1.296-.001-1.335 1.083-2.915 2.229-3.288l2.811-.62c-.976-.96-1.593-2.393-1.593-3.745l-.002-1.308a4.056 4.056 0 0 1 1.103-2.947c.77-.813 1.831-1.261 2.985-1.261s2.214.448 2.985 1.261c.747.787 1.138 1.838 1.102 2.96l-.002 1.296c0 1.351-.617 2.784-1.593 3.744l2.81.62c1.146.373 2.23 1.952 2.23 3.25-.044.522-.175 1.139-.555 1.33zm-3.737-10.255c.029-.899-.278-1.727-.864-2.344-.61-.643-1.454-.997-2.376-.997-.923 0-1.767.354-2.376.997-.586.617-.893 1.445-.865 2.331l.002 1.323c0 1.849 1.415 3.998 3.238 3.998 1.824 0 3.239-2.149 3.239-3.998l.002-1.31zm1.818 6.485l-3.392-.78a3.305 3.305 0 0 1-1.667.467 3.301 3.301 0 0 1-1.666-.467l-3.396.782c-.798.259-1.648 1.513-1.648 2.438.019.191.078.455.129.569.434.117 2.435.587 6.581.587 4.15 0 6.149-.47 6.581-.586.052-.116.111-.384.131-.609-.002-.884-.85-2.137-1.653-2.401z"/>
  <path fill-rule="evenodd" opacity=".502" fill="#2484AD" d="M25.386 22.149c-.533.5-1.216.536-1.397.536l-.038-.001.032-.855-.016.428.013-.428c.001.002.48.005.802-.301.222-.212.335-.54.335-.973 0-.937-.548-1.633-1.504-1.909l-3.086-.889a.432.432 0 0 1-.306-.325.42.42 0 0 1 .151-.415c.823-.662 1.399-1.843 1.399-2.873l.001-1.146a2.688 2.688 0 0 0-.777-2.015c-.386-.389-.885-.439-1.431-.435.025-.298.001-.581-.111-.84.834.012 1.594.097 2.174.68a3.512 3.512 0 0 1 1.023 2.625l-.001 1.131c0 1.04-.45 2.167-1.166 2.996l2.38.686c1.315.379 2.133 1.425 2.133 2.729 0 .678-.206 1.214-.61 1.594z"/>
</svg>
