<svg xmlns="http://www.w3.org/2000/svg" width="32" height="30">
  <path fill-rule="evenodd" fill="#FDC94A" d="M28 30H4a4 4 0 0 1-4-4V7l.002-.018v-4.83C.002.93 1.225 0 2.734 0h8.902c.755 0 1.558.459 1.801 1.042L14.253 3H28a4 4 0 0 1 4 4v19a4 4 0 0 1-4 4z"/>
  <path fill-rule="evenodd" fill="#E4A917" d="M22.487 23.33c-.008.004-1.776.669-6.488.669-4.199 0-6.273-.561-6.48-.665-.362-.193-.483-.804-.523-1.284-.002-1.324 1.006-2.889 2.072-3.259l2.738-.63c-1.107-.913-1.814-2.429-1.814-3.846l-.002-1.261a3.878 3.878 0 0 1 1.081-2.841c.757-.783 1.797-1.214 2.929-1.214s2.171.431 2.928 1.214a3.882 3.882 0 0 1 1.081 2.854l-.002 1.249c0 1.416-.707 2.932-1.815 3.845l2.738.63c1.066.369 2.074 1.934 2.074 3.221-.042.518-.163 1.129-.517 1.318zm-3.311-9.015l.002-1.262c.029-.867-.272-1.665-.848-2.26-.598-.62-1.426-.961-2.33-.961-.905 0-1.733.341-2.331.961a3.055 3.055 0 0 0-.848 2.247l.002 1.275c0 1.782 1.388 3.854 3.176 3.854 1.79 0 3.177-2.072 3.177-3.854zm1.527 5.279l-3.519-.847c-.374.149-.765.255-1.185.255-.42 0-.811-.106-1.185-.255l-3.522.848c-.742.257-1.532 1.501-1.532 2.417.017.19.072.451.119.564.404.116 2.265.582 6.12.582 3.859 0 5.718-.466 6.12-.581a2.52 2.52 0 0 0 .121-.603c-.002-.877-.79-2.118-1.537-2.38z"/>
</svg>
