<svg xmlns="http://www.w3.org/2000/svg" width="100" height="100" viewBox="0 0 100 100">
  <g fill="none" transform="translate(0 3)">
    <path fill="#FDC94A" d="M87.9507992,94.2329991 L12.5643999,94.2329991 C5.62527343,94.2329991 0,88.6077257 0,81.6685992 L0,21.9876998 L0.00628219994,21.93116 L0.00628219994,6.75964714 C0.00628219994,2.92122297 3.84784746,0 8.58776732,0 L36.5498393,0 C38.9213697,0 41.443673,1.44176489 42.2069603,3.27302617 L44.7700979,9.42329991 L87.9507992,9.42329991 C94.8899256,9.42329991 100.515199,15.0485733 100.515199,21.9876998 L100.515199,81.6685992 C100.515199,88.6077257 94.8899256,94.2329991 87.9507992,94.2329991 Z"/>
    <path fill="#E4A917" d="M43.9753996,53.3986995 C54.1941661,53.3986995 62.210959,61.1939387 62.7906676,71.1620502 L62.8219994,72.2452993 C62.8219994,73.9275116 61.379405,75.3008662 59.5663696,75.3825552 L59.3953449,75.3863993 L28.5554543,75.3863993 C26.6629653,75.3863993 25.1287998,73.9800808 25.1287998,72.2452993 C25.1287998,61.9745369 33.6291647,53.3986995 43.9753996,53.3986995 Z M59.6808994,58.1103495 C68.1965383,58.1103495 74.877199,64.2351803 75.3602892,72.0672681 L75.3863993,72.9183921 C75.3863993,74.2401306 74.1842372,75.3191948 72.6733744,75.3833788 L65.8497365,75.3869757 C65.8991968,75.1944363 65.9330934,74.9966705 65.9501957,74.7947662 L65.9630994,74.4889421 L65.9417038,73.485409 L65.9213234,73.0961935 C65.90414,72.8112724 65.8820552,72.5277323 65.8551467,72.2456524 L72.2233116,72.2452993 L72.172712,71.6642436 C71.5804868,66.4867154 67.5122773,62.3982283 62.0855465,61.456426 C61.3108266,60.2671835 60.4292062,59.1480696 59.4543316,58.1124486 L59.6808994,58.1103495 Z M43.9753996,56.5397995 C35.6177056,56.5397995 28.64575,63.3104502 28.2845928,71.5722593 L28.2698997,72.2421582 L28.3275299,72.2283788 L28.5554543,72.2452993 L59.4249862,72.2446387 L59.6271141,72.2251099 C59.6467965,72.2256857 59.6603259,72.2306062 59.6689761,72.2435171 L59.6815632,72.3098634 L59.6688489,71.6231721 L59.654866,71.3444168 C59.1664934,62.9468308 52.4402283,56.5397995 43.9753996,56.5397995 Z M62.0367244,40.8342996 C65.9399831,40.8342996 69.1041993,43.9985159 69.1041993,47.9017745 C69.1041993,51.8050332 65.9399831,54.9692495 62.0367244,54.9692495 C58.1334657,54.9692495 54.9692495,51.8050332 54.9692495,47.9017745 C54.9692495,43.9985159 58.1334657,40.8342996 62.0367244,40.8342996 Z M62.0367244,43.9753996 C59.8682475,43.9753996 58.1103495,45.7332977 58.1103495,47.9017745 C58.1103495,50.0702514 59.8682475,51.8281495 62.0367244,51.8281495 C64.2052013,51.8281495 65.9630994,50.0702514 65.9630994,47.9017745 C65.9630994,45.7332977 64.2052013,43.9753996 62.0367244,43.9753996 Z M43.9753996,31.4109997 C49.1797446,31.4109997 53.3986995,35.6299549 53.3986995,40.8342996 C53.3986995,46.0386443 49.1797446,50.2575995 43.9753996,50.2575995 C38.7710549,50.2575995 34.5520997,46.0386443 34.5520997,40.8342996 C34.5520997,35.6299549 38.7710549,31.4109997 43.9753996,31.4109997 Z M43.9753996,34.5520997 C40.5058364,34.5520997 37.6931996,37.3647364 37.6931996,40.8342996 C37.6931996,44.3038628 40.5058364,47.1164996 43.9753996,47.1164996 C47.4449628,47.1164996 50.2575995,44.3038628 50.2575995,40.8342996 C50.2575995,37.3647364 47.4449628,34.5520997 43.9753996,34.5520997 Z"/>
  </g>
</svg>
