<svg xmlns="http://www.w3.org/2000/svg" width="32" height="30">
  <path fill-rule="evenodd" fill="#FDC94A" d="M28 30H4a4 4 0 0 1-4-4V7l.002-.018v-4.83C.002.93 1.225 0 2.734 0h8.902c.755 0 1.558.459 1.801 1.043L14.253 3H28a4 4 0 0 1 4 4v19a4 4 0 0 1-4 4z"/>
  <path fill-rule="evenodd" fill="#E4A917" d="M21 25h-9a2 2 0 0 1-2-2v-6a2 2 0 0 1 2-2h9a2 2 0 0 1 2 2v6a2 2 0 0 1-2 2zm1-8a1 1 0 0 0-1-1h-9a1 1 0 0 0-1 1v6a1 1 0 0 0 1 1h9a1 1 0 0 0 1-1v-6z"/>
  <path fill-rule="evenodd" fill="#E4A917" d="M20 15.875V13h-.05a3.49 3.49 0 0 0-3.45-3 3.49 3.49 0 0 0-3.45 3H13v2.875h-1V13h.05c.252-2.247 2.136-4 4.45-4s4.198 1.753 4.45 4H21v2.875h-1zM17 21h-1v-3h1v3z"/>
</svg>
