<svg xmlns="http://www.w3.org/2000/svg" width="32" height="30">
  <path fill-rule="evenodd" fill="#FDC94A" d="M28 30H4a4 4 0 0 1-4-4V7l.002-.018v-4.83C.002.93 1.225 0 2.734 0h8.902c.755 0 1.558.459 1.801 1.042L14.253 3H28a4 4 0 0 1 4 4v19a4 4 0 0 1-4 4z"/>
  <path fill-rule="evenodd" fill="#E4A917" d="M7.334 12c1.051 3.17 4.528 5.5 8.666 5.5 4.138 0 7.615-2.33 8.666-5.5h1.044c-1.06 3.728-4.999 6.5-9.71 6.5-4.711 0-8.65-2.772-9.71-6.5h1.044z"/>
  <path fill-rule="evenodd" fill="#E4A917" d="M26.722 16.441c-.266.131-.605.053-.759-.174l-1.389-2.058c-.153-.228-.062-.518.204-.65.265-.131.605-.053.759.174l1.389 2.058c.153.228.062.518-.204.65zm-4.759 2.826l-1.389-2.058c-.153-.228-.062-.518.204-.65.265-.131.605-.053.759.174l1.389 2.058c.153.228.062.518-.204.65-.265.131-.605.053-.759-.174zM16 21a.5.5 0 0 1-.5-.5V18a.5.5 0 0 1 1 0v2.5a.5.5 0 0 1-.5.5zm-5.963-1.733c-.154.227-.494.305-.759.174-.266-.132-.357-.422-.204-.65l1.389-2.058c.154-.227.493-.305.759-.174.266.132.357.422.204.65l-1.389 2.058zm-4-3c-.154.227-.494.305-.759.174-.266-.132-.357-.422-.204-.65l1.389-2.058c.154-.227.494-.305.759-.174.266.132.357.422.204.65l-1.389 2.058z"/>
</svg>
