<svg xmlns="http://www.w3.org/2000/svg" width="32" height="30">
  <path fill-rule="evenodd" fill="#FDC94A" d="M28 30H4a4 4 0 0 1-4-4V7l.002-.018v-4.83C.002.93 1.225 0 2.734 0h8.902c.755 0 1.558.459 1.801 1.042L14.253 3H28a4 4 0 0 1 4 4v19a4 4 0 0 1-4 4z"/>
  <path fill-rule="evenodd" fill="#E4A917" d="M24 17.181V23a2 2 0 0 1-2 2H11a2 2 0 0 1-2-2V13a2 2 0 0 1 2-2h11a2 2 0 0 1 2 2v4.181zM11 24h11a1 1 0 0 0 1-1v-5.969c-.166-.013-.331-.031-.5-.031a6.496 6.496 0 0 0-6.047 4.129A4.464 4.464 0 0 0 13.5 20c-1.418 0-2.676.66-3.5 1.685V23a1 1 0 0 0 1 1zm12-11a1 1 0 0 0-1-1H11a1 1 0 0 0-1 1v7.314c.951-.805 2.155-1.314 3.5-1.314.932 0 1.796.253 2.565.662A7.489 7.489 0 0 1 22.5 16c.171 0 .332.039.5.05V13zm-10 3a1 1 0 1 1 0-2 1 1 0 0 1 0 2zm8.5-6h-10a.5.5 0 0 1 0-1h10a.5.5 0 0 1 0 1z"/>
</svg>
