<svg xmlns="http://www.w3.org/2000/svg" width="32" height="30">
  <path fill-rule="evenodd" fill="#FDC94A" d="M28 30H4a4 4 0 0 1-4-4V7l.002-.018v-4.83C.002.93 1.225 0 2.734 0h8.902c.755 0 1.558.459 1.801 1.042L14.253 3H28a4 4 0 0 1 4 4v19a4 4 0 0 1-4 4z"/>
  <path fill-rule="evenodd" fill="#E4A917" d="M16.857 17.136a.482.482 0 0 1 .003.678l-1.938 1.946c-.02.035-.015.077-.044.107a.46.46 0 0 1-.37.128.458.458 0 0 1-.37-.128c-.029-.03-.024-.072-.044-.107l-1.938-1.946a.48.48 0 0 1 .678-.68l1.184 1.189C14.113 15.922 16.075 14 18.5 14a4.5 4.5 0 0 1 0 9 4.471 4.471 0 0 1-1.473-.267 1.926 1.926 0 0 1-.967.267h-3.12c-.148 0-.291-.02-.43-.051-.169.021-.335.051-.51.051a4 4 0 0 1-4-4 3.992 3.992 0 0 1 3.01-3.862c-.001-.046-.01-.091-.01-.138a4 4 0 0 1 4-4 3.987 3.987 0 0 1 3.75 2.652c-.193-.023-.383-.057-.583-.057a5.14 5.14 0 0 0-.515.031A2.987 2.987 0 0 0 15 12a3 3 0 0 0-3 3c0 .36.074.7.19 1.019-.064-.004-.125-.019-.19-.019a3 3 0 1 0 0 6c.45 0 .867-.119 1.248-.297h3.788c.016 0 .029-.009.044-.009.435.193.913.306 1.42.306a3.5 3.5 0 1 0 0-7 3.49 3.49 0 0 0-3.48 3.301l1.162-1.167a.475.475 0 0 1 .675.002z"/>
</svg>
