<?xml version="1.0" ?><!DOCTYPE svg  PUBLIC '-//W3C//DTD SVG 1.1//EN'  'http://www.w3.org/Graphics/SVG/1.1/DTD/svg11.dtd'><svg style="enable-background:new 0 0 512 512;" version="1.1" viewBox="0 0 512 512" xml:space="preserve" xmlns="http://www.w3.org/2000/svg" xmlns:xlink="http://www.w3.org/1999/xlink"><g id="_x31_75-internet-explorer"><g><g><path d="M459.988,169.487c9.754-22.079,19.247-54.3,19.247-78.947c0-65.336-71.55-88.38-188.376-34.659     c-96.7-6.451-189.767,66.188-213.016,167.52c27.718-31.322,70.321-73.939,109.588-90.883     c-48.763,43.388-90.339,98.328-121.905,155.58c-18.641,34.074-39.525,89.138-39.525,130.292     c0,88.565,83.424,77.715,161.944,37.738c28.231,13.865,59.799,13.994,91.365,13.994c87.259,0,165.537-48.78,194.794-131.191     H365.542c-47.175,79.594-176.828,47.612-176.828-42.62h295.398C489.869,257.157,482.625,210.317,459.988,169.487L459.988,169.487     z M84.004,337.648c15.911,45.956,48.249,86.134,90.082,110.78C94.357,492.398,18.417,474.571,84.004,337.648z M188.201,239.833     c1.797-49.549,45.168-85.236,93.418-85.236c47.992,0,91.625,35.687,93.422,85.236H188.201z M353.994,71.287     c19.25-9.243,43.63-19.768,65.188-19.768c28.231,0,48.764,19.51,48.764,48.266c0,17.97-6.674,44.029-13.09,60.974     C431.244,122.761,395.57,87.46,353.994,71.287z" style="fill:#1EBBEE;"/></g></g></g><g id="Layer_1"/></svg>