<svg xmlns="http://www.w3.org/2000/svg" width="26" height="32">
  <defs>
    <linearGradient id="a" x1="0%" x2="0%" y1="100%" y2="0%">
      <stop offset="0%" stop-color="#F45F5F"/>
      <stop offset="100%" stop-color="#EE3B3B"/>
    </linearGradient>
  </defs>
  <path fill-rule="evenodd" fill="url(#a)" d="M26 6v24a2 2 0 0 1-2 2H2a2 2 0 0 1-2-2V2a2 2 0 0 1 2-2h18l6 6z"/>
  <path fill-rule="evenodd" fill="#FF8276" d="M26 6h-4a2 2 0 0 1-2-2V0l6 6z"/>
  <path fill-rule="evenodd" opacity=".6" fill="#FFF" d="M5.38 26.324c.717.875 2.2.931 3.311.128.452-.327.765-.746.938-1.187.1-.185.166-.599.166-.9v-6.444l7.995-1.895v3.79c0 1.253-.782 1.534-1.143 1.598-.032.004-.063.011-.094.017a.78.78 0 0 0-.041.004l.006.002a2.979 2.979 0 0 0-1.245.52c-1.112.803-1.431 2.163-.713 3.037.717.875 2.2.932 3.311.129.562-.407.92-.956 1.045-1.513.043-.135.074-.214.074-.382V14.13c0-.497-.67-1.289-1.2-1.137l-8.395 1.896c-.53.151-.8.64-.8 1.137v5.306c0 1.256-.785 1.349-1.146 1.412l-.055.011-.078.01.011.004a2.992 2.992 0 0 0-1.234.518c-1.112.803-1.43 2.163-.713 3.037z"/>
  <path fill-rule="evenodd" fill="#FFF" d="M17.825 6.767H14.53c.054 1.045.693 1.711 1.62 1.711a2.11 2.11 0 0 0 1.225-.387l.297.54c-.432.279-.954.504-1.621.504-1.296 0-2.34-.945-2.34-2.557 0-1.584 1.071-2.575 2.205-2.575 1.243 0 1.945.901 1.945 2.296 0 .18-.018.351-.036.468zm-1.9-2.106c-.693 0-1.305.558-1.404 1.521h2.62c0-.99-.45-1.521-1.216-1.521zm-5.274 4.474c-.441 0-.909-.207-1.35-.567l.018.855v1.657H8.5V4.129h.675l.072.559h.027c.441-.36.99-.685 1.557-.685 1.261 0 1.945.991 1.945 2.494 0 1.675-.999 2.638-2.125 2.638zm-.018-4.438c-.414 0-.837.234-1.314.675v2.566c.441.378.873.513 1.197.513.811 0 1.405-.729 1.405-1.945 0-1.08-.36-1.809-1.288-1.809zM6.197 8.433H6.17c-.469.387-1.018.702-1.621.702-.819 0-1.431-.504-1.431-1.386 0-1.063.927-1.594 3.007-1.828 0-.63-.207-1.233-1.009-1.233-.567 0-1.08.261-1.467.522l-.324-.567c.45-.288 1.143-.64 1.926-.64 1.189 0 1.693.802 1.693 2.008v3.007h-.675l-.072-.585zm-.072-1.972c-1.648.198-2.206.603-2.206 1.234 0 .558.378.783.864.783.477 0 .864-.225 1.342-.648V6.461z"/>
</svg>
