<svg xmlns="http://www.w3.org/2000/svg" width="26" height="32">
  <defs>
    <linearGradient id="a" x1="0%" x2="0%" y1="100%" y2="0%">
      <stop offset="0%" stop-color="#F45F5F"/>
      <stop offset="100%" stop-color="#EE3B3B"/>
    </linearGradient>
  </defs>
  <path fill-rule="evenodd" fill="url(#a)" d="M26 6v24a2 2 0 0 1-2 2H2a2 2 0 0 1-2-2V2a2 2 0 0 1 2-2h18l6 6z"/>
  <path fill-rule="evenodd" fill="#FF8276" d="M26 6h-4a2 2 0 0 1-2-2V0l6 6z"/>
  <path fill-rule="evenodd" opacity=".6" fill="#FFF" d="M5.38 26.324c.717.875 2.2.931 3.311.128.452-.327.765-.746.938-1.187.1-.185.166-.599.166-.9v-6.444l7.995-1.895v3.79c0 1.253-.782 1.534-1.143 1.598-.032.004-.063.011-.094.017a.78.78 0 0 0-.041.004l.006.002a2.979 2.979 0 0 0-1.245.52c-1.112.803-1.431 2.163-.713 3.037.717.875 2.2.932 3.311.129.562-.407.92-.956 1.045-1.513.043-.135.074-.214.074-.382V14.13c0-.497-.67-1.289-1.2-1.137l-8.395 1.896c-.53.151-.8.64-.8 1.137v5.306c0 1.256-.785 1.349-1.146 1.412l-.055.011-.078.01.01.004a3.004 3.004 0 0 0-1.234.518c-1.111.803-1.429 2.163-.712 3.037z"/>
  <path fill-rule="evenodd" fill="#FFF" d="M22.223 9.273c-1.211 0-2.293-.935-2.293-2.554 0-1.629 1.082-2.573 2.293-2.573 1.21 0 2.293.944 2.293 2.573 0 1.619-1.083 2.554-2.293 2.554zm0-4.444c-.856 0-1.429.765-1.429 1.89 0 1.124.573 1.871 1.429 1.871.855 0 1.437-.747 1.437-1.871 0-1.125-.582-1.89-1.437-1.89zm-4.005-1.565c-.328 0-.573-.225-.573-.531 0-.332.245-.53.573-.53.327 0 .573.198.573.53 0 .306-.246.531-.573.531zm-2.86 5.317h-.018c-.391.377-.91.692-1.502.692-1.237 0-2.038-.926-2.038-2.554 0-1.584 1.01-2.573 2.139-2.573.582 0 .955.216 1.392.575l-.046-.845v-1.88h.828v7.16h-.673l-.082-.575zm-.073-3.23c-.418-.369-.791-.513-1.201-.513-.801 0-1.428.756-1.428 1.872 0 1.178.491 1.88 1.364 1.88.455 0 .856-.225 1.265-.675V5.351zM9.732 8.392h-.027c-.464.53-.955.881-1.638.881-1.037 0-1.501-.665-1.501-1.907V4.272h.828v2.995c0 .909.273 1.296.928 1.296.509 0 .864-.243 1.337-.828V4.272h.828v4.884h-.691l-.064-.764zm-5.434.18H4.27c-.473.386-1.028.701-1.637.701-.829 0-1.447-.503-1.447-1.385 0-1.062.937-1.592 3.039-1.826 0-.63-.209-1.233-1.019-1.233-.573 0-1.092.261-1.483.522l-.328-.567c.455-.287 1.156-.638 1.947-.638 1.201 0 1.711.8 1.711 2.006v3.004H4.37l-.072-.584zm-.073-1.97c-1.665.197-2.229.602-2.229 1.232 0 .558.382.783.873.783.482 0 .874-.225 1.356-.648V6.602zm14.402 2.554h-.828V4.272h.828v4.884z"/>
</svg>
