<svg xmlns="http://www.w3.org/2000/svg" width="26" height="32">
  <defs>
    <linearGradient id="a" x1="0%" x2="0%" y1="100%" y2="0%">
      <stop offset="0%" stop-color="#F45F5F"/>
      <stop offset="100%" stop-color="#EE3B3B"/>
    </linearGradient>
  </defs>
  <path fill-rule="evenodd" fill="url(#a)" d="M26 6v24a2 2 0 0 1-2 2H2a2 2 0 0 1-2-2V2a2 2 0 0 1 2-2h18l6 6z"/>
  <path fill-rule="evenodd" fill="#FF8276" d="M26 6h-4a2 2 0 0 1-2-2V0l6 6z"/>
  <path fill-rule="evenodd" opacity=".6" fill="#FFF" d="M5.38 26.324c.717.875 2.2.931 3.311.128.452-.327.765-.746.938-1.187.1-.185.166-.599.166-.9v-6.444l7.995-1.895v3.79c0 1.253-.782 1.534-1.143 1.598-.032.004-.063.011-.094.017a.78.78 0 0 0-.041.004l.006.002a2.979 2.979 0 0 0-1.245.52c-1.112.803-1.431 2.163-.713 3.037.717.875 2.2.932 3.311.129.562-.407.92-.956 1.045-1.513.043-.135.074-.214.074-.382V14.13c0-.497-.67-1.289-1.2-1.137l-8.395 1.896c-.53.151-.8.64-.8 1.137v5.306c0 1.256-.785 1.349-1.146 1.412l-.055.011-.078.01.01.004a3.004 3.004 0 0 0-1.234.518c-1.111.803-1.429 2.163-.712 3.037z"/>
  <path fill-rule="evenodd" fill="#FFF" d="M17.853 5.684v.036c.791.18 1.419.774 1.419 1.673 0 1.179-.955 1.88-2.138 1.88-1.046 0-1.702-.431-2.138-.899l.418-.54c.392.405.901.756 1.656.756.792 0 1.356-.468 1.356-1.224 0-.791-.537-1.322-2.075-1.322v-.63c1.374 0 1.848-.549 1.848-1.259 0-.639-.437-1.044-1.129-1.062-.537.018-1.01.288-1.383.657l-.446-.522c.501-.459 1.092-.791 1.866-.791 1.119 0 1.938.593 1.938 1.655 0 .8-.482 1.331-1.192 1.592zM12.1 9.273c-.446 0-.919-.207-1.365-.566l.018.854v1.655h-.828V4.272h.682l.073.557h.027c.446-.359 1.001-.683 1.575-.683 1.273 0 1.965.989 1.965 2.492 0 1.673-1.01 2.635-2.147 2.635zm-.019-4.435c-.418 0-.846.234-1.328.675v2.564c.446.378.882.513 1.21.513.819 0 1.42-.729 1.42-1.943 0-1.08-.364-1.809-1.302-1.809zM7.482 6.17c0-.918-.291-1.305-.919-1.305-.382 0-.782.243-1.246.747v3.544h-.828V6.17c0-.918-.291-1.305-.919-1.305-.373 0-.792.243-1.247.747v3.544h-.828V4.272h.683l.072.71h.028c.427-.467.946-.836 1.537-.836.756 0 1.165.36 1.365.935.51-.548 1.028-.935 1.629-.935 1.019 0 1.501.665 1.501 1.916v3.094h-.828V6.17z"/>
</svg>
