<svg xmlns="http://www.w3.org/2000/svg" width="26" height="32">
  <defs>
    <linearGradient id="a" x1="0%" x2="0%" y1="100%" y2="0%">
      <stop offset="0%" stop-color="#F45F5F"/>
      <stop offset="100%" stop-color="#EE3B3B"/>
    </linearGradient>
  </defs>
  <path fill-rule="evenodd" fill="url(#a)" d="M26 6v24a2 2 0 0 1-2 2H2a2 2 0 0 1-2-2V2a2 2 0 0 1 2-2h18l6 6z"/>
  <path fill-rule="evenodd" fill="#FF8276" d="M26 6h-4a2 2 0 0 1-2-2V0l6 6z"/>
  <path fill-rule="evenodd" opacity=".6" fill="#FFF" d="M5.38 26.324c.717.875 2.2.931 3.311.128.452-.327.765-.746.938-1.187.1-.185.166-.599.166-.9v-6.444l7.995-1.895v3.79c0 1.253-.782 1.534-1.143 1.598-.032.004-.063.011-.094.017a.78.78 0 0 0-.041.004l.006.002a2.979 2.979 0 0 0-1.245.52c-1.112.803-1.431 2.163-.713 3.037.717.875 2.2.932 3.311.129.562-.407.92-.956 1.045-1.513.043-.135.074-.214.074-.382V14.13c0-.497-.67-1.289-1.2-1.137l-8.395 1.896c-.53.151-.8.64-.8 1.137v5.306c0 1.256-.785 1.349-1.146 1.412l-.055.011-.078.01.01.004a2.994 2.994 0 0 0-1.233.518c-1.112.803-1.43 2.163-.713 3.037z"/>
  <path fill-rule="evenodd" fill="#FFF" d="M20.101 9.156l-.073-.584h-.027c-.473.386-1.028.701-1.638.701-.828 0-1.447-.503-1.447-1.385 0-1.062.938-1.592 3.039-1.826 0-.63-.209-1.233-1.019-1.233-.573 0-1.092.261-1.483.522l-.327-.567c.455-.287 1.155-.638 1.947-.638 1.201 0 1.71.8 1.71 2.006v3.004h-.682zm-.146-2.554c-1.665.197-2.229.602-2.229 1.232 0 .558.382.783.874.783.482 0 .873-.225 1.355-.648V6.602zm-5.172-.432c0-.918-.291-1.305-.919-1.305-.382 0-.782.243-1.246.747v3.544h-.828V6.17c0-.918-.292-1.305-.919-1.305-.374 0-.792.243-1.247.747v3.544h-.828V4.272h.682l.073.71h.027c.428-.467.947-.836 1.538-.836.755 0 1.165.36 1.365.935.51-.548 1.028-.935 1.629-.935 1.019 0 1.501.665 1.501 1.916v3.094h-.828V6.17zM5.38 9.156l-.718-2.635c-.128-.459-.219-.909-.337-1.404h-.046c-.109.495-.209.954-.336 1.422l-.692 2.617h-.973L.904 4.272h.846l.737 2.824c.1.468.2.909.291 1.368h.046c.109-.459.209-.909.336-1.368l.765-2.824h.809l.774 2.824c.118.468.227.909.346 1.368h.036c.109-.459.2-.9.309-1.368l.728-2.824h.783L6.381 9.156H5.38z"/>
</svg>
