<svg xmlns="http://www.w3.org/2000/svg" width="26" height="32">
  <defs>
    <linearGradient id="a" x1="0%" x2="0%" y1="100%" y2="0%">
      <stop offset="0%" stop-color="#98BCCD"/>
      <stop offset="100%" stop-color="#76A0B7"/>
    </linearGradient>
  </defs>
  <path fill-rule="evenodd" fill="url(#a)" d="M26 6v24a2 2 0 0 1-2 2H2a2 2 0 0 1-2-2V2a2 2 0 0 1 2-2h18l6 6z"/>
  <path fill-rule="evenodd" fill="#B5E6FF" d="M26 6h-4a2 2 0 0 1-2-2V0l6 6z"/>
  <path fill-rule="evenodd" opacity=".6" fill="#FFF" d="M19.612 20.004H6.396c-.218 0-.394-.226-.394-.504v-.008c0-.278.176-.504.394-.504h13.216c.218 0 .395.226.395.504v.008c0 .278-.177.504-.395.504zm0-5.008H6.396c-.218 0-.394-.225-.394-.503v-.008c0-.279.176-.504.394-.504h13.216c.218 0 .395.225.395.504v.008c0 .278-.177.503-.395.503zm-13.234 9h13.238c.216 0 .391.225.391.504v.008c0 .278-.175.504-.391.504H6.378c-.216 0-.391-.226-.391-.504V24.5c0-.279.175-.504.391-.504z"/>
  <path fill-rule="evenodd" fill="#FFF" d="M14.282 3.793c-.619 0-.901.324-.901.702 0 .468.537.639 1.092.846.719.27 1.51.557 1.51 1.484 0 .792-.637 1.448-1.801 1.448-.701 0-1.374-.288-1.847-.674l.409-.54c.428.342.874.576 1.465.576.655 0 .974-.342.974-.765 0-.495-.583-.72-1.129-.927-.691-.251-1.474-.584-1.474-1.412 0-.774.628-1.385 1.702-1.385.61 0 1.146.252 1.538.548l-.401.531c-.346-.252-.691-.432-1.137-.432zm-4.069 1.548c.718.27 1.51.557 1.51 1.484 0 .792-.637 1.448-1.802 1.448-.7 0-1.373-.288-1.847-.674l.41-.54c.427.342.873.576 1.465.576.655 0 .973-.342.973-.765 0-.495-.582-.72-1.128-.927-.691-.251-1.474-.584-1.474-1.412 0-.774.628-1.385 1.702-1.385.609 0 1.146.252 1.537.548l-.4.531c-.346-.252-.692-.432-1.137-.432-.619 0-.901.324-.901.702 0 .468.537.639 1.092.846zM6.298 7.572H6.27c-.473.386-1.028.701-1.637.701-.829 0-1.447-.503-1.447-1.385 0-1.062.937-1.592 3.039-1.826 0-.63-.209-1.233-1.019-1.233-.573 0-1.092.261-1.483.522l-.328-.567c.455-.287 1.156-.638 1.947-.638 1.201 0 1.711.8 1.711 2.006v3.004H6.37l-.072-.584zm-.073-1.97c-1.665.197-2.229.602-2.229 1.232 0 .558.382.783.873.783.482 0 .874-.225 1.356-.648V5.602z"/>
</svg>
