<svg xmlns="http://www.w3.org/2000/svg" width="26" height="32" viewBox="0 0 26 32">
  <defs>
    <linearGradient id="cad-a" x1="50%" x2="50%" y1="100%" y2="0%">
      <stop offset="0%" stop-color="#98BCCD"/>
      <stop offset="100%" stop-color="#76A1B7"/>
    </linearGradient>
  </defs>
  <g fill="none" fill-rule="evenodd">
    <path fill="url(#cad-a)" d="M26,6.5 L26,29.25 C26,30.3269553 25.1269553,31.2 24.05,31.2 L1.95,31.2 C0.873044738,31.2 0,30.3269553 0,29.25 L0,1.95 C0,0.873044738 0.873044738,0 1.95,0 L19.5,0 L26,6.5 Z"/>
    <path fill="#FFF" d="M15.6,14.3 C15.9589851,14.3 16.25,14.5910149 16.25,14.95 L16.25,20.799 L16.9,20.8 C17.2589851,20.8 17.55,21.0910149 17.55,21.45 L17.55,22.099 L18.85,22.1 C19.2089851,22.1 19.5,22.3910149 19.5,22.75 C19.5,23.1089851 19.2089851,23.4 18.85,23.4 L17.55,23.399 L17.55,24.05 C17.55,24.4089851 17.2589851,24.7 16.9,24.7 L16.25,24.699 L16.25,26.65 C16.25,27.0089851 15.9589851,27.3 15.6,27.3 C15.2410149,27.3 14.95,27.0089851 14.95,26.65 L14.95,24.699 L14.3,24.7 C13.9410149,24.7 13.65,24.4089851 13.65,24.05 L13.65,23.399 L7.15,23.4 C6.79101491,23.4 6.5,23.1089851 6.5,22.75 C6.5,22.3910149 6.79101491,22.1 7.15,22.1 L13.65,22.099 L13.65,21.45 C13.65,21.0910149 13.9410149,20.8 14.3,20.8 L14.95,20.799 L14.95,14.95 C14.95,14.5910149 15.2410149,14.3 15.6,14.3 Z" opacity=".6"/>
    <path fill="#BEEAFF" d="M26,6.5 L20.8,6.5 C20.0820298,6.5 19.5,5.91797017 19.5,5.2 L19.5,0 L26,6.5 Z"/>
    <path fill="#FFF" fill-rule="nonzero" d="M5.15270996,3.95268555 C5.57398485,3.95268555 5.91670197,4.05509338 6.18087158,4.25991211 C6.4450412,4.46473084 6.60388971,4.81733962 6.65742188,5.31774902 L6.04645996,5.31774902 C6.00922019,5.08732795 5.92426824,4.89589513 5.79160156,4.74344482 C5.65893488,4.59099452 5.44597315,4.51477051 5.15270996,4.51477051 C4.75238244,4.51477051 4.466106,4.71027637 4.29387207,5.10129395 C4.18215276,5.35498988 4.12629395,5.66803199 4.12629395,6.04042969 C4.12629395,6.41515487 4.20542727,6.73052444 4.36369629,6.98654785 C4.52196531,7.24257127 4.77100253,7.37058105 5.11081543,7.37058105 C5.37149382,7.37058105 5.57805506,7.29086587 5.73050537,7.13143311 C5.88295568,6.97200034 5.98827282,6.75380184 6.04645996,6.47683105 L6.65742188,6.47683105 C6.58759731,6.97258549 6.41303851,7.33508593 6.13374023,7.56434326 C5.85444196,7.79360059 5.49717828,7.90822754 5.06193848,7.90822754 C4.5731665,7.90822754 4.18331851,7.7295957 3.89238281,7.37232666 C3.60144711,7.01505762 3.45598145,6.56876895 3.45598145,6.03344727 C3.45598145,5.37709633 3.61541182,4.8662209 3.93427734,4.50080566 C4.25314287,4.13539043 4.65928301,3.95268555 5.15270996,3.95268555 Z M7.76762695,6.80500488 C7.76762695,6.98654876 7.8339593,7.12968698 7.96662598,7.23442383 C8.09929266,7.33916068 8.25639558,7.39152832 8.43793945,7.39152832 C8.65905058,7.39152832 8.87317605,7.34032441 9.08032227,7.23791504 C9.4294451,7.06800859 9.60400391,6.78987823 9.60400391,6.40351563 L9.60400391,5.89729004 C9.52719688,5.94616724 9.42828023,5.98689762 9.30725098,6.01948242 C9.18622173,6.05206722 9.06752174,6.07534173 8.95114746,6.08930664 L8.57060547,6.13818359 C8.34251188,6.16844091 8.17144426,6.21615365 8.05739746,6.28132324 C7.86421616,6.39071507 7.76762695,6.56527387 7.76762695,6.80500488 Z M9.28979492,5.5342041 C9.43409903,5.51558422 9.53068823,5.4550705 9.57956543,5.35266113 C9.60749526,5.29680148 9.62145996,5.21650443 9.62145996,5.11176758 C9.62145996,4.8976389 9.54523595,4.74228157 9.39278564,4.64569092 C9.24033534,4.54910027 9.02213684,4.50080566 8.73818359,4.50080566 C8.41000812,4.50080566 8.17726306,4.58924879 8.03994141,4.7661377 C7.96313438,4.86389209 7.91309419,5.00935776 7.88981934,5.20253906 L7.3032959,5.20253906 C7.31493333,4.74169691 7.46447203,4.42109058 7.7519165,4.24071045 C8.03936097,4.06033032 8.37276829,3.9701416 8.75214844,3.9701416 C9.19204322,3.9701416 9.5493069,4.05392983 9.8239502,4.22150879 C10.096266,4.38908775 10.2324219,4.64976223 10.2324219,5.00354004 L10.2324219,7.15761719 C10.2324219,7.22278678 10.2458047,7.27515442 10.2725708,7.31472168 C10.2993369,7.35428893 10.3557776,7.37407227 10.4418945,7.37407227 C10.4698244,7.37407227 10.5012449,7.37232668 10.5361572,7.36883545 C10.5710695,7.36534422 10.6083087,7.36010746 10.647876,7.353125 L10.647876,7.81745605 C10.5501216,7.84538588 10.4756432,7.86284176 10.4244385,7.86982422 C10.3732338,7.87680668 10.3034103,7.88029785 10.2149658,7.88029785 C9.99850966,7.88029785 9.84140674,7.80349198 9.74365234,7.64987793 C9.69244766,7.56841593 9.65637218,7.45320713 9.6354248,7.30424805 C9.5074131,7.47182701 9.32354449,7.61729268 9.08381348,7.74064941 C8.84408246,7.86400615 8.57991681,7.92568359 8.29130859,7.92568359 C7.94451324,7.92568359 7.66114612,7.82036645 7.44119873,7.609729 C7.22125134,7.39909156 7.1112793,7.13550777 7.1112793,6.81896973 C7.1112793,6.47217437 7.21950575,6.20335382 7.43596191,6.0125 C7.65241807,5.82164618 7.93636706,5.70410992 8.28781738,5.6598877 L9.28979492,5.5342041 Z M11.6603271,5.97409668 C11.6603271,6.3744242 11.7452791,6.7095771 11.9151855,6.97956543 C12.085092,7.24955376 12.3574037,7.3845459 12.7321289,7.3845459 C13.0230646,7.3845459 13.2622102,7.25944542 13.4495728,7.00924072 C13.6369353,6.75903602 13.7306152,6.40002675 13.7306152,5.93220215 C13.7306152,5.45972257 13.634026,5.11002311 13.4408447,4.88309326 C13.2476634,4.65616342 13.0090997,4.5427002 12.7251465,4.5427002 C12.4086084,4.5427002 12.152007,4.66372763 11.9553345,4.90578613 C11.7586619,5.14784463 11.6603271,5.50394459 11.6603271,5.97409668 Z M12.6064453,3.99458008 C12.892726,3.99458008 13.1324535,4.0550938 13.3256348,4.17612305 C13.4373541,4.24594761 13.5642001,4.36813878 13.7061768,4.5427002 L13.7061768,2.65395508 L14.3101562,2.65395508 L14.3101562,7.8 L13.7445801,7.8 L13.7445801,7.27980957 C13.5979485,7.51023064 13.4245534,7.67664337 13.2243896,7.77905273 C13.0242259,7.8814621 12.794972,7.93266602 12.5366211,7.93266602 C12.1200012,7.93266602 11.7592463,7.75752535 11.4543457,7.40723877 C11.1494451,7.05695219 10.9969971,6.59088019 10.9969971,6.00900879 C10.9969971,5.46437716 11.1360622,4.99248653 11.4141968,4.59332275 C11.6923313,4.19415897 12.0897435,3.99458008 12.6064453,3.99458008 Z"/>
  </g>
</svg>
