<svg xmlns="http://www.w3.org/2000/svg" width="26" height="32" viewBox="0 0 26 32">
  <defs>
    <linearGradient id="cdr-a" x1="50%" x2="50%" y1="100%" y2="0%">
      <stop offset="0%" stop-color="#48D050"/>
      <stop offset="100%" stop-color="#28BB2D"/>
    </linearGradient>
  </defs>
  <g fill="none" fill-rule="evenodd">
    <path fill="url(#cdr-a)" d="M26,6.5 L26,29.25 C26,30.3269553 25.1269553,31.2 24.05,31.2 L1.95,31.2 C0.873044738,31.2 0,30.3269553 0,29.25 L0,1.95 C0,0.873044738 0.873044738,0 1.95,0 L19.5,0 L26,6.5 Z"/>
    <path fill="#B1EA95" d="M26,6.5 L20.8,6.5 C20.0820298,6.5 19.5,5.91797017 19.5,5.2 L19.5,0 L26,6.5 Z"/>
    <g fill="#FFF" opacity=".6" transform="translate(7.8 12.35)">
      <path d="M0.53625,5.18375 C0.669231822,6.9790046 1.76282761,9.64101474 2.91021746,11.00147 C1.61040611,9.85874839 0.391302793,8.27483732 0.0947409112,6.19890414 C-0.292032407,3.49149091 0.53935284,1.93479768 1.97016002,1.07611722 C1.01924005,2.3269079 0.377097983,3.03519777 0.53625,5.18375 Z"/>
      <path d="M8.58,5.18375 C8.71298182,6.9790046 9.80657761,9.64101474 10.9539675,11.00147 C9.65415611,9.85874839 8.43505279,8.27483732 8.13849091,6.19890414 C7.75171759,3.49149091 8.58310284,1.93479768 10.01391,1.07611722 C9.06299005,2.3269079 8.42084798,3.03519777 8.58,5.18375 Z" transform="matrix(-1 0 0 1 18.998 0)"/>
      <path d="M6.95315497.33671842L6.90549988.309831397 6.99488716.33637599C8.34129187.748043879 9.92599091 1.77324575 9.92599091 4.23265414 9.92599091 8.39240333 7.5945509 11.8169471 6.0739839 12.743755 7.5673624 11.4065052 8.85349091 8.01658188 8.85349091 4.23265414 8.85349091 2.03364611 7.94856904.908823437 6.95315497.33671842zM4.14007685.33671842L4.18773194.309831397 4.09834466.33637599C2.75193995.748043879 1.16724091 1.77324575 1.16724091 4.23265414 1.16724091 8.39240333 3.49868092 11.8169471 5.01924792 12.743755 3.52586942 11.4065052 2.23974091 8.01658188 2.23974091 4.23265414 2.23974091 2.03364611 3.14466279.908823437 4.14007685.33671842z"/>
      <path d="M5.36794163,0 C6.41992779,1.13260591 7.06599091,2.09798955 7.06599091,4.94765414 C7.06599091,7.75575456 6.41557748,11.1875389 5.36796113,13.005355 C4.32015435,11.1875389 3.66974091,7.75575456 3.66974091,4.94765414 C3.66974091,2.12818526 4.3021849,1.17211677 5.33448593,0.0362491167 L5.36794163,0 Z"/>
      <rect width="1.966" height="1.073" x="4.469" y="13.227"/>
    </g>
    <path fill="#FFF" fill-rule="nonzero" d="M5.15270996,3.95268555 C5.57398485,3.95268555 5.91670197,4.05509338 6.18087158,4.25991211 C6.4450412,4.46473084 6.60388971,4.81733962 6.65742188,5.31774902 L6.04645996,5.31774902 C6.00922019,5.08732795 5.92426824,4.89589513 5.79160156,4.74344482 C5.65893488,4.59099452 5.44597315,4.51477051 5.15270996,4.51477051 C4.75238244,4.51477051 4.466106,4.71027637 4.29387207,5.10129395 C4.18215276,5.35498988 4.12629395,5.66803199 4.12629395,6.04042969 C4.12629395,6.41515487 4.20542727,6.73052444 4.36369629,6.98654785 C4.52196531,7.24257127 4.77100253,7.37058105 5.11081543,7.37058105 C5.37149382,7.37058105 5.57805506,7.29086587 5.73050537,7.13143311 C5.88295568,6.97200034 5.98827282,6.75380184 6.04645996,6.47683105 L6.65742188,6.47683105 C6.58759731,6.97258549 6.41303851,7.33508593 6.13374023,7.56434326 C5.85444196,7.79360059 5.49717828,7.90822754 5.06193848,7.90822754 C4.5731665,7.90822754 4.18331851,7.7295957 3.89238281,7.37232666 C3.60144711,7.01505762 3.45598145,6.56876895 3.45598145,6.03344727 C3.45598145,5.37709633 3.61541182,4.8662209 3.93427734,4.50080566 C4.25314287,4.13539043 4.65928301,3.95268555 5.15270996,3.95268555 Z M7.68383789,5.97409668 C7.68383789,6.3744242 7.76878984,6.7095771 7.93869629,6.97956543 C8.10860274,7.24955376 8.38091447,7.3845459 8.75563965,7.3845459 C9.04657535,7.3845459 9.28572091,7.25944542 9.4730835,7.00924072 C9.66044609,6.75903602 9.75412598,6.40002675 9.75412598,5.93220215 C9.75412598,5.45972257 9.65753677,5.11002311 9.46435547,4.88309326 C9.27117416,4.65616342 9.03261047,4.5427002 8.74865723,4.5427002 C8.43211919,4.5427002 8.17551775,4.66372763 7.97884521,4.90578613 C7.78217268,5.14784463 7.68383789,5.50394459 7.68383789,5.97409668 Z M8.62995605,3.99458008 C8.91623678,3.99458008 9.1559642,4.0550938 9.34914551,4.17612305 C9.46086482,4.24594761 9.58771088,4.36813878 9.7296875,4.5427002 L9.7296875,2.65395508 L10.333667,2.65395508 L10.333667,7.8 L9.76809082,7.8 L9.76809082,7.27980957 C9.62145923,7.51023064 9.44806415,7.67664337 9.24790039,7.77905273 C9.04773663,7.8814621 8.81848274,7.93266602 8.56013184,7.93266602 C8.14351191,7.93266602 7.78275706,7.75752535 7.47785645,7.40723877 C7.17295583,7.05695219 7.02050781,6.59088019 7.02050781,6.00900879 C7.02050781,5.46437716 7.15957299,4.99248653 7.43770752,4.59332275 C7.71584205,4.19415897 8.11325425,3.99458008 8.62995605,3.99458008 Z M11.2797852,4.06091309 L11.8767822,4.06091309 L11.8767822,4.70678711 C11.9256594,4.58110289 12.0455231,4.428073 12.236377,4.24769287 C12.4272308,4.06731274 12.6471749,3.97712402 12.8962158,3.97712402 L13.0378037,3.98837347 C13.0559063,3.99018372 13.076207,3.99225259 13.0987061,3.99458008 L13.0987061,4.65791016 C13.0614663,4.6509277 13.0271364,4.6462728 12.9957153,4.64394531 C12.9642943,4.64161783 12.9299644,4.6404541 12.8927246,4.6404541 C12.5761866,4.6404541 12.332968,4.74228007 12.1630615,4.94593506 C11.9931551,5.14959005 11.9082031,5.3840807 11.9082031,5.64941406 L11.9082031,7.8 L11.2797852,7.8 L11.2797852,4.06091309 Z"/>
  </g>
</svg>
