<svg xmlns="http://www.w3.org/2000/svg" width="26" height="32">
  <defs>
    <linearGradient id="a" x1="0%" x2="0%" y1="100%" y2="0%">
      <stop offset="0%" stop-color="#98BCCD"/>
      <stop offset="100%" stop-color="#76A0B7"/>
    </linearGradient>
  </defs>
  <path fill-rule="evenodd" fill="url(#a)" d="M26 6v24a2 2 0 0 1-2 2H2a2 2 0 0 1-2-2V2a2 2 0 0 1 2-2h18l6 6z"/>
  <path fill-rule="evenodd" fill="#B5E6FF" d="M26 6h-4a2 2 0 0 1-2-2V0l6 6z"/>
  <path fill-rule="evenodd" opacity=".6" fill="#FFF" d="M19.616 25.012H6.378c-.216 0-.391-.225-.391-.503v-.008c0-.277.175-.502.391-.502h13.238c.216 0 .391.225.391.502v.008c0 .278-.175.503-.391.503zm-.004-4.994H6.396c-.218 0-.394-.225-.394-.502v-.008c0-.278.176-.503.394-.503h13.216c.218 0 .395.225.395.503v.008c0 .277-.177.502-.395.502zm0-4.993H6.396c-.218 0-.394-.225-.394-.503v-.008c0-.277.176-.502.394-.502h13.216c.218 0 .395.225.395.502v.008c0 .278-.177.503-.395.503z"/>
  <path fill-rule="evenodd" fill="#FFF" d="M17.642 9.156V6.17c0-.918-.292-1.305-.919-1.305-.383 0-.783.243-1.247.747v3.544h-.828V6.17c0-.918-.291-1.305-.919-1.305-.373 0-.792.243-1.247.747v3.544h-.828V4.272h.683l.073.71h.027c.428-.467.946-.836 1.538-.836.755 0 1.164.36 1.365.935.509-.548 1.028-.935 1.628-.935 1.019 0 1.502.665 1.502 1.916v3.094h-.828zM9.25 6.17c0-.918-.282-1.305-.938-1.305-.509 0-.855.252-1.355.747v3.544h-.828v-7.16h.828v1.961l-.028 1.007c.455-.449.965-.818 1.638-.818 1.038 0 1.511.665 1.511 1.916v3.094H9.25V6.17zM3.515 8.59c.455 0 .855-.207 1.165-.486l.355.549a2.375 2.375 0 0 1-1.593.62c-1.31 0-2.32-.935-2.32-2.554 0-1.629 1.119-2.573 2.384-2.573.646 0 1.092.27 1.447.575l-.428.549c-.291-.261-.591-.441-.992-.441-.891 0-1.547.765-1.547 1.89 0 1.124.619 1.871 1.529 1.871z"/>
</svg>
