<svg xmlns="http://www.w3.org/2000/svg" width="27" height="32" viewBox="0 0 27 32">
  <defs>
    <linearGradient id="doc-a" x1="50%" x2="50%" y1="0%" y2="100%">
      <stop offset="0%" stop-color="#1D70CA"/>
      <stop offset="100%" stop-color="#41A5EE"/>
    </linearGradient>
  </defs>
  <g fill="none" fill-rule="evenodd">
    <path fill="url(#doc-a)" d="M1.34120446,0 L19.4395753,0 L19.4395753,0 L26.5085117,7.25527747 L26.5085117,30.4006345 C26.5085117,31.1413612 25.908034,31.7418389 25.1673072,31.7418389 L1.34120446,31.7418389 C0.600477691,31.7418389 3.12757472e-16,31.1413612 0,30.4006345 L0,1.34120446 C-3.12757472e-16,0.600477691 0.600477691,-8.59753047e-17 1.34120446,0 Z"/>
    <path fill="#FFF" d="M19.4395753,0 L26.5085117,7.15309046 L20.7807797,7.15309046 C20.0400529,7.15309046 19.4395753,6.55261277 19.4395753,5.811886 L19.4395753,0 L19.4395753,0 Z" opacity=".5"/>
    <rect width="13.254" height="13.412" y="9.835" fill="#1B61CA" rx=".447"/>
    <rect width="7.069" height="1" x="15.905" y="10.73" fill="#FFF" opacity=".5"/>
    <rect width="7.069" height="1" x="15.905" y="14.306" fill="#FFF" opacity=".5"/>
    <rect width="7.069" height="1" x="15.905" y="17.883" fill="#FFF" opacity=".5"/>
    <rect width="7.069" height="1" x="15.905" y="21.459" fill="#FFF" opacity=".5"/>
    <path fill="#FFF" fill-rule="nonzero" d="M8.26562353,19.7998614 C8.5651493,20.2848079 9.29477021,20.1986521 9.47310507,19.6572784 L11.2403392,14.2924606 C11.3562161,13.9406914 11.1649876,13.5615893 10.8132184,13.4457123 C10.4614492,13.3298354 10.0823471,13.5210639 9.96647018,13.8728331 L8.64986128,17.8696816 L7.19767496,15.5185228 C6.93562335,15.0942487 6.31863251,15.0942487 6.05658089,15.5185228 L4.60439457,17.8696816 L3.28778567,13.8728331 C3.17190875,13.5210639 2.79280666,13.3298354 2.44103745,13.4457123 C2.08926824,13.5615893 1.89803976,13.9406914 2.01391667,14.2924606 L3.78115079,19.6572784 C3.95948564,20.1986521 4.68910655,20.2848079 4.98863232,19.7998614 L6.62712793,17.147059 L8.26562353,19.7998614 Z"/>
  </g>
</svg>
