<svg xmlns="http://www.w3.org/2000/svg" width="26" height="32">
  <defs>
    <linearGradient id="a" x1="0%" x2="0%" y1="100%" y2="0%">
      <stop offset="0%" stop-color="#FF9B13"/>
      <stop offset="100%" stop-color="#FF7807"/>
    </linearGradient>
  </defs>
  <path fill-rule="evenodd" fill="url(#a)" d="M26 6v24a2 2 0 0 1-2 2H2a2 2 0 0 1-2-2V2a2 2 0 0 1 2-2h18l6 6z"/>
  <path fill-rule="evenodd" fill="#FDDBB1" d="M26 6h-4a2 2 0 0 1-2-2V0l6 6z"/>
  <path fill-rule="evenodd" opacity=".6" fill="#FFF" d="M15.778 23.117c1.779 0 3.222-1.37 3.222-3.059S17.557 17 15.778 17H7.732c-.404 0-.732.311-.732.694 0 .384.328.695.732.695h8.046c.971 0 1.759.747 1.759 1.669s-.788 1.67-1.759 1.67H7.749c-.414 0-.749.318-.749.711v3.867c0 .383.328.694.732.694.404 0 .731-.311.731-.694v-3.189h7.315z"/>
  <path fill-rule="evenodd" fill="#FFF" d="M15.056 4.793c-.618 0-.9.324-.9.702 0 .468.536.639 1.091.846.719.27 1.511.557 1.511 1.484 0 .792-.637 1.448-1.802 1.448-.7 0-1.374-.288-1.847-.674l.41-.54c.427.342.873.576 1.465.576.655 0 .973-.342.973-.765 0-.495-.582-.72-1.128-.927-.692-.251-1.474-.584-1.474-1.412 0-.774.628-1.385 1.701-1.385.61 0 1.147.252 1.538.548l-.4.531c-.346-.252-.692-.432-1.138-.432zm-4.62 4.48c-.446 0-.919-.207-1.365-.566l.019.854v1.655h-.828V4.272h.682l.073.557h.027c.446-.359 1.001-.683 1.574-.683 1.274 0 1.966.989 1.966 2.492 0 1.673-1.01 2.635-2.148 2.635zm-.018-4.435c-.418 0-.846.234-1.328.675v2.564c.446.378.882.513 1.21.513.819 0 1.419-.729 1.419-1.943 0-1.08-.364-1.809-1.301-1.809zm-4.72 3.743H5.68c-.391.377-.91.692-1.502.692-1.237 0-2.038-.926-2.038-2.554 0-1.584 1.01-2.573 2.139-2.573.582 0 .955.216 1.392.575l-.046-.845v-1.88h.828v7.16H5.78l-.082-.575zm-.073-3.23c-.418-.369-.791-.513-1.201-.513-.801 0-1.428.756-1.428 1.872 0 1.178.491 1.88 1.364 1.88.455 0 .856-.225 1.265-.675V5.351z"/>
</svg>
