<svg xmlns="http://www.w3.org/2000/svg" width="26" height="32" viewBox="0 0 26 32">
  <defs>
    <linearGradient id="dwg-a" x1="50%" x2="50%" y1="100%" y2="0%">
      <stop offset="0%" stop-color="#98BCCD"/>
      <stop offset="100%" stop-color="#76A1B7"/>
    </linearGradient>
  </defs>
  <g fill="none" fill-rule="evenodd">
    <path fill="url(#dwg-a)" d="M26,6.5 L26,29.25 C26,30.3269553 25.1269553,31.2 24.05,31.2 L1.95,31.2 C0.873044738,31.2 0,30.3269553 0,29.25 L0,1.95 C0,0.873044738 0.873044738,0 1.95,0 L19.5,0 L26,6.5 Z"/>
    <path fill="#FFF" d="M15.6,14.3 C15.9589851,14.3 16.25,14.5910149 16.25,14.95 L16.25,20.799 L16.9,20.8 C17.2589851,20.8 17.55,21.0910149 17.55,21.45 L17.55,22.099 L18.85,22.1 C19.2089851,22.1 19.5,22.3910149 19.5,22.75 C19.5,23.1089851 19.2089851,23.4 18.85,23.4 L17.55,23.399 L17.55,24.05 C17.55,24.4089851 17.2589851,24.7 16.9,24.7 L16.25,24.699 L16.25,26.65 C16.25,27.0089851 15.9589851,27.3 15.6,27.3 C15.2410149,27.3 14.95,27.0089851 14.95,26.65 L14.95,24.699 L14.3,24.7 C13.9410149,24.7 13.65,24.4089851 13.65,24.05 L13.65,23.399 L7.15,23.4 C6.79101491,23.4 6.5,23.1089851 6.5,22.75 C6.5,22.3910149 6.79101491,22.1 7.15,22.1 L13.65,22.099 L13.65,21.45 C13.65,21.0910149 13.9410149,20.8 14.3,20.8 L14.95,20.799 L14.95,14.95 C14.95,14.5910149 15.2410149,14.3 15.6,14.3 Z" opacity=".6"/>
    <path fill="#BEEAFF" d="M26,6.5 L20.8,6.5 C20.0820298,6.5 19.5,5.91797017 19.5,5.2 L19.5,0 L26,6.5 Z"/>
    <text fill="#FFF" font-family="Helvetica" font-size="7.15">
      <tspan x="3.25" y="9.3">dwg</tspan>
    </text>
  </g>
</svg>
