<svg xmlns="http://www.w3.org/2000/svg" width="26" height="32">
  <defs>
    <linearGradient id="a" x1="0%" x2="0%" y1="100%" y2="0%">
      <stop offset="0%" stop-color="#48D050"/>
      <stop offset="100%" stop-color="#28BB2D"/>
    </linearGradient>
  </defs>
  <path fill-rule="evenodd" fill="url(#a)" d="M26 6v24a2 2 0 0 1-2 2H2a2 2 0 0 1-2-2V2a2 2 0 0 1 2-2h18l6 6z"/>
  <path fill-rule="evenodd" fill="#B1EA95" d="M26 6h-4a2 2 0 0 1-2-2V0l6 6z"/>
  <path fill-rule="evenodd" opacity=".6" fill="#FFF" d="M10.75 16C9.231 16 8 17.275 8 18.847c0 1.573 1.231 2.847 2.75 2.847h5.5c.778 0 1.409.653 1.409 1.459 0 .805-.631 1.458-1.409 1.458H8.671a.683.683 0 0 0-.671.695c0 .383.3.694.671.694h7.579c1.519 0 2.75-1.275 2.75-2.847 0-1.573-1.231-2.847-2.75-2.847h-5.5c-.778 0-1.409-.653-1.409-1.459 0-.805.631-1.458 1.409-1.458h7.579a.683.683 0 0 0 .671-.695c0-.383-.3-.694-.671-.694H10.75z"/>
  <path fill-rule="evenodd" fill="#FFF" d="M9.151 7.663c0 .603.191.945.765.945.173 0 .4-.063.564-.126l.164.611c-.282.09-.61.18-.91.18-1.056 0-1.411-.647-1.411-1.628V4.937h-.737v-.62l.774-.045.1-1.368h.691v1.368h1.338v.665H9.151v2.726zM3.95 6.907c.055 1.044.701 1.71 1.638 1.71.482 0 .873-.144 1.237-.387l.301.54c-.437.278-.965.503-1.638.503-1.31 0-2.366-.944-2.366-2.554 0-1.584 1.083-2.573 2.229-2.573 1.256 0 1.966.899 1.966 2.294 0 .18-.018.35-.037.467H3.95zm1.41-2.105c-.7 0-1.319.558-1.419 1.521h2.648c0-.99-.455-1.521-1.229-1.521z"/>
</svg>
