<svg xmlns="http://www.w3.org/2000/svg" width="26" height="32">
  <defs>
    <linearGradient id="a" x1="0%" x2="0%" y1="100%" y2="0%">
      <stop offset="0%" stop-color="#28B0FB"/>
      <stop offset="100%" stop-color="#1292F9"/>
    </linearGradient>
  </defs>
  <path fill-rule="evenodd" fill="url(#a)" d="M26 6v24a2 2 0 0 1-2 2H2a2 2 0 0 1-2-2V2a2 2 0 0 1 2-2h18l6 6z"/>
  <path fill-rule="evenodd" fill="#AFD9FD" d="M26 6h-4a2 2 0 0 1-2-2V0l6 6z"/>
  <path fill-rule="evenodd" opacity=".6" fill="#FFF" d="M18.6 21H13v3.6a.4.4 0 0 1-.4.4h2a.4.4 0 0 1 .4.4v.2a.4.4 0 0 1-.4.4h-4.2a.4.4 0 0 1-.4-.4v-.2a.4.4 0 0 1 .4-.4h2a.4.4 0 0 1-.4-.4V21H6.4a.4.4 0 0 1-.4-.4v-.2a.4.4 0 0 1 .4-.4h12.2a.4.4 0 0 1 .4.4v.2a.4.4 0 0 1-.4.4zm-.4-2H6.8c-.442 0-.8-.335-.8-.749l.4-4.496c0-.414.358-.749.8-.749h10.6c.442 0 .8.335.8.749l.4 4.496c0 .414-.358.749-.8.749z"/>
  <path fill-rule="evenodd" fill="#FFF" d="M14.483 9.561c-.346.963-.855 1.7-1.838 1.7-.236 0-.428-.036-.582-.099l.164-.656c.1.036.245.081.373.081.564 0 .919-.45 1.119-1.053l.109-.369-1.984-4.893h.865l1.01 2.716c.145.423.318.927.473 1.368h.046c.136-.441.282-.936.418-1.368l.883-2.716h.81l-1.866 5.289zM7.975 6.907c.055 1.044.701 1.71 1.638 1.71.482 0 .873-.144 1.237-.387l.301.54c-.437.278-.965.503-1.638.503-1.31 0-2.366-.944-2.366-2.554 0-1.584 1.083-2.573 2.229-2.573 1.256 0 1.966.899 1.966 2.294 0 .18-.018.35-.037.467h-3.33zm1.41-2.105c-.7 0-1.319.558-1.419 1.521h2.648c0-.99-.455-1.521-1.229-1.521zM5.689 9.156L4.242 6.799 3.314 7.87v1.286h-.819v-7.16h.819v4.857h.018l2.12-2.581h.919L4.715 6.233 6.59 9.156h-.901z"/>
</svg>
