<svg xmlns="http://www.w3.org/2000/svg" width="26" height="32">
  <defs>
    <linearGradient id="a" x1="0%" x2="0%" y1="100%" y2="0%">
      <stop offset="0%" stop-color="#98BCCD"/>
      <stop offset="100%" stop-color="#76A0B7"/>
    </linearGradient>
  </defs>
  <path fill-rule="evenodd" fill="url(#a)" d="M26 6v24a2 2 0 0 1-2 2H2a2 2 0 0 1-2-2V2a2 2 0 0 1 2-2h18l6 6z"/>
  <path fill-rule="evenodd" fill="#B5E6FF" d="M26 6h-4a2 2 0 0 1-2-2V0l6 6z"/>
  <path fill-rule="evenodd" opacity=".6" fill="#FFF" d="M19.612 20.018H6.396c-.218 0-.394-.225-.394-.502v-.008c0-.278.176-.503.394-.503h13.216c.218 0 .395.225.395.503v.008c0 .277-.177.502-.395.502zm0-4.993H6.396c-.218 0-.394-.225-.394-.503v-.008c0-.277.176-.502.394-.502h13.216c.218 0 .395.225.395.502v.008c0 .278-.177.503-.395.503zM6.378 23.999h13.238c.216 0 .391.225.391.502v.008c0 .278-.175.503-.391.503H6.378c-.216 0-.391-.225-.391-.503v-.008c0-.277.175-.502.391-.502z"/>
  <path fill-rule="evenodd" fill="#FFF" d="M14.073 5.909c0 1.043-.801 1.7-1.802 1.7-.245 0-.518-.063-.737-.171-.182.153-.318.315-.318.585 0 .315.2.531.864.531h.965c1.146 0 1.719.359 1.719 1.16 0 .909-.964 1.691-2.493 1.691-1.21 0-2.047-.467-2.047-1.313 0-.414.273-.81.737-1.107v-.036a.88.88 0 0 1-.455-.8c0-.405.3-.729.555-.909v-.036a1.706 1.706 0 0 1-.646-1.313c0-1.071.855-1.745 1.856-1.745.273 0 .519.063.692.126h1.719v.629h-1.01c.237.225.401.585.401 1.008zm-3.121 4.075c0 .522.537.864 1.437.864.947 0 1.575-.495 1.575-1.008 0-.45-.355-.603-1.01-.603h-.856c-.182 0-.418-.027-.637-.081-.354.252-.509.54-.509.828zm1.319-5.236c-.582 0-1.055.423-1.055 1.143 0 .711.482 1.16 1.055 1.16.564 0 1.047-.449 1.047-1.16 0-.711-.464-1.143-1.047-1.143zM7.009 9.273c-1.21 0-2.293-.935-2.293-2.554 0-1.629 1.083-2.573 2.293-2.573 1.211 0 2.293.944 2.293 2.573 0 1.619-1.082 2.554-2.293 2.554zm0-4.444c-.855 0-1.428.765-1.428 1.89 0 1.124.573 1.871 1.428 1.871.856 0 1.438-.747 1.438-1.871 0-1.125-.582-1.89-1.438-1.89zM2.495 8.185V1.996h.828v6.243c0 .252.109.351.237.351.045 0 .082 0 .173-.018l.118.629a1.32 1.32 0 0 1-.482.072c-.619 0-.874-.395-.874-1.088z"/>
</svg>
