<svg xmlns="http://www.w3.org/2000/svg" xmlns:xlink="http://www.w3.org/1999/xlink" width="26" height="32" viewBox="0 0 26 32">
  <defs>
    <linearGradient id="mdf-a" x1="50%" x2="50%" y1="100%" y2="0%">
      <stop offset="0%" stop-color="#9E9EEE"/>
      <stop offset="100%" stop-color="#7D7CE5"/>
    </linearGradient>
    <path id="mdf-b" d="M7.29381941,14.2782593 C4.42566948,14.2791712 1.83944092,12.552107 0.741275464,9.90251884 C-0.356889991,7.25293067 0.249314249,4.20271014 2.27717216,2.17439134 C4.30503008,0.146072552 7.35511277,-0.460824825 10.0049504,0.63673849 C12.6547881,1.73430181 14.3824399,4.32013783 14.3821794,7.1882879 C14.3820017,11.1032681 11.2087994,14.2771915 7.29381941,14.2782593 L7.29381941,14.2782593 Z M7.296397,5.57890794 C6.40795888,5.57873011 5.68757667,6.29877584 5.6873394,7.18721394 C5.68710225,8.07565205 6.40709987,8.79608235 7.29553795,8.79637899 C8.18397604,8.79667545 8.90445443,8.07672596 8.90481032,7.1882879 C8.90392123,6.29919138 8.18291637,5.57890794 7.29381941,5.57890794 L7.296397,5.57890794 Z"/>
  </defs>
  <g fill="none" fill-rule="evenodd">
    <path fill="url(#mdf-a)" fill-rule="nonzero" d="M26,6.5 L26,29.25 C26,30.3269553 25.1269553,31.2 24.05,31.2 L1.95,31.2 C0.873044738,31.2 0,30.3269553 0,29.25 L0,1.95 C0,0.873044738 0.873044738,0 1.95,0 L19.5,0 L26,6.5 Z"/>
    <path fill="#D9DEFA" fill-rule="nonzero" d="M26,6.5 L20.8,6.5 C20.0820298,6.5 19.5,5.91797017 19.5,5.2 L19.5,0 L26,6.5 Z"/>
    <g transform="translate(5.492 12.82)">
      <mask id="mdf-c" fill="#fff">
        <use xlink:href="#mdf-b"/>
      </mask>
      <use fill="#FFF" opacity=".5" xlink:href="#mdf-b"/>
      <polygon fill="#FFF" points="6.972 7.188 10.027 -.867 12.805 1.357 15.028 4.134" mask="url(#mdf-c)" opacity=".5"/>
      <polygon fill="#FFF" points="1.14 13.02 -1.083 10.242 6.972 7.188 3.916 15.243" mask="url(#mdf-c)" opacity=".5"/>
    </g>
    <path fill="#FFF" fill-rule="nonzero" d="M3.71083984,4.06091309 L4.33227539,4.06091309 L4.33227539,4.59157715 C4.48123447,4.40770579 4.61622661,4.27387737 4.73725586,4.19008789 C4.94440208,4.04811127 5.1794746,3.97712402 5.44248047,3.97712402 C5.74039863,3.97712402 5.98012605,4.05043872 6.16166992,4.19707031 C6.26407929,4.28085979 6.35717732,4.40421468 6.4409668,4.56713867 C6.58061593,4.36697491 6.74470121,4.21859993 6.93322754,4.12200928 C7.12175387,4.02541863 7.33355188,3.97712402 7.56862793,3.97712402 C8.07136482,3.97712402 8.41350007,4.15866518 8.59504395,4.52175293 C8.69279834,4.71726172 8.7416748,4.98026365 8.7416748,5.3107666 L8.7416748,7.8 L8.08881836,7.8 L8.08881836,5.20253906 C8.08881836,4.9534981 8.02655905,4.78243048 7.90203857,4.68933105 C7.77751809,4.59623163 7.62565194,4.54968262 7.44643555,4.54968262 C7.19972207,4.54968262 6.9873422,4.63230712 6.80928955,4.79755859 C6.6312369,4.96281007 6.54221191,5.23861298 6.54221191,5.62497559 L6.54221191,7.8 L5.90332031,7.8 L5.90332031,5.35964355 C5.90332031,5.10594762 5.87306345,4.9209153 5.81254883,4.80454102 C5.71712192,4.6299796 5.53907194,4.5427002 5.27839355,4.5427002 C5.04099002,4.5427002 4.82511897,4.6346345 4.63077393,4.81850586 C4.43642888,5.00237722 4.33925781,5.33520267 4.33925781,5.81699219 L4.33925781,7.8 L3.71083984,7.8 L3.71083984,4.06091309 Z M10.0648437,5.97409668 C10.0648437,6.3744242 10.1497957,6.7095771 10.3197021,6.97956543 C10.4896086,7.24955376 10.7619203,7.3845459 11.1366455,7.3845459 C11.4275812,7.3845459 11.6667268,7.25944542 11.8540894,7.00924072 C12.0414519,6.75903602 12.1351318,6.40002675 12.1351318,5.93220215 C12.1351318,5.45972257 12.0385426,5.11002311 11.8453613,4.88309326 C11.65218,4.65616342 11.4136163,4.5427002 11.1296631,4.5427002 C10.813125,4.5427002 10.5565236,4.66372763 10.3598511,4.90578613 C10.1631785,5.14784463 10.0648437,5.50394459 10.0648437,5.97409668 Z M11.0109619,3.99458008 C11.2972426,3.99458008 11.5369701,4.0550938 11.7301514,4.17612305 C11.8418707,4.24594761 11.9687167,4.36813878 12.1106934,4.5427002 L12.1106934,2.65395508 L12.7146729,2.65395508 L12.7146729,7.8 L12.1490967,7.8 L12.1490967,7.27980957 C12.0024651,7.51023064 11.82907,7.67664337 11.6289062,7.77905273 C11.4287425,7.8814621 11.1994886,7.93266602 10.9411377,7.93266602 C10.5245178,7.93266602 10.1637629,7.75752535 9.8588623,7.40723877 C9.55396169,7.05695219 9.40151367,6.59088019 9.40151367,6.00900879 C9.40151367,5.46437716 9.54057885,4.99248653 9.81871338,4.59332275 C10.0968479,4.19415897 10.4942601,3.99458008 11.0109619,3.99458008 Z M13.8004395,3.4918457 C13.8097494,3.23116732 13.8551347,3.04031636 13.9365967,2.91928711 C14.0832283,2.70515843 14.3660135,2.5980957 14.7849609,2.5980957 L14.8451843,2.5989685 L14.8451843,2.5989685 L14.9071533,2.60158691 C14.9490481,2.6039144 14.9967608,2.60740558 15.050293,2.61206055 L15.050293,3.18461914 L14.9088989,3.17589111 L14.9088989,3.17589111 L14.8268555,3.17414551 L14.8268555,3.17414551 C14.6360016,3.17414551 14.5219566,3.22360383 14.4847168,3.32252197 C14.447477,3.42144011 14.4288574,3.67338665 14.4288574,4.07836914 L15.050293,4.07836914 L15.050293,4.57412109 L14.421875,4.57412109 L14.421875,7.8 L13.8004395,7.8 L13.8004395,4.57412109 L13.280249,4.57412109 L13.280249,4.07836914 L13.8004395,4.07836914 L13.8004395,3.4918457 Z"/>
  </g>
</svg>
