<svg xmlns="http://www.w3.org/2000/svg" width="26" height="32" viewBox="0 0 26 32">
  <defs>
    <linearGradient id="mpp-a" x1="0%" x2="0%" y1="100%" y2="0%">
      <stop offset="0%" stop-color="#79C74B"/>
      <stop offset="100%" stop-color="#55AF2A"/>
    </linearGradient>
  </defs>
  <g fill="none" fill-rule="evenodd">
    <path fill="url(#mpp-a)" d="M26,6.5 L26,29.25 C26,30.3269553 25.1269553,31.2 24.05,31.2 L1.95,31.2 C0.873044738,31.2 0,30.3269553 0,29.25 L0,1.95 C0,0.873044738 0.873044738,0 1.95,0 L19.5,0 L26,6.5 Z"/>
    <path fill="#93E66A" d="M26,6.5 L20.8,6.5 C20.0820298,6.5 19.5,5.91797017 19.5,5.2 L19.5,0 L26,6.5 Z"/>
    <path fill="#FFF" d="M12.34285,13.65 C12.7011171,13.65 12.99155,13.9404329 12.99155,14.2987 L12.99155,25.5125 L12.99155,25.5125 L11.69415,25.5125 L11.69415,14.2987 C11.69415,13.9404329 11.9845829,13.65 12.34285,13.65 Z M8.4474,20.8039 L8.4474,25.5125 L8.4474,25.5125 L7.15,25.5125 L7.15,20.8039 C7.15,20.4456329 7.44043288,20.1552 7.7987,20.1552 C8.15696712,20.1552 8.4474,20.4456329 8.4474,20.8039 Z M17.5474,18.2039 L17.5474,25.5125 L17.5474,25.5125 L16.25,25.5125 L16.25,18.2039 C16.25,17.8456329 16.5404329,17.5552 16.8987,17.5552 C17.2569671,17.5552 17.5474,17.8456329 17.5474,18.2039 Z" opacity=".6"/>
    <path fill="#FFF" fill-rule="nonzero" d="M3.71083984,4.06091309 L4.33227539,4.06091309 L4.33227539,4.59157715 C4.48123447,4.40770579 4.61622661,4.27387737 4.73725586,4.19008789 C4.94440208,4.04811127 5.1794746,3.97712402 5.44248047,3.97712402 C5.74039863,3.97712402 5.98012605,4.05043872 6.16166992,4.19707031 C6.26407929,4.28085979 6.35717732,4.40421468 6.4409668,4.56713867 C6.58061593,4.36697491 6.74470121,4.21859993 6.93322754,4.12200928 C7.12175387,4.02541863 7.33355188,3.97712402 7.56862793,3.97712402 C8.07136482,3.97712402 8.41350007,4.15866518 8.59504395,4.52175293 C8.69279834,4.71726172 8.7416748,4.98026365 8.7416748,5.3107666 L8.7416748,7.8 L8.08881836,7.8 L8.08881836,5.20253906 C8.08881836,4.9534981 8.02655905,4.78243048 7.90203857,4.68933105 C7.77751809,4.59623163 7.62565194,4.54968262 7.44643555,4.54968262 C7.19972207,4.54968262 6.9873422,4.63230712 6.80928955,4.79755859 C6.6312369,4.96281007 6.54221191,5.23861298 6.54221191,5.62497559 L6.54221191,7.8 L5.90332031,7.8 L5.90332031,5.35964355 C5.90332031,5.10594762 5.87306345,4.9209153 5.81254883,4.80454102 C5.71712192,4.6299796 5.53907194,4.5427002 5.27839355,4.5427002 C5.04099002,4.5427002 4.82511897,4.6346345 4.63077393,4.81850586 C4.43642888,5.00237722 4.33925781,5.33520267 4.33925781,5.81699219 L4.33925781,7.8 L3.71083984,7.8 L3.71083984,4.06091309 Z M11.244873,7.37756348 C11.5381362,7.37756348 11.7819367,7.25479045 11.9762817,7.00924072 C12.1706268,6.76369099 12.2677979,6.39653565 12.2677979,5.90776367 C12.2677979,5.60984552 12.22474,5.35382594 12.138623,5.13969727 C11.9756991,4.72773232 11.6777854,4.52175293 11.244873,4.52175293 C10.8096332,4.52175293 10.5117196,4.73936957 10.351123,5.17460938 C10.2650061,5.40735793 10.2219482,5.70294417 10.2219482,6.06137695 C10.2219482,6.34998517 10.2650061,6.59553121 10.351123,6.79802246 C10.514047,7.18438507 10.8119607,7.37756348 11.244873,7.37756348 Z M9.61796875,4.07836914 L10.2289307,4.07836914 L10.2289307,4.57412109 C10.3546149,4.40421465 10.4919345,4.27271368 10.6408936,4.17961426 C10.8526947,4.03996512 11.101732,3.9701416 11.3880127,3.9701416 C11.8116151,3.9701416 12.1712062,4.13248129 12.4667969,4.45716553 C12.7623875,4.78184977 12.9101807,5.24559432 12.9101807,5.84841309 C12.9101807,6.66303304 12.6972189,7.24489572 12.2712891,7.59401855 C12.0013007,7.81512969 11.6870949,7.92568359 11.3286621,7.92568359 C11.0470364,7.92568359 10.8108001,7.86400615 10.6199463,7.74064941 C10.508227,7.67082485 10.3837084,7.55096114 10.2463867,7.38105469 L10.2463867,9.29074707 L9.61796875,9.29074707 L9.61796875,4.07836914 Z M15.2213623,7.37756348 C15.5146255,7.37756348 15.7584259,7.25479045 15.952771,7.00924072 C16.147116,6.76369099 16.2442871,6.39653565 16.2442871,5.90776367 C16.2442871,5.60984552 16.2012293,5.35382594 16.1151123,5.13969727 C15.9521883,4.72773232 15.6542746,4.52175293 15.2213623,4.52175293 C14.7861225,4.52175293 14.4882088,4.73936957 14.3276123,5.17460938 C14.2414953,5.40735793 14.1984375,5.70294417 14.1984375,6.06137695 C14.1984375,6.34998517 14.2414953,6.59553121 14.3276123,6.79802246 C14.4905363,7.18438507 14.78845,7.37756348 15.2213623,7.37756348 Z M13.594458,4.07836914 L14.2054199,4.07836914 L14.2054199,4.57412109 C14.3311041,4.40421465 14.4684237,4.27271368 14.6173828,4.17961426 C14.829184,4.03996512 15.0782212,3.9701416 15.364502,3.9701416 C15.7881043,3.9701416 16.1476955,4.13248129 16.4432861,4.45716553 C16.7388768,4.78184977 16.8866699,5.24559432 16.8866699,5.84841309 C16.8866699,6.66303304 16.6737082,7.24489572 16.2477783,7.59401855 C15.97779,7.81512969 15.6635841,7.92568359 15.3051514,7.92568359 C15.0235256,7.92568359 14.7872894,7.86400615 14.5964355,7.74064941 C14.4847162,7.67082485 14.3601976,7.55096114 14.222876,7.38105469 L14.222876,9.29074707 L13.594458,9.29074707 L13.594458,4.07836914 Z"/>
  </g>
</svg>
