<svg xmlns="http://www.w3.org/2000/svg" width="26" height="32">
  <defs>
    <linearGradient id="a" x1="0%" x2="0%" y1="100%" y2="0%">
      <stop offset="0%" stop-color="#48D04F"/>
      <stop offset="100%" stop-color="#28BB2D"/>
    </linearGradient>
  </defs>
  <path fill-rule="evenodd" fill="url(#a)" d="M26 6v24a2 2 0 0 1-2 2H2a2 2 0 0 1-2-2V2a2 2 0 0 1 2-2h18l6 6z"/>
  <path fill-rule="evenodd" fill="#B0EA93" d="M26 6h-4a2 2 0 0 1-2-2V0l6 6z"/>
  <path fill-rule="evenodd" opacity=".6" fill="#FFF" d="M19.6 27H6.4a.4.4 0 0 1-.4-.4v-.2a.4.4 0 0 1 .4-.4h13.2a.4.4 0 0 1 .4.4v.2a.4.4 0 0 1-.4.4zM18 18a1 1 0 0 1 2 0v7h-2v-7zm-4.005-3.839c0-1.039.106-1.161.997-1.161s.998.122.998 1.161v10.833h-1.995V14.161zm-4.006 6.113c0-1.152.06-1.287.963-1.287s1.058.135 1.058 1.287v4.719H9.99l-.001-4.719zM6.01 23.287c0-1.145.059-1.28.95-1.28.892 0 1.045.135 1.045 1.28v1.706H6.01v-1.706z"/>
  <path fill-rule="evenodd" fill="#FFF" d="M18.57 9.156V6.17c0-.918-.291-1.305-.919-1.305-.382 0-.782.243-1.246.747v3.544h-.828V6.17c0-.918-.292-1.305-.919-1.305-.373 0-.792.243-1.247.747v3.544h-.828V4.272h.682l.073.71h.028c.427-.467.946-.836 1.537-.836.756 0 1.165.36 1.365.935.51-.548 1.028-.935 1.629-.935 1.019 0 1.501.665 1.501 1.916v3.094h-.828zm-8.41-.764h-.027c-.464.53-.956.881-1.638.881-1.037 0-1.501-.665-1.501-1.907V4.272h.828v2.995c0 .909.273 1.296.928 1.296.509 0 .864-.243 1.337-.828V4.272h.828v4.884h-.691l-.064-.764zM4.616 6.17c0-.918-.282-1.305-.937-1.305-.51 0-.855.252-1.356.747v3.544h-.828V4.272h.683l.072.701h.028c.473-.458.982-.827 1.656-.827 1.037 0 1.51.665 1.51 1.916v3.094h-.828V6.17z"/>
</svg>
