<svg xmlns="http://www.w3.org/2000/svg" width="26" height="32">
  <defs>
    <linearGradient id="a" x1="0%" x2="0%" y1="100%" y2="0%">
      <stop offset="0%" stop-color="#FF9A13"/>
      <stop offset="100%" stop-color="#FF7807"/>
    </linearGradient>
  </defs>
  <path fill-rule="evenodd" fill="url(#a)" d="M26 6v24a2 2 0 0 1-2 2H2a2 2 0 0 1-2-2V2a2 2 0 0 1 2-2h18l6 6z"/>
  <path fill-rule="evenodd" fill="#FDDAAF" d="M26 6h-4a2 2 0 0 1-2-2V0l6 6z"/>
  <path fill-rule="evenodd" opacity=".6" fill="#FFF" d="M20.6 27H6.4a.4.4 0 0 1-.4-.4v-.2a.4.4 0 0 1 .4-.4h14.2a.4.4 0 0 1 .4.4v.2a.4.4 0 0 1-.4.4zm-3.351-12.499a.782.782 0 0 1 .095 1.095l-2.473 2.978a.754.754 0 0 1-.713.255l2.644-3.185a.392.392 0 0 0-.047-.548l-2.968 3.574-1.768-1.499 3.957-4.766a1.145 1.145 0 0 1 1.625-.143c.489.414.552 1.149.143 1.643l-.495.596zm-6.044 7.354c-.41.494-3.611 3.536-4.099 3.122l-.033-.028c-.47-.398 1.941-4.085 2.336-4.56l2.363-2.921 1.768 1.5-2.335 2.887z"/>
  <path fill-rule="evenodd" fill="#FFF" d="M20.184 5.907h-3.33c.054 1.044.7 1.71 1.637 1.71.483 0 .874-.144 1.238-.387l.3.54c-.437.278-.964.503-1.638.503-1.31 0-2.365-.944-2.365-2.554 0-1.584 1.082-2.573 2.229-2.573 1.256 0 1.965.899 1.965 2.294 0 .18-.018.35-.036.467zm-1.92-2.105c-.701 0-1.319.558-1.42 1.521h2.648c0-.99-.455-1.521-1.228-1.521zm-5.516 3.752h.964c1.147 0 1.72.359 1.72 1.16 0 .909-.965 1.691-2.493 1.691-1.211 0-2.048-.467-2.048-1.313 0-.414.273-.81.737-1.107v-.036a.88.88 0 0 1-.455-.8c0-.405.301-.729.555-.909v-.036c-.327-.261-.646-.728-.646-1.313 0-1.071.856-1.745 1.857-1.745.273 0 .518.063.691.126h1.72v.629h-1.01c.236.225.4.585.4 1.008 0 1.043-.8 1.7-1.801 1.7-.246 0-.519-.063-.737-.171-.182.153-.319.315-.319.585 0 .315.2.531.865.531zm.191-1.503c.564 0 1.046-.449 1.046-1.16 0-.711-.464-1.143-1.046-1.143-.583 0-1.056.423-1.056 1.143 0 .711.482 1.16 1.056 1.16zm-1.32 2.933c0 .522.537.864 1.438.864.946 0 1.574-.495 1.574-1.008 0-.45-.355-.603-1.01-.603h-.855c-.182 0-.419-.027-.637-.081-.355.252-.51.54-.51.828zM8.942 7.572h-.028c-.473.386-1.028.701-1.637.701-.828 0-1.447-.503-1.447-1.385 0-1.062.937-1.592 3.039-1.826 0-.63-.209-1.233-1.019-1.233-.573 0-1.092.261-1.483.522l-.328-.567c.455-.287 1.156-.638 1.947-.638 1.201 0 1.711.8 1.711 2.006v3.004h-.682l-.073-.584zm-.073-1.97c-1.665.197-2.229.602-2.229 1.232 0 .558.382.783.873.783.482 0 .874-.225 1.356-.648V5.602zM2.67 8.273c-.446 0-.919-.207-1.365-.566l.018.854v1.655H.495V3.272h.683l.072.557h.028c.445-.359 1.001-.683 1.574-.683 1.274 0 1.965.989 1.965 2.492 0 1.673-1.01 2.635-2.147 2.635zm-.018-4.435c-.419 0-.847.234-1.329.675v2.564c.446.378.883.513 1.21.513.819 0 1.42-.729 1.42-1.943 0-1.08-.364-1.809-1.301-1.809z"/>
</svg>
