<svg xmlns="http://www.w3.org/2000/svg" width="26" height="32">
  <defs>
    <linearGradient id="a" x1="0%" x2="0%" y1="100%" y2="0%">
      <stop offset="0%" stop-color="#F45F5F"/>
      <stop offset="100%" stop-color="#EE3B3B"/>
    </linearGradient>
  </defs>
  <path fill-rule="evenodd" fill="url(#a)" d="M26 6v24a2 2 0 0 1-2 2H2a2 2 0 0 1-2-2V2a2 2 0 0 1 2-2h18l6 6z"/>
  <path fill-rule="evenodd" fill="#FF8276" d="M26 6h-4a2 2 0 0 1-2-2V0l6 6z"/>
  <path fill-rule="evenodd" opacity=".6" fill="#FFF" d="M19.733 23.689c-.087.313-.306.224-.48.403-.087-.09-.262.089-.437 0-.96.089-2.619-.538-3.885-1.254-1.746.224-3.624.895-5.326 1.254-1.485 2.821-2.532 3.762-3.493 3.896-.087-.09-.393 0-.48-.179l-.349-.134c-.219-.314-.35-.359-.219-.717.131-.627.961-1.657 2.27-2.374.132-.134.83-.447.83-.492l.393-.179c.349-.672.786-1.433 1.222-2.329l.044-.045 1.31-2.866.131-.269c-.568-2.239-.786-3.672-.568-4.881.175-.179.393-.627.917-.493l.218-.045c.393.09.655.269.786.627l.044.09c0 .179.043.09.043.313.131.807-.349 3.673-.349 3.628 0 .179-.044.179-.044.358.35 1.12 1.092 2.463 1.965 3.09.306.403.742.493 1.091.851.874-.269 1.659-.089 2.358-.224 1.048.135 1.615.135 1.964.493v-.045c.088.179.219.269.219.448 0 .313.087.94-.175 1.075zM7.727 24.987c-.887.911-1.6 1.65-1.763 2.225-.009.002-.018.012-.026.015v.044c.004-.018.02-.04.026-.059.517-.153 1.082-.952 2.156-2.538-.218.134-.262.313-.393.313zm4.017-11.509c-.087-.09-.131 1.165-.131 1.075 0 .537.175 1.478.262 2.015.218-.448.349-.851.349-1.612 0-.627-.131-1.612-.48-1.478zm1.877 8.464c-.698-.716-1.397-1.343-1.833-2.418-.219.716-.568 1.522-1.135 2.552-.262.403-.393.896-.655 1.165v.045c1.178-.493 2.444-.672 3.929-1.165-.044.045-.219-.179-.306-.179zm5.326.761c-.524 0-.655-.224-1.222-.089-.218-.135-.655 0-.961 0 .917.448 1.572.537 2.14.672.087-.09.48.089.48-.135v.045c.131-.134.131-.269-.437-.493z"/>
  <path fill-rule="evenodd" fill="#FFF" d="M16.003 2.661a1.415 1.415 0 0 0-.555-.126c-.473 0-.7.333-.7.963v.774h1.046v.665h-1.046v4.219h-.828V4.937h-.674v-.62l.674-.045v-.783c0-.99.455-1.61 1.437-1.61.301 0 .592.063.828.162l-.182.62zm-4.661 5.92h-.018c-.391.377-.91.692-1.501.692-1.238 0-2.039-.926-2.039-2.554 0-1.584 1.01-2.573 2.139-2.573.582 0 .955.216 1.392.575l-.046-.845v-1.88h.828v7.16h-.673l-.082-.575zm-.073-3.23c-.418-.369-.791-.513-1.201-.513-.801 0-1.428.756-1.428 1.872 0 1.178.491 1.88 1.365 1.88.454 0 .855-.225 1.264-.675V5.351zM4.67 9.273c-.446 0-.919-.207-1.365-.566l.018.854v1.655h-.828V4.272h.683l.072.557h.028c.445-.359 1.001-.683 1.574-.683 1.274 0 1.965.989 1.965 2.492 0 1.673-1.01 2.635-2.147 2.635zm-.018-4.435c-.419 0-.847.234-1.329.675v2.564c.446.378.883.513 1.21.513.819 0 1.42-.729 1.42-1.943 0-1.08-.364-1.809-1.301-1.809z"/>
</svg>
