<svg xmlns="http://www.w3.org/2000/svg" width="27" height="32" viewBox="0 0 27 32">
  <defs>
    <linearGradient id="ppt-a" x1="50%" x2="50%" y1="0%" y2="100%">
      <stop offset="0%" stop-color="#E86D36"/>
      <stop offset="100%" stop-color="#FA9B70"/>
    </linearGradient>
  </defs>
  <g fill="none" fill-rule="evenodd">
    <path fill="url(#ppt-a)" d="M1.34120457,0 L19.4395769,0 L19.4395769,0 L26.5085139,7.25527807 L26.5085139,30.400637 C26.5085139,31.1413638 25.9080362,31.7418415 25.1673093,31.7418415 L1.34120457,31.7418415 C0.600477741,31.7418415 -1.24155476e-15,31.1413638 0,30.400637 L0,1.34120457 C-3.12757479e-16,0.600477741 0.600477741,8.02203126e-16 1.34120457,0 Z"/>
    <rect width="7.069" height="1" x="15.905" y="10.73" fill="#FFF" opacity=".5"/>
    <rect width="7.069" height="1" x="15.905" y="14.306" fill="#FFF" opacity=".5"/>
    <rect width="7.069" height="1" x="15.905" y="17.883" fill="#FFF" opacity=".5"/>
    <rect width="7.069" height="1" x="15.905" y="21.459" fill="#FFF" opacity=".5"/>
    <path fill="#FFF" d="M19.4395769,0 L26.5085139,7.15309105 L20.7807814,7.15309105 C20.0400546,7.15309105 19.4395769,6.55261331 19.4395769,5.81188648 L19.4395769,0 L19.4395769,0 Z" opacity=".5"/>
    <rect width="13.254" height="13.412" y="9.836" fill="#E96123" rx=".447"/>
    <path fill="#FFF" fill-rule="nonzero" d="M3.74748336,12.9649775 C3.74748336,12.5946141 4.04772223,12.2943752 4.41808565,12.2943752 L7.93151567,12.2943752 C9.28951486,12.2943752 10.3903907,13.3952511 10.3903907,14.7532503 C10.3903907,16.1112495 9.28951486,17.2121253 7.93151567,17.2121253 L4.41808565,17.2121253 C4.04772223,17.2121253 3.74748336,16.9118865 3.74748336,16.5415231 L3.74748336,12.9649775 Z M5.08868794,15.8709208 L7.93151567,15.8709208 C8.54878803,15.8709208 9.04918614,15.3705227 9.04918614,14.7532503 C9.04918614,14.1359779 8.54878803,13.6355798 7.93151567,13.6355798 L5.08868794,13.6355798 L5.08868794,15.8709208 Z"/>
    <path fill="#FFF" fill-rule="nonzero" d="M3.74748336,12.9649775 L3.74748336,20.1180686 C3.74748336,20.488432 4.04772223,20.7886709 4.41808565,20.7886709 C4.78844907,20.7886709 5.08868794,20.488432 5.08868794,20.1180686 L5.08868794,12.9649775 C5.08868794,12.5946141 4.78844907,12.2943752 4.41808565,12.2943752 C4.04772223,12.2943752 3.74748336,12.5946141 3.74748336,12.9649775 Z"/>
  </g>
</svg>
