<svg xmlns="http://www.w3.org/2000/svg" width="26" height="32" viewBox="0 0 26 32">
  <defs>
    <linearGradient id="rp-a" x1="50%" x2="50%" y1="100%" y2="0%">
      <stop offset="0%" stop-color="#B859DA"/>
      <stop offset="100%" stop-color="#7E2AD9"/>
    </linearGradient>
  </defs>
  <g fill="none" fill-rule="evenodd">
    <path fill="url(#rp-a)" d="M26,6.5 L26,29.25 C26,30.3269553 25.1269553,31.2 24.05,31.2 L1.95,31.2 C0.873044738,31.2 0,30.3269553 0,29.25 L0,1.95 C0,0.873044738 0.873044738,0 1.95,0 L19.5,0 L26,6.5 Z"/>
    <g fill="#FFF" opacity=".6" transform="translate(6.5 13.65)">
      <polygon points="0 0 13 0 13 3.25 0 3.25"/>
      <polygon points="0 4.55 4.55 4.55 4.55 12.35 0 12.35"/>
      <polygon points="5.85 4.55 13 4.55 13 12.35 5.85 12.35"/>
    </g>
    <path fill="#CB74ED" d="M26,6.5 L20.8,6.5 C20.0820298,6.5 19.5,5.91797017 19.5,5.2 L19.5,0 L26,6.5 Z"/>
    <path fill="#FFF" fill-rule="nonzero" d="M3.7282959,4.06091309 L4.32529297,4.06091309 L4.32529297,4.70678711 C4.37417017,4.58110289 4.49403388,4.428073 4.6848877,4.24769287 C4.87574151,4.06731274 5.0956856,3.97712402 5.34472656,3.97712402 L5.48631444,3.98837347 C5.504417,3.99018372 5.52471777,3.99225259 5.5472168,3.99458008 L5.5472168,4.65791016 C5.50997703,4.6509277 5.47564713,4.6462728 5.44422607,4.64394531 C5.41280502,4.64161783 5.37847512,4.6404541 5.34123535,4.6404541 C5.02469731,4.6404541 4.78147871,4.74228007 4.61157227,4.94593506 C4.44166582,5.14959005 4.35671387,5.3840807 4.35671387,5.64941406 L4.35671387,7.8 L3.7282959,7.8 L3.7282959,4.06091309 Z M7.66987305,7.37756348 C7.96313623,7.37756348 8.20693669,7.25479045 8.40128174,7.00924072 C8.59562679,6.76369099 8.69279785,6.39653565 8.69279785,5.90776367 C8.69279785,5.60984552 8.64974001,5.35382594 8.56362305,5.13969727 C8.40069906,4.72773232 8.10278537,4.52175293 7.66987305,4.52175293 C7.23463324,4.52175293 6.93671955,4.73936957 6.77612305,5.17460938 C6.69000608,5.40735793 6.64694824,5.70294417 6.64694824,6.06137695 C6.64694824,6.34998517 6.69000608,6.59553121 6.77612305,6.79802246 C6.93904704,7.18438507 7.23696073,7.37756348 7.66987305,7.37756348 Z M6.04296875,4.07836914 L6.65393066,4.07836914 L6.65393066,4.57412109 C6.77961489,4.40421465 6.91693448,4.27271368 7.06589355,4.17961426 C7.27769474,4.03996512 7.52673197,3.9701416 7.8130127,3.9701416 C8.23661507,3.9701416 8.5962062,4.13248129 8.89179687,4.45716553 C9.18738755,4.78184977 9.33518066,5.24559432 9.33518066,5.84841309 C9.33518066,6.66303304 9.12221893,7.24489572 8.69628906,7.59401855 C8.42630073,7.81512969 8.11209489,7.92568359 7.75366211,7.92568359 C7.47203635,7.92568359 7.23580011,7.86400615 7.04494629,7.74064941 C6.93322698,7.67082485 6.80870837,7.55096114 6.67138672,7.38105469 L6.67138672,9.29074707 L6.04296875,9.29074707 L6.04296875,4.07836914 Z"/>
  </g>
</svg>
