<svg xmlns="http://www.w3.org/2000/svg" width="26" height="32" viewBox="0 0 26 32">
  <defs>
    <linearGradient id="rtf-a" x1="0%" x2="0%" y1="100%" y2="0%">
      <stop offset="0%" stop-color="#98BBCD"/>
      <stop offset="100%" stop-color="#75A0B7"/>
    </linearGradient>
  </defs>
  <g fill="none" fill-rule="evenodd">
    <path fill="url(#rtf-a)" d="M26,6.5 L26,29.25 C26,30.3269553 25.1269553,31.2 24.05,31.2 L1.95,31.2 C0.873044738,31.2 0,30.3269553 0,29.25 L0,1.95 C0,0.873044738 0.873044738,0 1.95,0 L19.5,0 L26,6.5 Z"/>
    <path fill="#B6E7FF" d="M26,6.5 L20.8,6.5 C20.0820298,6.5 19.5,5.91797017 19.5,5.2 L19.5,0 L26,6.5 Z"/>
    <path fill="#FFF" d="M19.13665,24.70195 L6.8744,24.70195 C6.669,24.70195 6.5026,24.5557 6.5026,24.375 L6.5026,23.7224 C6.5026,23.54235 6.669,23.3961 6.8744,23.3961 L19.13665,23.3961 C19.34205,23.3961 19.5091,23.54235 19.5091,23.7224 L19.5091,24.375 C19.5091,24.5557 19.34205,24.70195 19.13665,24.70195 Z M19.149,20.1526 L6.85945,20.1526 C6.66055,20.1526 6.5,20.007 6.5,19.8263 L6.5,19.1737 C6.5,18.99365 6.66055,18.8474 6.85945,18.8474 L19.149,18.8474 C19.3479,18.8474 19.50845,18.99365 19.50845,19.1737 L19.50845,19.8263 C19.50845,20.007 19.3479,20.1526 19.149,20.1526 Z M19.149,15.6039 L6.85945,15.6039 C6.66055,15.6039 6.5,15.4583 6.5,15.2776 L6.5,14.625 C6.5,14.44495 6.66055,14.2987 6.85945,14.2987 L19.149,14.2987 C19.3479,14.2987 19.50845,14.44495 19.50845,14.625 L19.50845,15.2776 C19.50845,15.4583 19.3479,15.6039 19.149,15.6039 Z" opacity=".6"/>
    <path fill="#FFF" fill-rule="nonzero" d="M3.7282959,4.06091309 L4.32529297,4.06091309 L4.32529297,4.70678711 C4.37417017,4.58110289 4.49403388,4.428073 4.6848877,4.24769287 C4.87574151,4.06731274 5.0956856,3.97712402 5.34472656,3.97712402 L5.48631444,3.98837347 C5.504417,3.99018372 5.52471777,3.99225259 5.5472168,3.99458008 L5.5472168,4.65791016 C5.50997703,4.6509277 5.47564713,4.6462728 5.44422607,4.64394531 C5.41280502,4.64161783 5.37847512,4.6404541 5.34123535,4.6404541 C5.02469731,4.6404541 4.78147871,4.74228007 4.61157227,4.94593506 C4.44166582,5.14959005 4.35671387,5.3840807 4.35671387,5.64941406 L4.35671387,7.8 L3.7282959,7.8 L3.7282959,4.06091309 Z M6.2175293,3.01704102 L6.85292969,3.01704102 L6.85292969,4.06091309 L7.44992676,4.06091309 L7.44992676,4.57412109 L6.85292969,4.57412109 L6.85292969,7.01447754 C6.85292969,7.14481673 6.89715125,7.23209613 6.9855957,7.27631836 C7.0344729,7.3019207 7.11593367,7.31472168 7.22998047,7.31472168 L7.32773438,7.31297607 L7.32773438,7.31297607 C7.36264666,7.31181233 7.40337705,7.30890302 7.44992676,7.30424805 L7.44992676,7.8 C7.3777747,7.82094737 7.30271442,7.8360758 7.22474365,7.84538574 C7.14677288,7.85469568 7.0624028,7.85935059 6.97163086,7.85935059 C6.67836767,7.85935059 6.47937064,7.7842903 6.37463379,7.63416748 C6.26989694,7.48404466 6.2175293,7.28912066 6.2175293,7.04938965 L6.2175293,4.57412109 L5.71130371,4.57412109 L5.71130371,4.06091309 L6.2175293,4.06091309 L6.2175293,3.01704102 Z M8.23544922,3.4918457 C8.24475916,3.23116732 8.29014445,3.04031636 8.37160645,2.91928711 C8.51823804,2.70515843 8.8010233,2.5980957 9.2199707,2.5980957 L9.28019409,2.5989685 L9.28019409,2.5989685 L9.34216309,2.60158691 C9.38405783,2.6039144 9.43177057,2.60740558 9.48530273,2.61206055 L9.48530273,3.18461914 L9.34390869,3.17589111 L9.34390869,3.17589111 L9.26186523,3.17414551 L9.26186523,3.17414551 C9.07101142,3.17414551 8.95696633,3.22360383 8.91972656,3.32252197 C8.88248679,3.42144011 8.86386719,3.67338665 8.86386719,4.07836914 L9.48530273,4.07836914 L9.48530273,4.57412109 L8.85688477,4.57412109 L8.85688477,7.8 L8.23544922,7.8 L8.23544922,4.57412109 L7.71525879,4.57412109 L7.71525879,4.07836914 L8.23544922,4.07836914 L8.23544922,3.4918457 Z"/>
  </g>
</svg>
