<svg xmlns="http://www.w3.org/2000/svg" width="26" height="32" viewBox="0 0 26 32">
  <defs>
    <linearGradient id="sketch-a" x1="50%" x2="50%" y1="100%" y2="0%">
      <stop offset="0%" stop-color="#FCC11A"/>
      <stop offset="100%" stop-color="#FAA70B"/>
    </linearGradient>
  </defs>
  <g fill="none" fill-rule="evenodd">
    <path fill="url(#sketch-a)" d="M26,6.5 L26,29.25 C26,30.3269553 25.1269553,31.2 24.05,31.2 L1.95,31.2 C0.873044738,31.2 0,30.3269553 0,29.25 L0,1.95 C0,0.873044738 0.873044738,0 1.95,0 L19.5,0 L26,6.5 Z"/>
    <path fill="#FDD47A" d="M26,6.5 L20.8,6.5 C20.0820298,6.5 19.5,5.91797017 19.5,5.2 L19.5,0 L26,6.5 Z"/>
    <g fill="#FFF" transform="translate(5.85 13.65)">
      <path d="M9.16921481,4.23703704 L6.99111111,11.8637037 L4.81221481,4.23703704 L9.16921481,4.23703704 Z" opacity=".7"/>
      <path d="M4.812 4.23703704L6.99111111 11.8637037 0 4.23703704 4.812 4.23703704zM13.9822222 4.23703704L6.99111111 11.8637037 9.17011111 4.23703704 13.9822222 4.23703704z" opacity=".5"/>
      <path d="M10.3807407 0L13.9822222 4.23703704 9.16988704 4.237 10.3807407 0zM3.60148148 0L4.812 4.237-2.84217094e-14 4.23703704 3.60148148 0z" opacity=".6"/>
      <path d="M10.3807407,0 L9.16948148,4.237 L4.81148148,4.237 L3.60148148,0 L10.3807407,0 Z" opacity=".9"/>
    </g>
    <path fill="#FFF" fill-rule="nonzero" d="M5.00175,4.00335 C4.58705,4.00335 4.24385,4.0963 3.98645,4.2822 C3.7076,4.4681 3.57175,4.7112 3.57175,5.0258 C3.57175,5.3404 3.7076,5.57635 3.9936,5.74795 C4.14613333,5.84963889 4.40600494,5.9456784 4.76819314,6.04109019 L5.15552894,6.14040556 C5.41971605,6.2108463 5.60076111,6.26831111 5.6953,6.3128 C5.9241,6.4272 6.04565,6.5845 6.04565,6.79185 C6.04565,7.20655 5.7096,7.42105 5.0518,7.42105 C4.7372,7.42105 4.50125,7.36385 4.34395,7.24945 C4.18665,7.12075 4.0794,6.9134 4.0365,6.62025 L3.4788,6.62025 C3.5646,7.4711 4.0937,7.9001 5.0661,7.9001 C6.11,7.9001 6.63195,7.514 6.63195,6.7561 C6.63195,6.43435 6.4818,6.1841 6.18865,5.9982 C5.9956,5.87665 5.681,5.76225 5.2377,5.655 L4.86806455,5.55105967 C4.68994297,5.49792344 4.55755625,5.45211875 4.47265,5.4119 C4.25815,5.30465 4.15805,5.1688 4.15805,5.0115 C4.15805,4.84705 4.2367,4.71835 4.394,4.6254 C4.537,4.5253 4.7372,4.4824 4.9946,4.4824 C5.28775,4.4824 5.51655,4.5396 5.67385,4.654 C5.81685,4.7541 5.9098,4.9257 5.95985,5.1545 L6.51755,5.1545 C6.41745,4.3823 5.91695,4.00335 5.00175,4.00335 Z M7.30405,2.5948 L7.30405,7.8 L7.87605,7.8 L7.87605,6.49155 L8.46235,5.96245 L9.90665,7.8 L10.6431,7.8 L8.8556,5.59065 L10.4858,4.10345 L9.7279,4.10345 L7.87605,5.81945 L7.87605,2.5948 L7.30405,2.5948 Z M12.60935,4.00335 C12.0731,4.00335 11.65125,4.1964 11.33665,4.5825 C11.02205,4.94715 10.8719,5.40475 10.8719,5.94815 C10.8719,6.54875 11.0292,7.02065 11.3581,7.37815 C11.6727,7.72135 12.1017,7.9001 12.6308,7.9001 C13.10985,7.9001 13.5031,7.7571 13.81055,7.4854 C14.0608,7.2566 14.22525,6.9706 14.31105,6.6131 L13.73905,6.6131 C13.6461,6.8705 13.52455,7.06355 13.36725,7.19225 C13.18135,7.3424 12.9311,7.42105 12.6308,7.42105 C12.28045,7.42105 12.0016,7.30665 11.8014,7.07785 C11.6012,6.84905 11.49395,6.5273 11.46535,6.1126 L14.38255,6.1126 C14.36825,5.4691 14.22525,4.96145 13.95355,4.60395 C13.65325,4.20355 13.2028,4.00335 12.60935,4.00335 Z M12.62365,4.4824 C13.32435,4.4824 13.7176,4.87565 13.7891,5.6693 L11.47965,5.6693 C11.5154,5.30465 11.6298,5.01865 11.83,4.80415 C12.0302,4.58965 12.29475,4.4824 12.62365,4.4824 Z M16.04135,2.9094 L16.04135,4.10345 L16.95655,4.10345 L16.95655,4.5825 L16.04135,4.5825 L16.04135,6.93485 C16.04135,7.0707 16.0628,7.1708 16.12,7.228 C16.17005,7.2852 16.263,7.32095 16.3917,7.32095 L16.8636,7.32095 L16.8636,7.8 L16.3059,7.8 C16.0056,7.8 15.78395,7.72135 15.65525,7.56405 C15.5337,7.42105 15.4765,7.2137 15.4765,6.93485 L15.4765,4.5825 L14.7329,4.5825 L14.7329,4.10345 L15.4765,4.10345 L15.4765,3.14535 L16.04135,2.9094 Z"/>
  </g>
</svg>
