<svg xmlns="http://www.w3.org/2000/svg" width="26" height="32">
  <defs>
    <linearGradient id="a" x1="0%" x2="0%" y1="100%" y2="0%">
      <stop offset="0%" stop-color="#98BCCD"/>
      <stop offset="100%" stop-color="#76A0B7"/>
    </linearGradient>
  </defs>
  <path fill-rule="evenodd" fill="url(#a)" d="M26 6v24a2 2 0 0 1-2 2H2a2 2 0 0 1-2-2V2a2 2 0 0 1 2-2h18l6 6z"/>
  <path fill-rule="evenodd" fill="#B5E6FF" d="M26 6h-4a2 2 0 0 1-2-2V0l6 6z"/>
  <path fill-rule="evenodd" opacity=".6" fill="#FFF" d="M19.612 20.004H6.396c-.218 0-.394-.226-.394-.504v-.008c0-.278.176-.504.394-.504h13.216c.218 0 .395.226.395.504v.008c0 .278-.177.504-.395.504zm0-5.008H6.396c-.218 0-.394-.225-.394-.503v-.008c0-.279.176-.504.394-.504h13.216c.218 0 .395.225.395.504v.008c0 .278-.177.503-.395.503zm-13.234 9h13.238c.216 0 .391.225.391.504v.008c0 .278-.175.504-.391.504H6.378c-.216 0-.391-.226-.391-.504V24.5c0-.279.175-.504.391-.504z"/>
  <path fill-rule="evenodd" fill="#FFF" d="M12.261 6.663c0 .603.191.945.764.945.173 0 .401-.063.564-.126l.164.611c-.282.09-.609.18-.91.18-1.055 0-1.41-.647-1.41-1.628V3.937h-.737v-.62l.773-.045.1-1.368h.692v1.368h1.338v.665h-1.338v2.726zM9.83 3.892c-.409 0-.919.288-1.247 1.125v3.139h-.828V3.272h.683l.073.89h.027c.346-.62.846-1.016 1.401-1.016.219 0 .373.027.528.108l-.155.719a1.18 1.18 0 0 0-.482-.081zM5.078 5.341c.719.27 1.511.557 1.511 1.484 0 .792-.637 1.448-1.802 1.448-.7 0-1.374-.288-1.847-.674l.41-.54c.427.342.873.576 1.464.576.656 0 .974-.342.974-.765 0-.495-.582-.72-1.128-.927-.692-.251-1.474-.584-1.474-1.412 0-.774.628-1.385 1.701-1.385.61 0 1.147.252 1.538.548l-.4.531c-.346-.252-.692-.432-1.138-.432-.618 0-.901.324-.901.702 0 .468.537.639 1.092.846z"/>
</svg>
