<svg xmlns="http://www.w3.org/2000/svg" width="26" height="32">
  <defs>
    <linearGradient id="a" x1="0%" x2="0%" y1="100%" y2="0%">
      <stop offset="0%" stop-color="#98BCCD"/>
      <stop offset="100%" stop-color="#76A0B7"/>
    </linearGradient>
  </defs>
  <path fill-rule="evenodd" fill="url(#a)" d="M26 6v24a2 2 0 0 1-2 2H2a2 2 0 0 1-2-2V2a2 2 0 0 1 2-2h18l6 6z"/>
  <path fill-rule="evenodd" fill="#B5E6FF" d="M26 6h-4a2 2 0 0 1-2-2V0l6 6z"/>
  <path fill-rule="evenodd" opacity=".6" fill="#FFF" d="M19.612 20.004H6.396c-.218 0-.394-.226-.394-.504v-.008c0-.278.176-.504.394-.504h13.216c.218 0 .395.226.395.504v.008c0 .278-.177.504-.395.504zm0-5.008H6.396c-.218 0-.394-.225-.394-.503v-.008c0-.279.176-.504.394-.504h13.216c.218 0 .395.225.395.504v.008c0 .278-.177.503-.395.503zm-13.234 9h13.238c.216 0 .391.225.391.504v.008c0 .278-.175.504-.391.504H6.378c-.216 0-.391-.226-.391-.504V24.5c0-.279.175-.504.391-.504z"/>
  <path fill-rule="evenodd" fill="#FFF" d="M14.891 8.156l-.073-.584h-.027c-.473.386-1.028.701-1.638.701-.828 0-1.447-.503-1.447-1.385 0-1.062.938-1.592 3.039-1.826 0-.63-.209-1.233-1.019-1.233-.573 0-1.092.261-1.483.522l-.327-.567c.455-.287 1.155-.638 1.947-.638 1.201 0 1.71.8 1.71 2.006v3.004h-.682zm-.146-2.554c-1.665.197-2.229.602-2.229 1.232 0 .558.382.783.874.783.482 0 .873-.225 1.355-.648V5.602zm-5.406-.261c.718.27 1.51.557 1.51 1.484 0 .792-.637 1.448-1.802 1.448-.7 0-1.373-.288-1.847-.674l.41-.54c.427.342.873.576 1.465.576.655 0 .973-.342.973-.765 0-.495-.582-.72-1.128-.927-.691-.251-1.474-.584-1.474-1.412 0-.774.628-1.385 1.702-1.385.609 0 1.146.252 1.537.548l-.4.531c-.346-.252-.692-.432-1.137-.432-.619 0-.901.324-.901.702 0 .468.537.639 1.092.846zm-4.261 0c.719.27 1.511.557 1.511 1.484 0 .792-.637 1.448-1.802 1.448-.7 0-1.374-.288-1.847-.674l.41-.54c.427.342.873.576 1.464.576.656 0 .974-.342.974-.765 0-.495-.582-.72-1.128-.927-.692-.251-1.474-.584-1.474-1.412 0-.774.628-1.385 1.701-1.385.61 0 1.147.252 1.538.548l-.4.531c-.346-.252-.692-.432-1.138-.432-.618 0-.901.324-.901.702 0 .468.537.639 1.092.846z"/>
</svg>
