<svg xmlns="http://www.w3.org/2000/svg" width="26" height="32">
  <defs>
    <linearGradient id="a" x1="0%" x2="0%" y1="100%" y2="0%">
      <stop offset="0%" stop-color="#3DDCC8"/>
      <stop offset="100%" stop-color="#1FCCB0"/>
    </linearGradient>
  </defs>
  <path fill-rule="evenodd" fill="url(#a)" d="M26 6v24a2 2 0 0 1-2 2H2a2 2 0 0 1-2-2V2a2 2 0 0 1 2-2h18l6 6z"/>
  <path fill-rule="evenodd" fill="#7EF7D6" d="M26 6h-4a2 2 0 0 1-2-2V0l6 6z"/>
  <path fill-rule="evenodd" opacity=".6" fill="#FFF" d="M12.989 23.645C11.676 22.366 9.348 19.9 9.348 19.9c-.549-.533-.39-1.156 0-1.536.391-.381 1.027-.149 1.577.384l1.578 1.537-.029-5.936c0-.753.236-1.364 1.014-1.364.777 0 1.014.611 1.014 1.364l-.028 5.936 1.577-1.537c.55-.533 1.186-.765 1.577-.384.391.38.55 1.003 0 1.536 0 0-2.328 2.466-3.64 3.745-.471.458-.492.494-.999 0z"/>
  <path fill-rule="evenodd" fill="#FFF" d="M9.095 7.663c0 .603.191.945.764.945.173 0 .4-.063.564-.126l.164.611c-.282.09-.61.18-.91.18-1.056 0-1.41-.647-1.41-1.628V4.937H7.53v-.62l.773-.045.1-1.368h.692v1.368h1.337v.665H9.095v2.726zM4.67 9.273c-.455 0-.974-.225-1.411-.62h-.027l-.073.503h-.664v-7.16h.828v1.961l-.027.881c.446-.386 1.001-.692 1.547-.692 1.283 0 1.974.989 1.974 2.483 0 1.682-1.01 2.644-2.147 2.644zm-.018-4.435c-.419 0-.856.234-1.329.675v2.564c.437.378.883.513 1.21.513.819 0 1.42-.729 1.42-1.943 0-1.08-.364-1.809-1.301-1.809z"/>
</svg>
