<svg xmlns="http://www.w3.org/2000/svg" width="26" height="32">
  <defs>
    <linearGradient id="a" x1="0%" x2="0%" y1="100%" y2="0%">
      <stop offset="0%" stop-color="#98BCCD"/>
      <stop offset="100%" stop-color="#76A0B7"/>
    </linearGradient>
  </defs>
  <path fill-rule="evenodd" fill="url(#a)" d="M26 6v24a2 2 0 0 1-2 2H2a2 2 0 0 1-2-2V2a2 2 0 0 1 2-2h18l6 6z"/>
  <path fill-rule="evenodd" fill="#B5E6FF" d="M26 6h-4a2 2 0 0 1-2-2V0l6 6z"/>
  <path fill-rule="evenodd" opacity=".6" fill="#FFF" d="M19.612 20.018h-4.216c-.218 0-.394-.225-.394-.502v-.008c0-.278.176-.503.394-.503h4.216c.218 0 .395.225.395.503v.008c0 .277-.177.502-.395.502zm0-4.993h-4.216c-.218 0-.394-.225-.394-.503v-.008c0-.277.176-.502.394-.502h4.216c.218 0 .395.225.395.502v.008c0 .278-.177.503-.395.503zm.395 9.476v.008c0 .278-.175.503-.391.503H6.378c-.216 0-.391-.225-.391-.503v-.008c0-.277.175-.502.391-.502h13.238c.216 0 .391.225.391.502z"/>
  <path fill-rule="evenodd" fill="#FFF" d="M9.103 13.859a10.11 10.11 0 0 0-.285-.332c-.128-.144-.25-.222-.365-.232a.505.505 0 0 0-.349.112c-.139.096-.211.206-.216.332-.006.125.069.273.224.444.059.058.119.124.181.196.061.072.119.142.172.212H5.482c-.176 0-.294.041-.353.124-.059.082-.088.201-.088.356 0 .149.029.265.088.348.059.082.177.124.353.124h.866c.096.325.2.629.313.912.112.282.236.55.373.804.136.253.288.494.457.724.168.229.354.453.557.672-.412.33-.833.598-1.263.804-.43.205-.897.388-1.399.548-.236.064-.38.149-.433.256-.054.106-.054.242 0 .408.026.08.056.145.088.196.032.05.075.086.128.108a.448.448 0 0 0 .205.02c.083-.008.185-.031.308-.068.262-.086.531-.187.806-.304a11.543 11.543 0 0 0 1.58-.824c.249-.155.477-.312.686-.472.39.325.852.626 1.387.904a9.762 9.762 0 0 0 1.724.688c.369.122.602.034.698-.264.059-.176.056-.315-.008-.416-.064-.102-.182-.182-.353-.24a8.459 8.459 0 0 1-2.694-1.352c.384-.416.712-.874.982-1.372.27-.499.49-1.076.661-1.732h.915c.171 0 .288-.042.353-.124a.558.558 0 0 0 .096-.348c0-.155-.032-.274-.096-.356-.065-.083-.182-.124-.353-.124h-2.51a.914.914 0 0 0-.169-.368 9.65 9.65 0 0 0-.284-.364zm1.046 1.684a6.12 6.12 0 0 1-.557 1.368c-.228.4-.501.768-.822 1.104a5.816 5.816 0 0 1-.858-1.104 6.04 6.04 0 0 1-.586-1.368h2.823zM12.434 7.663c0 .603.191.945.764.945.173 0 .401-.063.565-.126l.163.611c-.282.09-.609.18-.91.18-1.055 0-1.41-.647-1.41-1.628V4.937h-.737v-.62l.773-.045.101-1.368h.691v1.368h1.338v.665h-1.338v2.726zM9.575 9.156l-.728-1.142a14.042 14.042 0 0 0-.528-.873h-.045c-.173.279-.337.576-.51.873L7.1 9.156h-.874l1.629-2.545-1.501-2.339h.892l.664 1.079c.154.27.327.54.491.81h.037c.154-.27.3-.54.445-.81l.61-1.079h.864l-1.501 2.42 1.629 2.464h-.91zm-4.342-.548c.173 0 .4-.063.564-.126l.164.611c-.282.09-.61.18-.91.18-1.055 0-1.41-.647-1.41-1.628V4.937h-.737v-.62l.773-.045.1-1.368h.692v1.368h1.337v.665H4.469v2.726c0 .603.191.945.764.945z"/>
</svg>
