<svg xmlns="http://www.w3.org/2000/svg" width="26" height="32">
  <defs>
    <linearGradient id="a" x1="0%" x2="0%" y1="100%" y2="0%">
      <stop offset="0%" stop-color="#28B1FB"/>
      <stop offset="100%" stop-color="#1292F9"/>
    </linearGradient>
  </defs>
  <path fill-rule="evenodd" fill="url(#a)" d="M26 6v24a2 2 0 0 1-2 2H2a2 2 0 0 1-2-2V2a2 2 0 0 1 2-2h18l6 6z"/>
  <path fill-rule="evenodd" fill="#B1DAFD" d="M26 6h-4a2 2 0 0 1-2-2V0l6 6z"/>
  <path fill-rule="evenodd" opacity=".6" fill="#FFF" d="M13.5 21.397l5.138 5.332c.559.321.559.321 1.124.011.195-.256.195-.256.238-.577v-9.356a.8.8 0 0 0-.793-.807.8.8 0 0 0-.792.807v7.386l-4.347-4.51a.802.802 0 0 0-1.148.012l-4.335 4.498v-7.386A.8.8 0 0 0 7.793 16a.8.8 0 0 0-.793.807v9.356c.178.627.178.627.795.808.315-.043.315-.043.567-.242l5.138-5.332z"/>
  <path fill-rule="evenodd" fill="#FFF" d="M16.315 4.793c-.618 0-.9.324-.9.702 0 .468.537.639 1.092.846.718.27 1.51.557 1.51 1.484 0 .792-.637 1.448-1.802 1.448-.7 0-1.374-.288-1.847-.674l.41-.54c.427.342.873.576 1.465.576.655 0 .973-.342.973-.765 0-.495-.582-.72-1.128-.927-.692-.251-1.474-.584-1.474-1.412 0-.774.628-1.385 1.701-1.385.61 0 1.147.252 1.538.548l-.4.531c-.346-.252-.692-.432-1.138-.432zm-4.62 4.48c-.445 0-.919-.207-1.364-.566l.018.854v1.655h-.828V4.272h.682l.073.557h.027c.446-.359 1.001-.683 1.574-.683 1.274 0 1.966.989 1.966 2.492 0 1.673-1.01 2.635-2.148 2.635zm-.018-4.435c-.418 0-.846.234-1.328.675v2.564c.446.378.882.513 1.21.513.819 0 1.419-.729 1.419-1.943 0-1.08-.364-1.809-1.301-1.809zM6.38 9.156l-.718-2.635c-.128-.459-.219-.909-.337-1.404h-.046c-.109.495-.209.954-.336 1.422l-.692 2.617h-.973L1.904 4.272h.846l.737 2.824c.1.468.2.909.291 1.368h.046c.109-.459.209-.909.336-1.368l.765-2.824h.809l.774 2.824c.118.468.227.909.346 1.368h.036c.109-.459.2-.9.309-1.368l.728-2.824h.783L7.381 9.156H6.38z"/>
</svg>
