<svg xmlns="http://www.w3.org/2000/svg" width="27" height="32" viewBox="0 0 27 32">
  <defs>
    <linearGradient id="xls-a" x1="50%" x2="50%" y1="0%" y2="100%">
      <stop offset="0%" stop-color="#3BA065"/>
      <stop offset="100%" stop-color="#5AC486"/>
    </linearGradient>
  </defs>
  <g fill="none" fill-rule="evenodd">
    <path fill="url(#xls-a)" d="M1.34120457,0 L19.4395769,0 L19.4395769,0 L26.5085139,7.25527807 L26.5085139,30.400637 C26.5085139,31.1413638 25.9080362,31.7418415 25.1673093,31.7418415 L1.34120457,31.7418415 C0.600477741,31.7418415 -1.24155476e-15,31.1413638 0,30.400637 L0,1.34120457 C-3.12757479e-16,0.600477741 0.600477741,8.02203126e-16 1.34120457,0 Z"/>
    <rect width="7.069" height="1" x="15.905" y="10.73" fill="#FFF" opacity=".5"/>
    <rect width="7.069" height="1" x="15.905" y="14.306" fill="#FFF" opacity=".5"/>
    <rect width="7.069" height="1" x="15.905" y="17.883" fill="#FFF" opacity=".5"/>
    <rect width="7.069" height="1" x="15.905" y="21.459" fill="#FFF" opacity=".5"/>
    <path fill="#FFF" d="M19.4395769,0 L26.5085139,7.15309105 L20.7807814,7.15309105 C20.0400546,7.15309105 19.4395769,6.55261331 19.4395769,5.81188648 L19.4395769,0 L19.4395769,0 Z" opacity=".5"/>
    <rect width="13.254" height="13.412" y="9.836" fill="#30955A" rx=".447"/>
    <path fill="#FFF" fill-rule="nonzero" d="M8.73922488,12.565665 L3.4375221,19.7187561 C3.21698788,20.0163022 3.2794184,20.4362894 3.57696456,20.6568236 C3.87451073,20.8773578 4.29449786,20.8149273 4.51503207,20.5173811 L9.81673485,13.3642901 C10.0372691,13.0667439 9.97483855,12.6467568 9.67729239,12.4262225 C9.37974622,12.2056883 8.95975909,12.2681188 8.73922488,12.565665 Z"/>
    <path fill="#FFF" fill-rule="nonzero" d="M8.73922488,12.565665 L3.4375221,19.7187561 C3.21698788,20.0163022 3.2794184,20.4362894 3.57696456,20.6568236 C3.87451073,20.8773578 4.29449786,20.8149273 4.51503207,20.5173811 L9.81673485,13.3642901 C10.0372691,13.0667439 9.97483855,12.6467568 9.67729239,12.4262225 C9.37974622,12.2056883 8.95975909,12.2681188 8.73922488,12.565665 Z" transform="matrix(-1 0 0 1 13.254 0)"/>
  </g>
</svg>
