<svg xmlns="http://www.w3.org/2000/svg" width="27" height="32" viewBox="0 0 27 32">
  <defs>
    <linearGradient id="xmind-a" x1="50%" x2="50%" y1="0%" y2="100%">
      <stop offset="0%" stop-color="#F3302E"/>
      <stop offset="100%" stop-color="#EB5B5C"/>
    </linearGradient>
  </defs>
  <g fill="none" fill-rule="evenodd">
    <path fill="url(#xmind-a)" d="M1.34120457,0 L19.4395769,0 L19.4395769,0 L26.5085139,7.25527807 L26.5085139,30.400637 C26.5085139,31.1413638 25.9080362,31.7418415 25.1673093,31.7418415 L1.34120457,31.7418415 C0.600477741,31.7418415 -1.24155476e-15,31.1413638 0,30.400637 L0,1.34120457 C-3.12757479e-16,0.600477741 0.600477741,8.02203126e-16 1.34120457,0 Z"/>
    <path fill="#FFF" fill-rule="nonzero" d="M5.88836144,22.8233235 L6.87012319,24.1269743 L5.77033544,25.5969345 L6.27999317,25.5969345 L7.11154001,24.4434986 L7.93772203,25.5969345 L8.44737976,25.5969345 L7.34759201,24.1269743 L8.32935376,22.8233235 L7.82506084,22.8233235 L7.11154001,23.8104501 L6.39265436,22.8233235 L5.88836144,22.8233235 Z M10.0192715,22.748216 C9.70811206,22.748216 9.44523596,22.8930661 9.23600805,23.193496 L9.23600805,22.8233235 L8.80682259,22.8233235 L8.80682259,25.5969345 L9.23600805,25.5969345 L9.23600805,23.9070168 C9.23600805,23.6870592 9.30038587,23.4992906 9.42914151,23.3490757 C9.55789715,23.1881311 9.7188417,23.1130237 9.91733997,23.1130237 C10.3411606,23.1130237 10.5557534,23.3544405 10.5557534,23.8480038 L10.5557534,25.5969345 L10.9849388,25.5969345 L10.9849388,23.8587334 C10.9849388,23.6334111 11.0439518,23.456372 11.1727075,23.3168868 C11.2907335,23.1774015 11.4463132,23.1130237 11.628717,23.1130237 C11.864769,23.1130237 12.0364432,23.1720367 12.1437396,23.3007923 C12.2456711,23.4188183 12.2993193,23.6012221 12.2993193,23.8480038 L12.2993193,25.5969345 L12.7285048,25.5969345 L12.7285048,23.7782611 C12.7285048,23.4617369 12.6373028,23.2095904 12.4656287,23.0218218 C12.2832248,22.8394179 12.0525377,22.748216 11.7628375,22.748216 C11.5938457,22.748216 11.4494985,22.7810755 11.326202,22.8467946 L11.274639,22.8769717 C11.1244241,22.9574439 10.9956685,23.0915644 10.8883721,23.2739682 C10.7327924,22.9198902 10.4430922,22.748216 10.0192715,22.748216 Z M13.7478202,21.7771839 C13.6566183,21.7771839 13.5815109,21.804008 13.517133,21.8683858 C13.4527552,21.922034 13.4259311,21.9971415 13.4259311,22.0937082 C13.4259311,22.1849101 13.4527552,22.2600176 13.517133,22.3243954 C13.5815109,22.3834084 13.6566183,22.4155973 13.7478202,22.4155973 C13.8390221,22.4155973 13.9141296,22.3834084 13.9785074,22.3243954 C14.0428852,22.2600176 14.0750741,22.1849101 14.0750741,22.0937082 C14.0750741,21.9971415 14.0428852,21.922034 13.9785074,21.8683858 C13.9141296,21.804008 13.8390221,21.7771839 13.7478202,21.7771839 Z M13.5332275,22.8233235 L13.5332275,25.5969345 L13.962413,25.5969345 L13.962413,22.8233235 L13.5332275,22.8233235 Z M16.0654217,22.748216 C15.8830179,22.748216 15.7167085,22.7911346 15.5664936,22.8769717 C15.4162787,22.9574439 15.2928879,23.0754699 15.1963212,23.2310497 L15.1963212,22.8233235 L14.7671357,22.8233235 L14.7671357,25.5969345 L15.1963212,25.5969345 L15.1963212,23.9231112 C15.2124156,23.6709648 15.2928879,23.4724665 15.4431028,23.3222516 C15.5825881,23.1827663 15.7488975,23.1130237 15.9420309,23.1130237 C16.4248646,23.1130237 16.6716462,23.3812646 16.6716462,23.9231112 L16.6716462,25.5969345 L17.1008317,25.5969345 L17.1008317,23.8909223 C17.1008317,23.1291181 16.7521185,22.748216 16.0654217,22.748216 Z M19.8154297,21.6913468 L19.8154297,23.3329812 C19.600837,22.9413495 19.2950423,22.748216 18.8980458,22.748216 C18.5010492,22.748216 18.1952546,22.8930661 17.9699322,23.193496 C17.7607043,23.4617369 17.6587728,23.7943556 17.6587728,24.2020818 C17.6587728,24.6205376 17.7607043,24.963886 17.9699322,25.2321269 C18.1952546,25.5218271 18.5117789,25.672042 18.9195051,25.672042 C19.3379609,25.672042 19.6491204,25.495003 19.8422538,25.140925 L19.8422538,25.5969345 L20.2446152,25.5969345 L20.2446152,21.6913468 L19.8154297,21.6913468 Z M18.9892477,23.102294 C19.2360293,23.102294 19.4398924,23.1988608 19.5954722,23.4027239 C19.7456871,23.6012221 19.8261594,23.8640982 19.8261594,24.1859873 L19.8261594,24.2396355 C19.8261594,24.550795 19.7564167,24.8029414 19.6222963,24.9960749 C19.4667165,25.2106676 19.2521238,25.317964 18.9731532,25.317964 C18.6727234,25.317964 18.4474011,25.2053028 18.2971861,24.9907101 C18.1630657,24.7975766 18.0986879,24.5347005 18.0986879,24.2020818 C18.0986879,23.8694631 18.1630657,23.6119518 18.302551,23.4241831 C18.4527659,23.2095904 18.6834531,23.102294 18.9892477,23.102294 Z"/>
    <path fill="#FFF" d="M19.6710004,0 L26.8240914,7.86131789 L21.012205,7.86131789 C20.2714781,7.86131789 19.6710004,7.26084015 19.6710004,6.52011332 L19.6710004,0 L19.6710004,0 Z" opacity=".5"/>
    <path fill="#FFF" fill-rule="nonzero" d="M11.2948468,22.3058833 L11.5257064,17.4116599 C11.5431569,17.0417078 11.257398,16.7276559 10.8874459,16.7102054 C10.5174939,16.6927548 10.203442,16.9785137 10.1859914,17.3484658 L9.92040633,22.9788692 C9.90178084,23.3737296 10.2270005,23.6989492 10.6218609,23.6803237 L16.2522642,23.4147386 C16.6222163,23.3972881 16.9079752,23.0832362 16.8905247,22.7132841 C16.8730741,22.343332 16.5590222,22.0575731 16.1890701,22.0750237 L11.2948468,22.3058833 Z" transform="rotate(135 13.405 20.195)"/>
    <path fill="#FFF" fill-rule="nonzero" d="M11.5257064,7.46927418 C11.5431569,7.09932211 11.257398,6.78527021 10.8874459,6.76781964 C10.5174939,6.75036908 10.203442,7.03612801 10.1859914,7.40608008 L9.92040633,13.0364834 C9.90178084,13.4313438 10.2270005,13.7565635 10.6218609,13.737938 L16.2522642,13.4723529 C16.6222163,13.4549023 16.9079752,13.1408504 16.8905247,12.7708984 C16.8730741,12.4009463 16.5590222,12.1151874 16.1890701,12.1326379 L11.2948468,12.3634975 L11.5257064,7.46927418 Z" transform="rotate(-45 13.405 10.253)"/>
  </g>
</svg>
