<svg xmlns="http://www.w3.org/2000/svg" width="26" height="32">
  <defs>
    <linearGradient id="a" x1="0%" x2="0%" y1="100%" y2="0%">
      <stop offset="0%" stop-color="#C1917E"/>
      <stop offset="100%" stop-color="#A76D5A"/>
    </linearGradient>
  </defs>
  <path fill-rule="evenodd" fill="url(#a)" d="M26 6v24a2 2 0 0 1-2 2H2a2 2 0 0 1-2-2V2a2 2 0 0 1 2-2h18l6 6z"/>
  <path fill-rule="evenodd" fill="#D3937D" d="M26 6h-4a2 2 0 0 1-2-2V0l6 6z"/>
  <path fill-rule="evenodd" opacity=".6" fill="#FFF" d="M19.816 20.825l-.012.02a.413.413 0 0 1-.164.148c-.034.04-.049.094-.096.121l-3.679 2.088a.395.395 0 0 1-.555-.178.458.458 0 0 1 .181-.594l3.199-1.815-2.912-1.934a.443.443 0 0 1-.127-.593l.012-.021a.399.399 0 0 1 .565-.134l3.461 2.299a.442.442 0 0 1 .127.593zm-8.395 3.58l1.923-7.691h.769l-1.923 7.691h-.769zM9.67 23.202l-3.679-2.088c-.048-.027-.063-.081-.096-.121a.4.4 0 0 1-.164-.148l-.012-.02a.442.442 0 0 1 .127-.593l3.461-2.299a.398.398 0 0 1 .564.134l.013.021c.121.2.064.466-.127.593l-2.912 1.933 3.199 1.816a.46.46 0 0 1 .181.594.395.395 0 0 1-.555.178z"/>
  <path fill-rule="evenodd" fill="#FFF" d="M21.666 7.213h-3.295c.054 1.044.693 1.711 1.621 1.711a2.1 2.1 0 0 0 1.224-.388l.297.541c-.432.279-.954.504-1.621.504-1.296 0-2.34-.946-2.34-2.557 0-1.584 1.071-2.575 2.205-2.575 1.243 0 1.945.9 1.945 2.296 0 .18-.018.351-.036.468zm-1.9-2.107c-.693 0-1.305.559-1.404 1.522h2.62c0-.99-.45-1.522-1.216-1.522zM15.51 8.888h-.018c-.387.378-.9.693-1.486.693-1.224 0-2.016-.928-2.016-2.557 0-1.584.999-2.575 2.115-2.575.577 0 .946.216 1.378.576l-.045-.846V2.298h.819v7.166h-.666l-.081-.576zm-.072-3.232c-.414-.37-.783-.514-1.189-.514-.792 0-1.413.757-1.413 1.873 0 1.179.486 1.882 1.35 1.882.451 0 .847-.226 1.252-.676V5.656zM8.787 9.581c-1.198 0-2.269-.937-2.269-2.557 0-1.629 1.071-2.575 2.269-2.575 1.197 0 2.268.946 2.268 2.575 0 1.62-1.071 2.557-2.268 2.557zm0-4.448c-.847 0-1.414.766-1.414 1.891s.567 1.873 1.414 1.873c.846 0 1.422-.748 1.422-1.873s-.576-1.891-1.422-1.891zM4.305 8.897c.45 0 .846-.208 1.152-.487l.351.55a2.33 2.33 0 0 1-1.575.621c-1.297 0-2.296-.937-2.296-2.557 0-1.629 1.107-2.575 2.359-2.575.639 0 1.08.27 1.431.576l-.423.55c-.288-.262-.585-.442-.981-.442-.883 0-1.531.766-1.531 1.891s.612 1.873 1.513 1.873z"/>
</svg>
