<svg xmlns="http://www.w3.org/2000/svg" width="26" height="32">
  <defs>
    <linearGradient id="a" x1="0%" x2="0%" y1="100%" y2="0%">
      <stop offset="0%" stop-color="#C1917E"/>
      <stop offset="100%" stop-color="#A76D5A"/>
    </linearGradient>
  </defs>
  <path fill-rule="evenodd" fill="url(#a)" d="M26 6v24a2 2 0 0 1-2 2H2a2 2 0 0 1-2-2V2a2 2 0 0 1 2-2h18l6 6z"/>
  <path fill-rule="evenodd" fill="#D3937D" d="M26 6h-4a2 2 0 0 1-2-2V0l6 6z"/>
  <path fill-rule="evenodd" opacity=".6" fill="#FFF" d="M19.816 20.825l-.012.02a.407.407 0 0 1-.164.148c-.034.04-.049.094-.096.121l-3.679 2.088a.395.395 0 0 1-.555-.178.458.458 0 0 1 .181-.594l3.199-1.815-2.912-1.934a.443.443 0 0 1-.127-.593l.012-.021a.399.399 0 0 1 .565-.134l3.461 2.299a.442.442 0 0 1 .127.593zm-8.395 3.58l1.923-7.691h.769l-1.922 7.691h-.77zM9.67 23.202l-3.679-2.088c-.048-.027-.063-.081-.096-.121a.4.4 0 0 1-.164-.148l-.012-.02a.442.442 0 0 1 .127-.593l3.461-2.299a.398.398 0 0 1 .564.134l.013.021c.121.2.064.466-.127.593l-2.912 1.933 3.199 1.816a.46.46 0 0 1 .181.594.395.395 0 0 1-.555.178z"/>
  <path fill-rule="evenodd" fill="#FFF" d="M14.476 5.097c-.612 0-.891.325-.891.703 0 .468.531.639 1.08.846.712.27 1.495.558 1.495 1.485 0 .793-.63 1.45-1.783 1.45-.693 0-1.359-.288-1.827-.675l.405-.541c.423.342.864.577 1.449.577.649 0 .964-.343.964-.766 0-.495-.577-.72-1.117-.927-.684-.252-1.458-.585-1.458-1.413 0-.775.621-1.387 1.683-1.387.604 0 1.135.252 1.522.549l-.396.532c-.342-.253-.685-.433-1.126-.433zm-4.022 1.549c.711.27 1.494.558 1.494 1.485 0 .793-.63 1.45-1.783 1.45-.693 0-1.359-.288-1.827-.675l.405-.541c.423.342.864.577 1.449.577.649 0 .964-.343.964-.766 0-.495-.576-.72-1.117-.927-.684-.252-1.458-.585-1.458-1.413 0-.775.621-1.387 1.683-1.387.604 0 1.135.252 1.522.549l-.396.532c-.342-.253-.684-.433-1.126-.433-.612 0-.891.325-.891.703 0 .468.531.639 1.081.846zM6.305 8.897c.45 0 .846-.208 1.152-.487l.351.55a2.33 2.33 0 0 1-1.575.621c-1.297 0-2.296-.937-2.296-2.557 0-1.629 1.107-2.575 2.359-2.575.639 0 1.08.27 1.431.576l-.423.55c-.288-.262-.585-.442-.981-.442-.883 0-1.531.766-1.531 1.891s.612 1.873 1.513 1.873z"/>
</svg>
