<svg xmlns="http://www.w3.org/2000/svg" width="26" height="32">
  <defs>
    <linearGradient id="a" x1="0%" x2="0%" y1="100%" y2="0%">
      <stop offset="0%" stop-color="#C1917E"/>
      <stop offset="100%" stop-color="#A76D5A"/>
    </linearGradient>
  </defs>
  <path fill-rule="evenodd" fill="url(#a)" d="M26 6v24a2 2 0 0 1-2 2H2a2 2 0 0 1-2-2V2a2 2 0 0 1 2-2h18l6 6z"/>
  <path fill-rule="evenodd" fill="#D3937D" d="M26 6h-4a2 2 0 0 1-2-2V0l6 6z"/>
  <path fill-rule="evenodd" opacity=".6" fill="#FFF" d="M19.816 20.825l-.013.02a.4.4 0 0 1-.164.148c-.033.04-.048.094-.095.121l-3.679 2.088a.395.395 0 0 1-.555-.178.459.459 0 0 1 .18-.594l3.2-1.816-2.912-1.933a.443.443 0 0 1-.127-.593l.012-.021a.399.399 0 0 1 .565-.134l3.461 2.299a.442.442 0 0 1 .127.593zm-8.395 3.58l1.923-7.691h.769l-1.923 7.691h-.769zM9.67 23.202l-3.679-2.088c-.048-.027-.063-.081-.096-.121a.4.4 0 0 1-.164-.148l-.012-.02a.442.442 0 0 1 .127-.593l3.46-2.299a.399.399 0 0 1 .565.134l.013.021c.121.2.064.466-.127.593l-2.912 1.934 3.199 1.815a.46.46 0 0 1 .181.594.395.395 0 0 1-.555.178z"/>
  <path fill-rule="evenodd" fill="#FFF" d="M20.36 9.581c-.612 0-.864-.396-.864-1.09V2.298h.819v6.247c0 .253.108.352.234.352.045 0 .081 0 .171-.018l.117.63a1.294 1.294 0 0 1-.477.072zm-3.274-3.106c0-.918-.288-1.306-.909-1.306-.379 0-.775.244-1.234.748v3.547h-.819V6.475c0-.918-.288-1.306-.909-1.306-.369 0-.784.244-1.234.748v3.547h-.819V4.575h.675l.072.711h.027c.423-.468.937-.837 1.522-.837.747 0 1.152.36 1.35.936.504-.549 1.017-.936 1.612-.936 1.008 0 1.485.666 1.485 1.918v3.097h-.819V6.475zm-7.597 2.44c.171 0 .396-.063.558-.126l.162.612c-.279.09-.603.18-.9.18-1.045 0-1.396-.648-1.396-1.63v-2.71h-.729V4.62l.765-.045.099-1.368h.684v1.368h1.324v.666H8.732v2.728c0 .603.189.946.757.946zm-4.095-2.44c0-.918-.279-1.306-.927-1.306-.504 0-.846.253-1.342.748v3.547h-.819V2.298h.819V4.26l-.027 1.008c.451-.45.955-.819 1.621-.819 1.026 0 1.494.666 1.494 1.918v3.097h-.819V6.475z"/>
</svg>
