<svg xmlns="http://www.w3.org/2000/svg" width="26" height="32">
  <defs>
    <linearGradient id="a" x1="0%" x2="0%" y1="100%" y2="0%">
      <stop offset="0%" stop-color="#9E9EEE"/>
      <stop offset="100%" stop-color="#7D7CE5"/>
    </linearGradient>
  </defs>
  <path fill-rule="evenodd" fill="url(#a)" d="M26 6v24a2 2 0 0 1-2 2H2a2 2 0 0 1-2-2V2a2 2 0 0 1 2-2h18l6 6z"/>
  <path fill-rule="evenodd" fill="#D9DDFA" d="M26 6h-4a2 2 0 0 1-2-2V0l6 6z"/>
  <path fill-rule="evenodd" fill="#FFF" d="M18.847 18.273c-.446 0-.919-.207-1.365-.566l.019.854v1.655h-.828v-6.944h.682l.073.557h.027c.446-.359 1.001-.683 1.574-.683 1.274 0 1.966.989 1.966 2.492 0 1.673-1.01 2.635-2.148 2.635zm-.018-4.435c-.418 0-.846.234-1.328.675v2.564c.445.378.882.513 1.21.513.819 0 1.419-.729 1.419-1.943 0-1.08-.364-1.809-1.301-1.809zm-5.807 3.716h.964c1.147 0 1.72.359 1.72 1.16 0 .909-.965 1.691-2.493 1.691-1.211 0-2.048-.467-2.048-1.313 0-.414.273-.81.737-1.107v-.036a.88.88 0 0 1-.455-.8c0-.405.301-.729.555-.909v-.036c-.327-.261-.646-.728-.646-1.313 0-1.071.856-1.745 1.857-1.745.273 0 .518.063.691.126h1.72v.629h-1.01c.236.225.4.585.4 1.008 0 1.043-.8 1.7-1.801 1.7-.246 0-.519-.063-.737-.171-.182.153-.319.315-.319.585 0 .315.2.531.865.531zm.191-1.503c.564 0 1.046-.449 1.046-1.16 0-.711-.464-1.143-1.046-1.143-.583 0-1.056.423-1.056 1.143 0 .711.482 1.16 1.056 1.16zm-1.32 2.933c0 .522.537.864 1.438.864.946 0 1.574-.495 1.574-1.008 0-.45-.355-.603-1.01-.603h-.855c-.182 0-.419-.027-.637-.081-.355.252-.51.54-.51.828zm-1.695-2.591c0 1.179-.955 1.88-2.138 1.88-1.046 0-1.701-.431-2.138-.899l.418-.54c.392.405.901.756 1.656.756.792 0 1.356-.468 1.356-1.224 0-.791-.537-1.322-2.074-1.322v-.63c1.374 0 1.847-.549 1.847-1.259 0-.639-.437-1.044-1.129-1.062-.536.018-1.01.288-1.383.657l-.445-.522c.5-.459 1.091-.791 1.865-.791 1.119 0 1.938.593 1.938 1.655 0 .8-.482 1.331-1.192 1.592v.036c.792.18 1.419.774 1.419 1.673z"/>
</svg>
