<svg xmlns="http://www.w3.org/2000/svg" width="26" height="32">
  <defs>
    <linearGradient id="a" x1="0%" x2="0%" y1="100%" y2="0%">
      <stop offset="0%" stop-color="#9E9EEE"/>
      <stop offset="100%" stop-color="#7D7CE5"/>
    </linearGradient>
  </defs>
  <path fill-rule="evenodd" fill="url(#a)" d="M26 6v24a2 2 0 0 1-2 2H2a2 2 0 0 1-2-2V2a2 2 0 0 1 2-2h18l6 6z"/>
  <path fill-rule="evenodd" fill="#D9DDFA" d="M26 6h-4a2 2 0 0 1-2-2V0l6 6z"/>
  <path fill-rule="evenodd" fill="#FFF" d="M16.791 13.264c-.328 0-.573-.225-.573-.531 0-.332.245-.53.573-.53.327 0 .573.198.573.53 0 .306-.246.531-.573.531zm-4.097 5.892l-1.783-4.884h.864l.928 2.779c.155.477.309.981.464 1.44h.037c.145-.459.309-.963.455-1.44l.937-2.779h.819l-1.756 4.884h-.965zm-3.396-.584H9.27c-.473.386-1.028.701-1.637.701-.829 0-1.447-.503-1.447-1.385 0-1.062.937-1.592 3.039-1.826 0-.63-.209-1.233-1.019-1.233-.573 0-1.092.261-1.483.522l-.328-.567c.455-.287 1.156-.638 1.947-.638 1.201 0 1.711.8 1.711 2.006v3.004H9.37l-.072-.584zm-.073-1.97c-1.665.197-2.229.602-2.229 1.232 0 .558.382.783.873.783.482 0 .874-.225 1.356-.648v-1.367zm7.975 2.554h-.828v-4.884h.828v4.884z"/>
</svg>
