<svg xmlns="http://www.w3.org/2000/svg" width="26" height="32">
  <defs>
    <linearGradient id="a" x1="0%" x2="0%" y1="100%" y2="0%">
      <stop offset="0%" stop-color="#9E9EEE"/>
      <stop offset="100%" stop-color="#7D7CE5"/>
    </linearGradient>
  </defs>
  <path fill-rule="evenodd" fill="url(#a)" d="M26 6v24a2 2 0 0 1-2 2H2a2 2 0 0 1-2-2V2a2 2 0 0 1 2-2h18l6 6z"/>
  <path fill-rule="evenodd" fill="#D9DDFA" d="M26 6h-4a2 2 0 0 1-2-2V0l6 6z"/>
  <path fill-rule="evenodd" fill="#FFF" d="M18.273 16.663c0 .603.191.945.764.945.173 0 .4-.063.564-.126l.164.611c-.282.09-.61.18-.91.18-1.055 0-1.41-.647-1.41-1.628v-2.708h-.737v-.62l.773-.045.1-1.368h.692v1.368h1.337v.665h-1.337v2.726zm-3.209.909h-.027c-.473.386-1.028.701-1.638.701-.828 0-1.447-.503-1.447-1.385 0-1.062.937-1.592 3.039-1.826 0-.63-.209-1.233-1.019-1.233-.573 0-1.092.261-1.483.522l-.327-.567c.455-.287 1.155-.638 1.947-.638 1.201 0 1.71.8 1.71 2.006v3.004h-.682l-.073-.584zm-.073-1.97c-1.665.197-2.229.602-2.229 1.232 0 .558.382.783.874.783.482 0 .873-.225 1.355-.648v-1.367zm-5.293 1.979H9.68c-.391.377-.91.692-1.502.692-1.237 0-2.038-.926-2.038-2.554 0-1.584 1.01-2.573 2.139-2.573.582 0 .955.216 1.392.575l-.046-.845v-1.88h.828v7.16H9.78l-.082-.575zm-.073-3.23c-.418-.369-.791-.513-1.201-.513-.801 0-1.428.756-1.428 1.872 0 1.178.491 1.88 1.364 1.88.455 0 .856-.225 1.265-.675v-2.564z"/>
</svg>
