<svg xmlns="http://www.w3.org/2000/svg" width="26" height="32">
  <defs>
    <linearGradient id="a" x1="0%" x2="0%" y1="100%" y2="0%">
      <stop offset="0%" stop-color="#F45F5F"/>
      <stop offset="100%" stop-color="#EE3B3B"/>
    </linearGradient>
  </defs>
  <path fill-rule="evenodd" fill="url(#a)" d="M26 6v24a2 2 0 0 1-2 2H2a2 2 0 0 1-2-2V2a2 2 0 0 1 2-2h18l6 6z"/>
  <path fill-rule="evenodd" fill="#FF8276" d="M26 6h-4a2 2 0 0 1-2-2V0l6 6z"/>
  <path fill-rule="evenodd" opacity=".6" fill="#FFF" d="M14.596 13.196c-2.008 1.542-3.486 5.846-4.557 8.143-1.072 2.296-3.038 1.938-3.038 1.938v2.716s1.242.054 2.279-.389c1.039-.446 2.333-1.482 3.038-2.714.274-.483.683-1.616 1.139-2.715h3.038v-2.714h-1.899c.31-.705.526-1.203.739-1.544.771-1.232 2.679-1.17 2.679-1.17v-2.714s-1.409-.38-3.418 1.163z"/>
  <path fill-rule="evenodd" fill="#FFF" d="M13.355 10.156h-.964l-1.784-4.884h.865l.928 2.779c.154.477.309.981.464 1.44h.036c.146-.459.309-.963.455-1.44l.937-2.779h.819l-1.756 4.884zm-3.844 0h-.792V8.339H5.816v-.54l2.776-4.237h.919v4.121h.882v.656h-.882v1.817zm-.774-5.694c-.163.324-.345.648-.537.972L6.681 7.683h2.038V5.658c0-.323.037-.854.055-1.196h-.037zM5.16 3.535c-.473 0-.7.333-.7.963v.774h1.046v.665H4.46v4.219h-.828V5.937h-.674v-.62l.674-.045v-.783c0-.99.455-1.61 1.437-1.61.301 0 .592.063.828.162l-.182.62a1.415 1.415 0 0 0-.555-.126z"/>
</svg>
