<svg xmlns="http://www.w3.org/2000/svg" width="26" height="32">
  <defs>
    <linearGradient id="a" x1="0%" x2="0%" y1="100%" y2="0%">
      <stop offset="0%" stop-color="#9E9EEE"/>
      <stop offset="100%" stop-color="#7D7CE5"/>
    </linearGradient>
  </defs>
  <path fill-rule="evenodd" fill="url(#a)" d="M26 6v24a2 2 0 0 1-2 2H2a2 2 0 0 1-2-2V2a2 2 0 0 1 2-2h18l6 6z"/>
  <path fill-rule="evenodd" fill="#D9DDFA" d="M26 6h-4a2 2 0 0 1-2-2V0l6 6z"/>
  <path fill-rule="evenodd" fill="#FFF" d="M21.584 13.793c-.619 0-.901.324-.901.702 0 .468.537.639 1.092.846.719.27 1.511.557 1.511 1.484 0 .792-.637 1.448-1.802 1.448-.701 0-1.374-.288-1.847-.674l.409-.54c.428.342.874.576 1.465.576.655 0 .974-.342.974-.765 0-.495-.582-.72-1.128-.927-.692-.251-1.474-.584-1.474-1.412 0-.774.627-1.385 1.701-1.385.61 0 1.147.252 1.538.548l-.401.531c-.345-.252-.691-.432-1.137-.432zm-3.095 3.815c.173 0 .401-.063.564-.126l.164.611c-.282.09-.609.18-.91.18-1.055 0-1.41-.647-1.41-1.628v-2.708h-.737v-.62l.773-.045.1-1.368h.692v1.368h1.338v.665h-1.338v2.726c0 .603.191.945.764.945zm-7.257.063c2.092-1.809 3.057-3.122 3.057-4.255 0-.756-.4-1.305-1.228-1.305-.546 0-1.02.333-1.384.765l-.482-.468c.546-.585 1.119-.971 1.966-.971 1.192 0 1.938.773 1.938 1.952 0 1.313-1.047 2.653-2.612 4.12.346-.027.756-.063 1.092-.063h1.847v.71h-4.194v-.485zm-1.75-2.501c0-.918-.291-1.305-.919-1.305-.382 0-.782.243-1.246.747v3.544h-.828V15.17c0-.918-.291-1.305-.919-1.305-.373 0-.792.243-1.247.747v3.544h-.828v-4.884h.683l.072.71h.028c.427-.467.946-.836 1.537-.836.756 0 1.165.36 1.365.935.51-.548 1.028-.935 1.629-.935 1.019 0 1.501.665 1.501 1.916v3.094h-.828V15.17z"/>
</svg>
