<svg xmlns="http://www.w3.org/2000/svg" width="26" height="32">
  <defs>
    <linearGradient id="a" x1="0%" x2="0%" y1="100%" y2="0%">
      <stop offset="0%" stop-color="#9E9EEE"/>
      <stop offset="100%" stop-color="#7D7CE5"/>
    </linearGradient>
  </defs>
  <path fill-rule="evenodd" fill="url(#a)" d="M26 6v24a2 2 0 0 1-2 2H2a2 2 0 0 1-2-2V2a2 2 0 0 1 2-2h18l6 6z"/>
  <path fill-rule="evenodd" fill="#D9DDFA" d="M26 6h-4a2 2 0 0 1-2-2V0l6 6z"/>
  <path fill-rule="evenodd" fill="#FFF" d="M19.471 18.156h-.965l-1.783-4.884h.864l.928 2.779c.155.477.309.981.464 1.44h.037c.145-.459.309-.963.455-1.44l.937-2.779h.819l-1.756 4.884zm-5.626.117c-1.21 0-2.293-.935-2.293-2.554 0-1.629 1.083-2.573 2.293-2.573 1.21 0 2.293.944 2.293 2.573 0 1.619-1.083 2.554-2.293 2.554zm0-4.444c-.856 0-1.429.765-1.429 1.89 0 1.124.573 1.871 1.429 1.871.855 0 1.437-.747 1.437-1.871 0-1.125-.582-1.89-1.437-1.89zM9.482 15.17c0-.918-.291-1.305-.919-1.305-.382 0-.782.243-1.246.747v3.544h-.828V15.17c0-.918-.291-1.305-.919-1.305-.373 0-.792.243-1.247.747v3.544h-.828v-4.884h.683l.072.71h.028c.427-.467.946-.836 1.537-.836.756 0 1.165.36 1.365.935.51-.548 1.028-.935 1.629-.935 1.019 0 1.501.665 1.501 1.916v3.094h-.828V15.17z"/>
</svg>
