<svg xmlns="http://www.w3.org/2000/svg" width="26" height="32">
  <defs>
    <linearGradient id="a" x1="0%" x2="0%" y1="100%" y2="0%">
      <stop offset="0%" stop-color="#9E9EEE"/>
      <stop offset="100%" stop-color="#7D7CE5"/>
    </linearGradient>
  </defs>
  <path fill-rule="evenodd" fill="url(#a)" d="M26 6v24a2 2 0 0 1-2 2H2a2 2 0 0 1-2-2V2a2 2 0 0 1 2-2h18l6 6z"/>
  <path fill-rule="evenodd" fill="#D9DDFA" d="M26 6h-4a2 2 0 0 1-2-2V0l6 6z"/>
  <path fill-rule="evenodd" fill="#FFF" d="M20.608 16.339v1.817h-.792v-1.817h-2.902v-.54l2.775-4.237h.919v4.121h.883v.656h-.883zm-.773-3.877c-.164.324-.346.648-.537.972l-1.52 2.249h2.038v-2.025c0-.323.037-.854.055-1.196h-.036zM14.1 18.273c-.446 0-.919-.207-1.365-.566l.018.854v1.655h-.828v-6.944h.682l.073.557h.027c.446-.359 1.001-.683 1.575-.683 1.273 0 1.965.989 1.965 2.492 0 1.673-1.01 2.635-2.147 2.635zm-.019-4.435c-.418 0-.846.234-1.328.675v2.564c.446.378.882.513 1.21.513.819 0 1.42-.729 1.42-1.943 0-1.08-.364-1.809-1.302-1.809zM9.482 15.17c0-.918-.291-1.305-.919-1.305-.382 0-.782.243-1.246.747v3.544h-.828V15.17c0-.918-.291-1.305-.919-1.305-.373 0-.792.243-1.247.747v3.544h-.828v-4.884h.683l.072.71h.028c.427-.467.946-.836 1.537-.836.756 0 1.165.36 1.365.935.51-.548 1.028-.935 1.629-.935 1.019 0 1.501.665 1.501 1.916v3.094h-.828V15.17z"/>
</svg>
