<svg xmlns="http://www.w3.org/2000/svg" width="26" height="32">
  <defs>
    <linearGradient id="a" x1="0%" x2="0%" y1="100%" y2="0%">
      <stop offset="0%" stop-color="#9E9EEE"/>
      <stop offset="100%" stop-color="#7D7CE5"/>
    </linearGradient>
  </defs>
  <path fill-rule="evenodd" fill="url(#a)" d="M26 6v24a2 2 0 0 1-2 2H2a2 2 0 0 1-2-2V2a2 2 0 0 1 2-2h18l6 6z"/>
  <path fill-rule="evenodd" fill="#D9DDFA" d="M26 6h-4a2 2 0 0 1-2-2V0l6 6z"/>
  <path fill-rule="evenodd" fill="#FFF" d="M21.538 14.909c0 1.043-.801 1.7-1.802 1.7-.246 0-.519-.063-.737-.171-.182.153-.318.315-.318.585 0 .315.2.531.864.531h.965c1.146 0 1.719.359 1.719 1.16 0 .909-.964 1.691-2.493 1.691-1.21 0-2.047-.467-2.047-1.313 0-.414.273-.81.737-1.107v-.036a.88.88 0 0 1-.455-.8c0-.405.3-.729.555-.909v-.036a1.706 1.706 0 0 1-.646-1.313c0-1.071.855-1.745 1.856-1.745.273 0 .519.063.692.126h1.719v.629h-1.01c.237.225.401.585.401 1.008zm-3.121 4.075c0 .522.537.864 1.437.864.947 0 1.575-.495 1.575-1.008 0-.45-.355-.603-1.01-.603h-.856c-.182 0-.418-.027-.637-.081-.355.252-.509.54-.509.828zm1.319-5.236c-.582 0-1.055.423-1.055 1.143 0 .711.482 1.16 1.055 1.16.564 0 1.046-.449 1.046-1.16 0-.711-.464-1.143-1.046-1.143zm-4.893 4.525c-.446 0-.919-.207-1.365-.566l.018.854v1.655h-.828v-6.944h.683l.073.557h.027c.446-.359 1.001-.683 1.574-.683 1.274 0 1.965.989 1.965 2.492 0 1.673-1.01 2.635-2.147 2.635zm-.018-4.435c-.419 0-.846.234-1.329.675v2.564c.446.378.883.513 1.211.513.819 0 1.419-.729 1.419-1.943 0-1.08-.364-1.809-1.301-1.809zm-4.343 1.332c0-.918-.291-1.305-.919-1.305-.382 0-.782.243-1.246.747v3.544h-.828V15.17c0-.918-.291-1.305-.919-1.305-.373 0-.792.243-1.247.747v3.544h-.828v-4.884h.683l.072.71h.028c.427-.467.946-.836 1.537-.836.756 0 1.165.36 1.365.935.51-.548 1.028-.935 1.629-.935 1.019 0 1.501.665 1.501 1.916v3.094h-.828V15.17z"/>
</svg>
