<svg xmlns="http://www.w3.org/2000/svg" width="26" height="32">
  <defs>
    <linearGradient id="a" x1="0%" x2="0%" y1="100%" y2="0%">
      <stop offset="0%" stop-color="#9E9EEE"/>
      <stop offset="100%" stop-color="#7D7CE5"/>
    </linearGradient>
  </defs>
  <path fill-rule="evenodd" fill="url(#a)" d="M26 6v24a2 2 0 0 1-2 2H2a2 2 0 0 1-2-2V2a2 2 0 0 1 2-2h18l6 6z"/>
  <path fill-rule="evenodd" fill="#D9DDFA" d="M26 6h-4a2 2 0 0 1-2-2V0l6 6z"/>
  <path fill-rule="evenodd" fill="#FFF" d="M18.749 13.793c-.619 0-.901.324-.901.702 0 .468.537.639 1.092.846.719.27 1.511.557 1.511 1.484 0 .792-.637 1.448-1.802 1.448-.701 0-1.374-.288-1.847-.674l.409-.54c.428.342.874.576 1.465.576.655 0 .974-.342.974-.765 0-.495-.583-.72-1.128-.927-.692-.251-1.475-.584-1.475-1.412 0-.774.628-1.385 1.702-1.385.61 0 1.147.252 1.538.548l-.401.531c-.345-.252-.691-.432-1.137-.432zm-3.086 3.815c.173 0 .4-.063.564-.126l.164.611c-.282.09-.61.18-.91.18-1.056 0-1.411-.647-1.411-1.628v-2.708h-.737v-.62l.774-.045.1-1.368h.691v1.368h1.338v.665h-1.338v2.726c0 .603.192.945.765.945zm-4.181-2.438c0-.918-.291-1.305-.919-1.305-.382 0-.782.243-1.246.747v3.544h-.828V15.17c0-.918-.291-1.305-.919-1.305-.373 0-.792.243-1.247.747v3.544h-.828v-4.884h.683l.072.71h.028c.427-.467.946-.836 1.537-.836.756 0 1.165.36 1.365.935.51-.548 1.028-.935 1.629-.935 1.019 0 1.501.665 1.501 1.916v3.094h-.828V15.17z"/>
</svg>
