<svg xmlns="http://www.w3.org/2000/svg" width="26" height="32">
  <defs>
    <linearGradient id="a" x1="0%" x2="0%" y1="100%" y2="0%">
      <stop offset="0%" stop-color="#9E9EEE"/>
      <stop offset="100%" stop-color="#7D7CE5"/>
    </linearGradient>
  </defs>
  <path fill-rule="evenodd" fill="url(#a)" d="M26 6v24a2 2 0 0 1-2 2H2a2 2 0 0 1-2-2V2a2 2 0 0 1 2-2h18l6 6z"/>
  <path fill-rule="evenodd" fill="#D9DDFA" d="M26 6h-4a2 2 0 0 1-2-2V0l6 6z"/>
  <path fill-rule="evenodd" fill="#FFF" d="M17.014 19.156V16.17c0-.918-.291-1.305-.919-1.305-.382 0-.782.243-1.246.747v3.544h-.828V16.17c0-.918-.291-1.305-.919-1.305-.373 0-.792.243-1.247.747v3.544h-.828v-4.884h.683l.072.71h.028c.427-.467.946-.836 1.537-.836.756 0 1.165.36 1.365.935.51-.548 1.028-.935 1.629-.935 1.019 0 1.501.665 1.501 1.916v3.094h-.828zM9.57 14.892c-.41 0-.919.288-1.247 1.125v3.139h-.828v-4.884h.683l.072.89h.028c.345-.62.846-1.016 1.401-1.016.218 0 .373.027.528.108l-.155.719a1.18 1.18 0 0 0-.482-.081z"/>
</svg>
