<svg xmlns="http://www.w3.org/2000/svg" width="26" height="32">
  <defs>
    <linearGradient id="a" x1="0%" x2="0%" y1="100%" y2="0%">
      <stop offset="0%" stop-color="#9E9EEE"/>
      <stop offset="100%" stop-color="#7D7CE5"/>
    </linearGradient>
  </defs>
  <path fill-rule="evenodd" fill="url(#a)" d="M26 6v24a2 2 0 0 1-2 2H2a2 2 0 0 1-2-2V2a2 2 0 0 1 2-2h18l6 6z"/>
  <path fill-rule="evenodd" fill="#D9DDFA" d="M26 6h-4a2 2 0 0 1-2-2V0l6 6z"/>
  <path fill-rule="evenodd" fill="#FFF" d="M20.374 18.273c-.455 0-.973-.225-1.41-.62h-.027l-.073.503H18.2v-7.16h.828v1.961l-.028.881c.446-.386 1.001-.692 1.547-.692 1.283 0 1.975.989 1.975 2.483 0 1.682-1.01 2.644-2.148 2.644zm-.018-4.435c-.418 0-.855.234-1.328.675v2.564c.436.378.882.513 1.21.513.819 0 1.419-.729 1.419-1.943 0-1.08-.364-1.809-1.301-1.809zm-5.835 4.318l-1.783-4.884h.864l.929 2.779c.154.477.309.981.464 1.44h.036c.146-.459.309-.963.455-1.44l.937-2.779h.819l-1.756 4.884h-.965zm-3.507-2.986c0-.918-.291-1.305-.919-1.305-.382 0-.782.243-1.246.747v3.544h-.828V15.17c0-.918-.291-1.305-.919-1.305-.373 0-.792.243-1.247.747v3.544h-.828v-4.884h.683l.072.71h.028c.427-.467.946-.836 1.537-.836.756 0 1.165.36 1.365.935.51-.548 1.028-.935 1.629-.935 1.019 0 1.501.665 1.501 1.916v3.094h-.828V15.17zM3.57 13.892c-.41 0-.919.288-1.247 1.125v3.139h-.828v-4.884h.683l.072.89h.028c.345-.62.846-1.016 1.401-1.016.218 0 .373.027.528.108l-.155.719a1.18 1.18 0 0 0-.482-.081z"/>
</svg>
