<svg xmlns="http://www.w3.org/2000/svg" width="26" height="32">
  <defs>
    <linearGradient id="a" x1="0%" x2="0%" y1="100%" y2="0%">
      <stop offset="0%" stop-color="#F45F5F"/>
      <stop offset="100%" stop-color="#EE3B3B"/>
    </linearGradient>
  </defs>
  <path fill-rule="evenodd" fill="url(#a)" d="M26 6v24a2 2 0 0 1-2 2H2a2 2 0 0 1-2-2V2a2 2 0 0 1 2-2h18l6 6z"/>
  <path fill-rule="evenodd" fill="#FF8276" d="M26 6h-4a2 2 0 0 1-2-2V0l6 6z"/>
  <path fill-rule="evenodd" opacity=".6" fill="#FFF" d="M14.596 13.196c-2.008 1.542-3.486 5.846-4.557 8.143-1.072 2.296-3.038 1.938-3.038 1.938v2.716s1.242.054 2.279-.389c1.039-.446 2.333-1.482 3.038-2.714.274-.483.683-1.616 1.139-2.715h3.038v-2.714h-1.899c.31-.705.526-1.203.739-1.544.771-1.232 2.679-1.17 2.679-1.17v-2.714s-1.409-.38-3.418 1.163z"/>
  <path fill-rule="evenodd" fill="#FFF" d="M17.276 3.661a1.415 1.415 0 0 0-.555-.126c-.473 0-.7.333-.7.963v.774h1.046v.665h-1.046v4.219h-.828V5.937h-.674v-.62l.674-.045v-.783c0-.99.455-1.61 1.437-1.61.301 0 .592.063.828.162l-.182.62zm-5.635 6.495l-.719-2.635c-.127-.459-.218-.909-.337-1.404h-.045c-.109.495-.21.954-.337 1.422l-.691 2.617h-.974L7.164 5.272h.846l.737 2.824c.1.468.2.909.291 1.368h.046c.109-.459.209-.909.337-1.368l.764-2.824h.81l.773 2.824c.118.468.228.909.346 1.368h.036c.109-.459.2-.9.31-1.368l.728-2.824h.782l-1.328 4.884h-1.001zM5.078 7.341c.719.27 1.511.557 1.511 1.484 0 .792-.637 1.448-1.802 1.448-.7 0-1.374-.288-1.847-.674l.41-.54c.427.342.873.576 1.464.576.656 0 .974-.342.974-.765 0-.495-.582-.72-1.128-.927-.692-.251-1.474-.584-1.474-1.412 0-.774.628-1.385 1.701-1.385.61 0 1.147.252 1.538.548l-.4.531c-.346-.252-.692-.432-1.138-.432-.618 0-.901.324-.901.702 0 .468.537.639 1.092.846z"/>
</svg>
