<svg xmlns="http://www.w3.org/2000/svg" width="26" height="32">
  <defs>
    <linearGradient id="a" x1="0%" x2="0%" y1="100%" y2="0%">
      <stop offset="0%" stop-color="#9E9EEE"/>
      <stop offset="100%" stop-color="#7D7CE5"/>
    </linearGradient>
  </defs>
  <path fill-rule="evenodd" fill="url(#a)" d="M26 6v24a2 2 0 0 1-2 2H2a2 2 0 0 1-2-2V2a2 2 0 0 1 2-2h18l6 6z"/>
  <path fill-rule="evenodd" fill="#D9DDFA" d="M26 6h-4a2 2 0 0 1-2-2V0l6 6z"/>
  <path fill-rule="evenodd" fill="#FFF" d="M22.349 18.273c-1.211 0-2.293-.935-2.293-2.554 0-1.629 1.082-2.573 2.293-2.573 1.21 0 2.293.944 2.293 2.573 0 1.619-1.083 2.554-2.293 2.554zm0-4.444c-.856 0-1.429.765-1.429 1.89 0 1.124.573 1.871 1.429 1.871.855 0 1.437-.747 1.437-1.871 0-1.125-.582-1.89-1.437-1.89zm-6.509 2.078c.055 1.044.701 1.71 1.638 1.71.483 0 .874-.144 1.238-.387l.3.54c-.437.278-.965.503-1.638.503-1.31 0-2.366-.944-2.366-2.554 0-1.584 1.083-2.573 2.23-2.573 1.255 0 1.965.899 1.965 2.294 0 .18-.018.35-.036.467H15.84zm1.411-2.105c-.701 0-1.32.558-1.42 1.521h2.648c0-.99-.455-1.521-1.228-1.521zm-4.307 3.779h-.018c-.391.377-.91.692-1.501.692-1.238 0-2.039-.926-2.039-2.554 0-1.584 1.01-2.573 2.139-2.573.582 0 .955.216 1.392.575l-.046-.845v-1.88h.828v7.16h-.673l-.082-.575zm-.073-3.23c-.418-.369-.791-.513-1.201-.513-.8 0-1.428.756-1.428 1.872 0 1.178.491 1.88 1.365 1.88.455 0 .855-.225 1.264-.675v-2.564zm-5.214-2.087c-.328 0-.574-.225-.574-.531 0-.332.246-.53.574-.53.327 0 .573.198.573.53 0 .306-.246.531-.573.531zM3.56 18.156l-1.784-4.884h.865l.928 2.779c.154.477.309.981.464 1.44h.036c.146-.459.31-.963.455-1.44l.937-2.779h.819l-1.756 4.884H3.56zm4.506 0h-.828v-4.884h.828v4.884z"/>
</svg>
