<svg xmlns="http://www.w3.org/2000/svg" width="26" height="32">
  <defs>
    <linearGradient id="a" x1="0%" x2="0%" y1="100%" y2="0%">
      <stop offset="0%" stop-color="#9E9EEE"/>
      <stop offset="100%" stop-color="#7D7CE5"/>
    </linearGradient>
  </defs>
  <path fill-rule="evenodd" fill="url(#a)" d="M26 6v24a2 2 0 0 1-2 2H2a2 2 0 0 1-2-2V2a2 2 0 0 1 2-2h18l6 6z"/>
  <path fill-rule="evenodd" fill="#D9DDFA" d="M26 6h-4a2 2 0 0 1-2-2V0l6 6z"/>
  <path fill-rule="evenodd" fill="#FFF" d="M21.255 18.156h-.965l-1.783-4.884h.864l.928 2.779c.155.477.31.981.464 1.44h.037c.145-.459.309-.963.455-1.44l.937-2.779h.819l-1.756 4.884zm-4.472-2.986c0-.918-.291-1.305-.919-1.305-.382 0-.782.243-1.246.747v3.544h-.828V15.17c0-.918-.292-1.305-.919-1.305-.374 0-.792.243-1.247.747v3.544h-.828v-4.884h.682l.073.71h.027c.428-.467.947-.836 1.538-.836.755 0 1.165.36 1.365.935.51-.548 1.028-.935 1.629-.935 1.019 0 1.501.665 1.501 1.916v3.094h-.828V15.17zM7.38 18.156l-.718-2.635c-.128-.459-.219-.909-.337-1.404h-.046c-.109.495-.209.954-.336 1.422l-.692 2.617h-.973l-1.374-4.884h.846l.737 2.824c.1.468.2.909.291 1.368h.046c.109-.459.209-.909.336-1.368l.765-2.824h.809l.774 2.824c.118.468.227.909.346 1.368h.036c.109-.459.2-.9.309-1.368l.728-2.824h.783l-1.329 4.884H7.38z"/>
</svg>
